<svg width="18" height="18"  viewBox="0 0 18 18" fill="none" xmlns="http://www.w3.org/2000/svg">
<path opacity="0.5"  d="M15.9251 7.61042H5.39216L9.97172 3.04474C10.233 2.78342 10.3798 2.429 10.3798 2.05944C10.3798 1.68988 10.233 1.33546 9.97172 1.07414C9.7104 0.812822 9.35598 0.666016 8.98642 0.666016C8.61686 0.666016 8.26244 0.812822 8.00112 1.07414L1.0624 8.01287C0.936055 8.14485 0.837019 8.30047 0.77097 8.47082C0.63217 8.80868 0.63217 9.18765 0.77097 9.52551C0.837019 9.69586 0.936055 9.85148 1.0624 9.98346L8.00112 16.9222C8.13013 17.0523 8.28362 17.1555 8.45273 17.226C8.62184 17.2964 8.80322 17.3327 8.98642 17.3327C9.16962 17.3327 9.35101 17.2964 9.52012 17.226C9.68923 17.1555 9.84271 17.0523 9.97172 16.9222C10.1018 16.7932 10.205 16.6397 10.2755 16.4706C10.3459 16.3015 10.3822 16.1201 10.3822 15.9369C10.3822 15.7537 10.3459 15.5723 10.2755 15.4032C10.205 15.2341 10.1018 15.0806 9.97172 14.9516L5.39216 10.3859H15.9251C16.2932 10.3859 16.6462 10.2397 16.9064 9.97945C17.1667 9.7192 17.3129 9.36622 17.3129 8.99817C17.3129 8.63011 17.1667 8.27713 16.9064 8.01688C16.6462 7.75663 16.2932 7.61042 15.9251 7.61042Z" fill="white"/>
</svg>
