<svg width="18" height="18" viewBox="0 0 18 18" fill="none" xmlns="http://www.w3.org/2000/svg">
<path d="M2.07473 7.61042H12.6077L8.02816 3.04474C7.76684 2.78342 7.62003 2.429 7.62003 2.05944C7.62003 1.68988 7.76684 1.33546 8.02816 1.07414C8.28947 0.812822 8.6439 0.666016 9.01346 0.666016C9.38301 0.666016 9.73744 0.812822 9.99875 1.07414L16.9375 8.01287C17.0638 8.14485 17.1629 8.30047 17.2289 8.47082C17.3677 8.80868 17.3677 9.18765 17.2289 9.52551C17.1629 9.69586 17.0638 9.85148 16.9375 9.98346L9.99875 16.9222C9.86975 17.0523 9.71626 17.1555 9.54715 17.226C9.37804 17.2964 9.19665 17.3327 9.01346 17.3327C8.83026 17.3327 8.64887 17.2964 8.47976 17.226C8.31065 17.1555 8.15717 17.0523 8.02816 16.9222C7.89809 16.7932 7.79485 16.6397 7.72439 16.4706C7.65394 16.3015 7.61766 16.1201 7.61766 15.9369C7.61766 15.7537 7.65394 15.5723 7.72439 15.4032C7.79485 15.2341 7.89809 15.0806 8.02816 14.9516L12.6077 10.3859H2.07473C1.70668 10.3859 1.3537 10.2397 1.09344 9.97945C0.833193 9.7192 0.686985 9.36622 0.686985 8.99817C0.686985 8.63011 0.833193 8.27713 1.09344 8.01688C1.3537 7.75663 1.70668 7.61042 2.07473 7.61042Z" fill="white"/>
</svg>
