<svg width="34" height="34" viewBox="0 0 34 34" fill="none" xmlns="http://www.w3.org/2000/svg">
<g opacity="0.5">
<path fill-rule="evenodd" clip-rule="evenodd" d="M11.9697 11.5693C12.2626 11.2764 12.7374 11.2764 13.0303 11.5693L17 15.5389L20.9697 11.5693C21.2626 11.2764 21.7374 11.2764 22.0303 11.5693C22.3232 11.8622 22.3232 12.337 22.0303 12.6299L18.0607 16.5996L22.0303 20.5693C22.3232 20.8622 22.3232 21.337 22.0303 21.6299C21.7374 21.9228 21.2626 21.9228 20.9697 21.6299L17 17.6603L13.0303 21.6299C12.7374 21.9228 12.2626 21.9228 11.9697 21.6299C11.6768 21.337 11.6768 20.8622 11.9697 20.5693L15.9393 16.5996L11.9697 12.6299C11.6768 12.337 11.6768 11.8622 11.9697 11.5693Z" fill="white"/>
<rect x="0.75" y="0.75" width="32.5" height="31.6987" rx="15.8494" stroke="#A3A3A3" stroke-width="1.5"/>
</g>
</svg>
