<svg width="12" height="16" viewBox="0 0 12 16" fill="none" xmlns="http://www.w3.org/2000/svg">
<path d="M6 7.10055C6.29667 7.10055 6.58668 7.01258 6.83335 6.84776C7.08003 6.68294 7.27229 6.44867 7.38582 6.17458C7.49935 5.90049 7.52906 5.59889 7.47118 5.30792C7.4133 5.01695 7.27044 4.74967 7.06066 4.53989C6.85088 4.33012 6.58361 4.18725 6.29264 4.12938C6.00166 4.0715 5.70006 4.1012 5.42597 4.21473C5.15189 4.32827 4.91762 4.52053 4.7528 4.7672C4.58797 5.01387 4.5 5.30388 4.5 5.60055C4.5 5.99838 4.65804 6.37991 4.93934 6.66121C5.22064 6.94252 5.60218 7.10055 6 7.10055ZM5.4675 12.2831C5.53722 12.3533 5.62017 12.4091 5.71157 12.4472C5.80296 12.4853 5.90099 12.5049 6 12.5049C6.09901 12.5049 6.19704 12.4853 6.28843 12.4472C6.37983 12.4091 6.46278 12.3533 6.5325 12.2831L9.6 9.20805C10.3125 8.49596 10.7977 7.58857 10.9945 6.60065C11.1912 5.61273 11.0905 4.58866 10.7051 3.65797C10.3197 2.72728 9.66703 1.93179 8.82952 1.3721C7.992 0.812409 7.00731 0.513672 6 0.513672C4.99269 0.513672 4.008 0.812409 3.17048 1.3721C2.33297 1.93179 1.68025 2.72728 1.29489 3.65797C0.909528 4.58866 0.808835 5.61273 1.00555 6.60065C1.20226 7.58857 1.68753 8.49596 2.4 9.20805L5.4675 12.2831ZM2.4225 5.25555C2.47374 4.72082 2.64376 4.20427 2.92014 3.74364C3.19652 3.28301 3.57229 2.88991 4.02 2.59305C4.60815 2.20688 5.2964 2.00112 6 2.00112C6.7036 2.00112 7.39185 2.20688 7.98 2.59305C8.42472 2.88889 8.79836 3.2796 9.07405 3.73709C9.34973 4.19458 9.52061 4.70748 9.5744 5.23889C9.62819 5.77031 9.56354 6.30705 9.38512 6.8105C9.2067 7.31395 8.91892 7.7716 8.5425 8.15055L6 10.6931L3.4575 8.15055C3.08064 7.77528 2.7922 7.3207 2.61315 6.81991C2.43411 6.31911 2.36898 5.78469 2.4225 5.25555ZM11.25 14.0006H0.75C0.551088 14.0006 0.360322 14.0796 0.21967 14.2202C0.0790178 14.3609 0 14.5516 0 14.7506C0 14.9495 0.0790178 15.1402 0.21967 15.2809C0.360322 15.4215 0.551088 15.5006 0.75 15.5006H11.25C11.4489 15.5006 11.6397 15.4215 11.7803 15.2809C11.921 15.1402 12 14.9495 12 14.7506C12 14.5516 11.921 14.3609 11.7803 14.2202C11.6397 14.0796 11.4489 14.0006 11.25 14.0006Z" fill="#38BDF8"/>
</svg>
