<svg width="22" height="55" viewBox="0 0 22 55" fill="none" xmlns="http://www.w3.org/2000/svg">
<path d="M11.1541 0C10.7638 0 10.3735 0 9.98382 0C9.9087 0.0152594 9.83358 0.0399093 9.75787 0.0451914C8.2554 0.146725 6.83099 0.552861 5.53981 1.31172C2.08297 3.34299 0.189627 6.38196 0.0534649 10.3969C-0.0474815 13.3708 0.0252934 16.3505 0.0258808 19.3278C0.0258808 20.7593 0.276487 22.1532 0.860453 23.4573C2.42865 26.9605 5.0744 29.149 8.87986 29.8322C11.2492 30.2577 13.5264 29.875 15.5993 28.6736C19.0679 26.6641 20.9501 23.6063 21.0851 19.5907C21.1848 16.6263 21.1238 13.6566 21.1038 10.6892C21.0991 9.98084 21.0311 9.26188 20.8925 8.56758C20.5028 6.6132 19.6307 4.88771 18.2726 3.42222C16.5835 1.59754 14.5129 0.483019 12.048 0.117967C11.751 0.0739495 11.4523 0.0393224 11.1541 0ZM2.02369 15.0094C2.01782 15.0094 2.01195 15.0094 2.00608 15.0094C2.00608 13.6425 2.01019 12.2756 2.00491 10.9093C1.99963 9.52305 2.26373 8.199 2.85592 6.9401C4.77684 2.85762 9.38284 0.980711 13.6044 2.56593C16.7302 3.73915 19.0456 6.92367 19.1031 10.2549C19.1553 13.261 19.1277 16.2683 19.1277 19.275C19.1277 20.5908 18.846 21.8468 18.2855 23.04C16.2238 27.4282 11.096 29.2676 6.77583 27.0737C3.80787 25.5666 2.23028 23.0452 2.03895 19.7234C1.94857 18.1569 2.02369 16.5811 2.02369 15.0094Z" fill="#38BDF8"/>
<path d="M11.5627 10.9459C11.5627 10.3895 11.5668 9.83315 11.5616 9.27736C11.5557 8.65583 11.1267 8.20333 10.5597 8.20979C10.0016 8.21624 9.57959 8.66052 9.57666 9.26621C9.57079 10.3884 9.56961 11.5105 9.57724 12.6333C9.58135 13.2413 10.0063 13.668 10.5779 13.6639C11.1372 13.6597 11.5516 13.2378 11.561 12.6444C11.5698 12.0786 11.5627 11.5123 11.5633 10.9465L11.5627 10.9459Z" fill="#38BDF8"/>
<line x1="11.5703" y1="41" x2="11.5703" y2="54" stroke="url(#paint0_linear_4841_25148)" stroke-width="2" stroke-linecap="round"/>
<defs>
<linearGradient id="paint0_linear_4841_25148" x1="9.57031" y1="40" x2="9.57031" y2="55" gradientUnits="userSpaceOnUse">
<stop stop-color="#38BDF8"/>
<stop offset="1" stop-color="#38BDF8" stop-opacity="0"/>
</linearGradient>
</defs>
</svg>
