<svg width="71" height="70" viewBox="0 0 71 70" fill="none" xmlns="http://www.w3.org/2000/svg">
<path fill-rule="evenodd" clip-rule="evenodd" d="M0.5 35C0.5 54.33 16.17 70 35.5 70C54.83 70 70.5 54.33 70.5 35C70.5 15.67 54.83 0 35.5 0C16.17 0 0.5 15.67 0.5 35ZM2.52899 35C2.52899 16.7906 17.2906 2.02899 35.5 2.02899C53.7094 2.02899 68.471 16.7906 68.471 35C68.471 53.2094 53.7094 67.971 35.5 67.971C17.2906 67.971 2.52899 53.2094 2.52899 35ZM26.8851 31.9293C26.8844 32.9611 26.8838 33.9929 26.8838 35.0246C26.8838 35.907 26.883 36.7893 26.8822 37.6717C26.8796 40.6582 26.8769 43.6447 26.9045 46.6312C26.9091 47.1168 27.074 47.6784 27.3599 48.0689C27.918 48.8297 28.9268 48.8845 29.8814 48.3061C36.2999 44.4204 42.715 40.5325 49.1277 36.6391C50.57 35.763 50.5712 34.2325 49.13 33.3576C46.5228 31.7746 43.9144 30.193 41.3059 28.6114C37.5321 26.3233 33.7582 24.035 29.9875 21.7421C29.2888 21.3169 28.589 21.12 27.8292 21.5284C27.0682 21.9367 26.8734 22.6136 26.8769 23.4169C26.8887 26.2541 26.8869 29.0918 26.8851 31.9293Z" fill="white"/>
</svg>
