<svg width="188" height="45" viewBox="0 0 188 45" fill="none" xmlns="http://www.w3.org/2000/svg">
<path d="M23.148 5.979C22.8752 5.95402 22.7264 6.04771 22.6706 6.24133C22.621 6.41622 22.5776 6.59736 22.5156 6.77224C22.373 7.17824 22.218 7.57798 22.0816 7.97773C21.9576 8.33375 21.846 8.69602 21.722 9.05204C21.536 9.57046 21.3314 10.0826 21.1454 10.6011C21.0648 10.8197 21.009 11.0508 20.9346 11.2756C20.7796 11.7503 20.6432 12.2313 20.451 12.6872C20.3332 12.962 20.2712 13.2494 20.1534 13.5242C19.9612 13.9739 19.8372 14.4486 19.6698 14.9108C19.5086 15.3605 19.3412 15.8102 19.1924 16.2599C19.0746 16.6285 18.9072 16.9782 18.7708 17.3468C18.7026 17.5279 18.6654 17.7215 18.6034 17.9089C18.4422 18.3961 18.281 18.877 18.1074 19.358C17.9772 19.7078 17.8221 20.0513 17.6919 20.4011C17.5679 20.7446 17.4625 21.1006 17.3447 21.4504C17.2145 21.8251 17.0719 22.1937 16.9355 22.5622C16.8549 22.7808 16.7929 23.0119 16.7123 23.2305C16.6255 23.4803 16.5821 23.7427 16.4333 23.9738C16.3403 24.1237 16.3279 24.3236 16.2721 24.4984C16.1047 25.0044 15.9435 25.5103 15.7637 26.01C15.6397 26.366 15.4847 26.7033 15.3483 27.0531C15.2739 27.2529 15.2243 27.4653 15.1499 27.6652C15.0631 27.9025 14.9639 28.1399 14.8771 28.3772C14.8027 28.5771 14.7469 28.7895 14.6787 28.9956C14.5423 29.3891 14.3997 29.7826 14.2571 30.1761C14.1393 30.5196 14.0215 30.8694 13.9037 31.2129C13.7611 31.6189 13.6061 32.0187 13.4697 32.4246C13.3395 32.7932 13.2279 33.1617 13.1039 33.5302C12.8559 34.2547 12.2669 34.7544 11.4733 34.8044C11.3121 34.8169 11.1571 34.8731 11.0021 34.9168C10.9525 34.9293 10.9029 34.948 10.8533 34.9605C10.4812 35.0167 10.103 35.073 9.73104 35.1292C9.65044 35.1417 9.57604 35.1729 9.49543 35.1979C9.42723 35.2166 9.35903 35.2666 9.29083 35.2603C8.89403 35.2291 8.52202 35.3728 8.15001 35.454C7.74081 35.5477 7.313 35.5352 6.9224 35.7163C6.8604 35.7475 6.7798 35.7288 6.7116 35.7475C6.48839 35.7912 6.27139 35.835 6.04819 35.8787C5.96758 35.8912 5.88698 35.8974 5.80638 35.9162C5.67618 35.9412 5.55218 35.9786 5.42198 36.0036C5.27937 36.0286 5.13677 36.0473 4.99417 36.0598C4.82057 36.0723 4.65317 36.0786 4.49196 36.1785C4.25016 36.3222 4.03316 36.241 3.86576 36.0099C3.51855 35.5164 3.24575 34.9793 2.92334 34.4733C2.65674 34.0486 2.47073 33.5864 2.22893 33.1554C1.99953 32.7494 1.86933 32.2935 1.68952 31.8563C1.55932 31.5315 1.41052 31.2192 1.28652 30.8944C1.20592 30.682 1.15012 30.4634 1.09432 30.2448C1.03231 30.0074 0.908313 29.7888 0.895913 29.5327C0.889713 29.3891 0.802911 29.2454 0.753311 29.1018C0.666509 28.8582 0.641709 28.6021 0.604508 28.346C0.561108 28.0337 0.449507 27.7339 0.362705 27.4278C0.356505 27.3966 0.331705 27.3716 0.331705 27.3404C0.350305 26.7283 0.0775013 26.1474 0.120902 25.5228C0.133302 25.3042 0.058901 25.0793 0.0279006 24.8545C0.0155004 24.7608 0.00310014 24.6671 0.00310014 24.5734C0.00310014 23.5428 0.00310014 22.5122 0.00310014 21.4879C0.00310014 21.4254 -0.00930023 21.3567 0.0155001 21.3005C0.170502 20.9632 0.108501 20.6072 0.139502 20.2574C0.158102 20.045 0.213903 19.8327 0.257304 19.6203C0.263504 19.5766 0.282104 19.5391 0.288304 19.5016C0.344105 19.1144 0.399906 18.7271 0.461907 18.3399C0.480507 18.2212 0.530108 18.1025 0.561108 17.9838C0.579708 17.9276 0.604509 17.8652 0.610709 17.809C0.629309 17.4404 0.734711 17.1032 0.889713 16.7721C0.902113 16.7471 0.908313 16.7097 0.914513 16.6847C0.933113 16.2412 1.13772 15.854 1.26792 15.448C1.48492 14.7921 1.76392 14.155 2.04293 13.5179C2.27853 12.9808 2.53894 12.4499 2.82414 11.9377C3.09694 11.4443 3.43175 10.9821 3.71695 10.5011C4.33696 9.45179 5.12437 8.53362 5.89938 7.60921C6.63719 6.73477 7.48041 5.979 8.34222 5.24197C9.03043 4.65484 9.78064 4.14892 10.5308 3.63674C11.0765 3.26823 11.6407 2.9247 12.2421 2.64363C12.7195 2.42502 13.1597 2.1377 13.6371 1.91284C13.9471 1.76294 14.2881 1.68174 14.6105 1.56307C14.7717 1.50061 14.9267 1.41941 15.0879 1.36319C15.3855 1.25701 15.6645 1.11335 15.9807 1.05714C16.1977 1.01966 16.4023 0.907234 16.6069 0.832282C16.6379 0.81979 16.6627 0.807298 16.6937 0.801052C16.9789 0.738592 17.2703 0.682377 17.5555 0.613671C17.9028 0.532473 18.2438 0.432537 18.591 0.345092C18.6716 0.326354 18.7522 0.320108 18.839 0.313862C19.1056 0.295124 19.3784 0.320108 19.6202 0.170204C19.6388 0.157712 19.6574 0.157712 19.6822 0.157712C20.172 0.107744 20.6618 0.0202996 21.1516 0.0140535C22.3916 -0.00468452 23.6316 -0.00468452 24.8654 0.0140535C25.2127 0.0202996 25.5599 0.101498 25.9009 0.132728C26.1241 0.151466 26.3535 0.151466 26.5643 0.251402C26.6511 0.295124 26.7627 0.288878 26.8681 0.295124C27.1099 0.320108 27.3517 0.320108 27.5935 0.413799C27.8787 0.526227 28.1949 0.538719 28.4925 0.613671C28.8335 0.701116 29.1745 0.801052 29.5155 0.894742C29.7387 0.957202 29.9681 1.01342 30.1913 1.08212C30.4145 1.15083 30.6315 1.23827 30.8485 1.31947C31.3321 1.50685 31.8157 1.68799 32.2932 1.88161C32.535 1.98155 32.7706 2.10022 33.0062 2.22514C33.3534 2.40628 33.6944 2.59991 34.0354 2.79353C34.3702 2.98091 34.7174 3.1558 35.0398 3.36192C35.6474 3.75542 36.255 4.14267 36.8316 4.57365C37.3524 4.9609 37.8422 5.38563 38.3258 5.82285C38.7908 6.24133 39.2497 6.65982 39.6651 7.12202C40.3099 7.84031 40.9795 8.54611 41.5003 9.36434C41.6615 9.62043 41.8785 9.84529 42.0459 10.0951C42.2753 10.4387 42.4985 10.7822 42.7093 11.1382C42.9511 11.5504 43.1805 11.9689 43.3975 12.3937C43.5463 12.681 43.6703 12.9808 43.8129 13.2744C43.9369 13.5429 44.0857 13.799 44.1973 14.0676C44.3399 14.4174 44.4639 14.7734 44.5941 15.1232C44.6561 15.2856 44.7243 15.4417 44.7801 15.6041C44.9227 16.0413 45.0715 16.4723 45.1955 16.9158C45.2823 17.2093 45.3195 17.5216 45.3877 17.8215C45.4621 18.1587 45.5489 18.5023 45.6295 18.8396C45.6543 18.9395 45.6667 19.0394 45.6853 19.1456C45.7225 19.3455 45.7659 19.5454 45.7969 19.7515C45.8155 19.8764 45.8279 20.0013 45.8341 20.12C45.8589 20.5197 45.8155 20.932 45.9581 21.3192C46.0016 21.4441 45.9953 21.5878 45.9953 21.719C46.0015 22.5934 46.0015 23.4679 45.9953 24.3361C45.9953 24.5422 45.9333 24.742 45.9086 24.9482C45.8837 25.1543 45.8651 25.3604 45.8465 25.5665C45.8217 25.9288 45.8775 26.2911 45.7163 26.6408C45.6791 26.7283 45.6977 26.8469 45.6853 26.9469C45.6605 27.1218 45.6233 27.2904 45.5923 27.4653C45.5737 27.5777 45.5551 27.6902 45.5241 27.8026C45.4869 27.94 45.4435 28.0712 45.4063 28.2086C45.4001 28.2398 45.3877 28.271 45.3815 28.296C45.3195 28.6208 45.2699 28.9456 45.1893 29.2642C45.1273 29.5202 45.0157 29.7638 44.9351 30.0137C44.8793 30.1886 44.8297 30.3697 44.7739 30.5446C44.6685 30.8569 44.5631 31.1629 44.4453 31.469C44.2965 31.8563 44.1353 32.2498 43.9679 32.6308C43.8563 32.8931 43.7323 33.1492 43.5959 33.4053C43.3045 33.9549 43.0131 34.5046 42.7031 35.0417C42.4985 35.3977 42.2753 35.7413 42.0521 36.0786C41.9467 36.2347 41.6987 36.2784 41.4941 36.1598C41.3329 36.0661 41.1655 36.0411 40.9919 36.0411C40.7997 36.0348 40.6137 36.0099 40.4215 35.9411C40.1735 35.86 39.9007 35.835 39.6465 35.7725C39.2435 35.6663 38.8157 35.6663 38.4126 35.5601C38.0468 35.4602 37.6562 35.4727 37.309 35.3041C37.2904 35.2978 37.2718 35.2853 37.247 35.2916C36.8254 35.329 36.4286 35.1854 36.038 35.0854C35.6288 34.9793 35.1948 35.0292 34.8104 34.8294C34.736 34.7919 34.6306 34.7919 34.5376 34.7856C33.9424 34.7607 33.4526 34.5296 33.1116 34.0236C33.0124 33.8737 32.938 33.7051 32.8698 33.5364C32.7954 33.3491 32.752 33.1429 32.69 32.9493C32.628 32.7744 32.5474 32.6058 32.4854 32.4371C32.3924 32.1748 32.3118 31.9125 32.2188 31.6501C32.0824 31.2754 31.9335 30.9131 31.7971 30.5383C31.7413 30.3822 31.6855 30.226 31.6421 30.0699C31.5739 29.845 31.5181 29.6202 31.4437 29.3953C31.4003 29.2704 31.3321 29.1517 31.2887 29.0331C31.1523 28.6708 31.0159 28.3085 30.8919 27.94C30.8051 27.6902 30.7369 27.4341 30.6563 27.1842C30.6129 27.0593 30.5633 26.9344 30.5137 26.8157C30.3711 26.4347 30.2223 26.0475 30.0921 25.6602C29.9123 25.1355 29.7511 24.6109 29.5651 24.0862C29.4411 23.7427 29.2861 23.4054 29.1621 23.0619C29.0815 22.8433 29.0195 22.6121 28.9513 22.3873C28.7963 21.9126 28.6413 21.4379 28.4739 20.9694C28.3437 20.6134 28.1639 20.2761 28.0709 19.9076C27.9779 19.5266 27.7981 19.1831 27.6927 18.8083C27.5935 18.4523 27.4509 18.115 27.3331 17.7715C27.2029 17.3967 27.0727 17.022 26.9363 16.6534C26.7937 16.2724 26.6387 15.8914 26.5085 15.5042C26.4403 15.2918 26.3969 15.0732 26.2977 14.8671C26.1799 14.6172 26.0931 14.3549 26.0063 14.0926C25.8823 13.7241 25.7769 13.3493 25.6529 12.9808C25.5413 12.6497 25.4235 12.325 25.3057 12.0002C25.2189 11.7628 25.1259 11.5255 25.0391 11.2881C24.8407 10.7447 24.6732 10.1888 24.45 9.65166C24.3012 9.29564 24.2206 8.91463 24.1028 8.54611C24.0532 8.38996 23.9788 8.24631 23.923 8.09015C23.737 7.59047 23.5572 7.09079 23.3774 6.59111C23.2844 6.40998 23.21 6.18512 23.148 5.979Z" fill="#0091F2"/>
<path d="M38.5406 39.1274C38.4782 39.2304 38.4533 39.3274 38.3847 39.3819C37.9293 39.7636 37.474 40.1392 36.9813 40.4785C36.6881 40.6845 36.4074 40.9148 36.1018 41.1087C35.6714 41.3874 35.266 41.6964 34.8106 41.9266C34.3865 42.1387 33.9873 42.3932 33.5507 42.581C33.0642 42.787 32.5776 42.993 32.1036 43.2232C31.8541 43.3444 31.6046 43.4353 31.3364 43.5141C30.9684 43.6231 30.6253 43.8049 30.2636 43.9321C30.0452 44.0109 29.8082 44.0412 29.5837 44.1139C29.3279 44.1927 29.0847 44.2714 28.8102 44.2896C28.5919 44.3017 28.3674 44.3865 28.1678 44.4774C27.9807 44.5622 27.7873 44.5622 27.5939 44.5804C27.4754 44.5925 27.3569 44.635 27.2384 44.6592C27.201 44.6713 27.1636 44.6895 27.1199 44.6955C26.6583 44.7561 26.203 44.8167 25.7414 44.8713C25.4358 44.9076 25.1239 44.944 24.8183 44.9743C24.7122 44.9864 24.6124 44.9985 24.5064 44.9985C23.5209 44.9985 22.5354 45.0045 21.5499 44.9924C21.344 44.9924 21.1444 44.9197 20.9386 44.8955C20.7764 44.8773 20.608 44.8773 20.4396 44.8713C20.2463 44.8591 20.0529 44.8713 19.8658 44.7804C19.7597 44.7319 19.6225 44.7501 19.4978 44.738C19.2545 44.7137 18.9988 44.738 18.7742 44.5986C18.743 44.5804 18.6931 44.5744 18.6557 44.5744C18.3064 44.6047 17.9696 44.5017 17.6577 44.3926C17.1962 44.2351 16.6847 44.2472 16.2543 43.9867C15.8364 43.9685 15.4809 43.7382 15.0817 43.6413C14.7698 43.5625 14.4704 43.4232 14.171 43.302C13.8591 43.1748 13.5597 43.0354 13.2541 42.89C12.7302 42.6416 12.2062 42.3932 11.701 42.1205C11.2519 41.8842 10.8028 41.6358 10.3911 41.345C9.97945 41.0602 9.56155 40.7875 9.15611 40.4907C8.72573 40.1695 8.3203 39.8242 7.88992 39.5152C7.74645 39.4122 7.62794 39.2728 7.45953 39.1153C7.79635 39.0486 8.08328 38.9941 8.3702 38.9396C8.4201 38.9275 8.47623 38.9396 8.52613 38.9214C8.88167 38.8002 9.25591 38.8002 9.62392 38.7578C10.0917 38.7033 10.5471 38.5821 11.0149 38.4973C11.1084 38.4791 11.202 38.4912 11.2955 38.473C11.4702 38.4488 11.6386 38.4064 11.807 38.3822C12.0004 38.3579 12.2 38.3579 12.3933 38.3276C12.5742 38.3034 12.7551 38.2549 12.9298 38.2125C12.9672 38.2065 13.0108 38.1883 13.0483 38.1822C13.3664 38.1337 13.6782 38.055 13.9964 38.055C14.3644 38.0489 14.7199 37.9762 15.0442 37.8429C15.4122 37.6915 15.7491 37.4612 15.9923 37.1219C16.2044 36.8129 16.3479 36.4857 16.4601 36.1343C16.5849 35.7465 16.7533 35.3709 16.8905 34.9892C17.0215 34.6317 17.1275 34.2742 17.2585 33.9168C17.3833 33.5714 17.5267 33.2382 17.6515 32.8928C17.7388 32.6504 17.8074 32.402 17.8885 32.1536C17.9259 32.0385 17.9883 31.9355 18.0257 31.8204C18.1879 31.3538 18.3314 30.8752 18.5185 30.4147C18.6931 29.9845 18.8428 29.5422 18.9988 29.0999C19.1173 28.7546 19.2795 28.4213 19.4104 28.076C19.4853 27.8821 19.5352 27.6761 19.6038 27.4822C19.741 27.1005 19.8845 26.7188 20.0217 26.3371C20.1402 26.0099 20.2525 25.6827 20.371 25.3616C20.5207 24.9617 20.6766 24.5618 20.8263 24.1619C20.9885 23.7257 21.1569 23.2894 21.3066 22.8471C21.4314 22.4897 21.5374 22.1261 21.6621 21.7686C21.7869 21.4172 21.9428 21.0719 22.0738 20.7144C22.1986 20.369 22.2984 20.0176 22.4231 19.6723C22.4917 19.4784 22.5915 19.2966 22.6352 19.0846C22.6601 18.9634 22.8223 18.8543 22.9471 18.7695C22.997 18.7331 23.1279 18.7513 23.1716 18.7937C23.2839 18.8907 23.4086 19.0058 23.4585 19.133C23.5957 19.4844 23.7018 19.848 23.8265 20.2055C23.9388 20.5326 24.0698 20.8598 24.1883 21.187C24.3255 21.5566 24.4503 21.9383 24.6 22.3018C24.7434 22.6593 24.8183 23.041 25.0179 23.3803C25.0366 23.4167 25.0615 23.453 25.0615 23.4894C25.0615 23.7802 25.2549 24.0104 25.336 24.277C25.4108 24.5255 25.4919 24.7678 25.573 25.0162C25.6167 25.1374 25.6666 25.2525 25.7102 25.3737C25.8537 25.7493 25.9972 26.1189 26.1344 26.4946C26.2092 26.7067 26.2716 26.9308 26.3465 27.1429C26.3901 27.2762 26.4525 27.4034 26.5024 27.5307C26.702 28.0517 26.9016 28.5728 27.0887 29.0939C27.2197 29.4574 27.3257 29.833 27.4505 30.2026C27.5066 30.3723 27.5877 30.5298 27.6438 30.6995C27.7499 30.9903 27.8372 31.2872 27.9495 31.572C28.0805 31.9173 28.2302 32.2506 28.3611 32.5899C28.4298 32.7656 28.4797 32.9473 28.542 33.1291C28.6792 33.5047 28.8227 33.8743 28.9599 34.2439C29.0847 34.6014 29.197 34.9589 29.3279 35.3164C29.4589 35.6799 29.5961 36.0434 29.7458 36.3948C29.8207 36.5645 29.8456 36.7463 29.9517 36.9159C30.2074 37.3219 30.563 37.6127 30.9746 37.8187C31.2241 37.9399 31.5173 37.9762 31.798 38.0247C32.1909 38.0913 32.6151 38.0792 32.9893 38.2065C33.2825 38.3034 33.5756 38.3034 33.8625 38.3458C34.268 38.4064 34.6672 38.4973 35.0726 38.576C35.1724 38.5942 35.2784 38.6124 35.3782 38.6185C35.6028 38.6427 35.8336 38.6185 36.0394 38.7457C36.0581 38.7578 36.0831 38.7578 36.1018 38.7578C36.5634 38.7215 36.9937 38.8972 37.4491 38.9396C37.499 38.9456 37.5613 38.9335 37.605 38.9578C37.8295 39.0971 38.0853 39.0668 38.3285 39.0789C38.3909 39.0971 38.4408 39.1153 38.5406 39.1274Z" fill="#0091F2"/>
<path d="M62.6481 14.7167C63.5167 14.7167 64.4117 14.7037 65.3067 14.7167C65.6489 14.7298 65.7674 14.9128 65.7805 15.3702C65.7937 16.3244 65.7805 17.2785 65.7937 18.2457C65.7937 18.494 65.8595 18.7292 65.8858 18.9645C66.6492 18.6508 67.3336 18.3633 68.0312 18.0888C68.176 18.0365 68.3339 18.0104 68.4787 18.0104C69.3605 18.0104 70.2292 17.9581 71.111 18.0235C71.598 18.0627 72.0718 18.2587 72.5325 18.4417C73.5854 18.86 74.5462 19.4481 75.2701 20.3238C75.7308 20.8727 76.1256 21.5001 76.4678 22.1405C76.731 22.6241 76.889 23.1731 77.0733 23.6959C77.1259 23.8396 77.1259 23.9965 77.1391 24.1402C77.1522 24.4409 77.1391 24.7545 77.1654 25.0551C77.2838 26.7543 76.6916 28.205 75.7439 29.5774C75.1122 30.5054 74.2567 31.2111 73.2827 31.7078C72.3219 32.1914 71.2953 32.5966 70.1634 32.4659C69.8343 32.4267 69.5053 32.4528 69.1763 32.4528C68.0575 32.4789 67.0704 32.0999 66.1227 31.5379C66.0833 31.5118 66.0438 31.5248 65.899 31.5118C65.8595 31.6686 65.7937 31.8516 65.7805 32.0215C65.7542 32.2829 65.6226 32.4397 65.3725 32.4397C64.4512 32.4528 63.5431 32.4397 62.6481 32.4397C62.4506 31.8385 62.4506 15.3572 62.6481 14.7167ZM69.7817 29.2245C72.0323 29.4336 73.9145 27.2378 73.9013 25.2512C73.8881 23.1992 72.0981 21.2256 69.8607 21.2256C67.6232 21.2256 65.7674 23.0424 65.7674 25.2512C65.7674 27.3816 67.5837 29.3552 69.7817 29.2245Z" fill="#0091F2"/>
<path d="M103.935 26.6374C104.212 27.696 104.949 28.428 105.857 28.8593C106.897 29.3429 108.016 29.4082 109.161 29.003C109.779 28.7939 110.227 28.3757 110.701 27.9967C111.003 27.7614 111.293 27.6046 111.701 27.6176C112.609 27.6438 113.53 27.6307 114.557 27.6307C114.438 28.0489 114.399 28.3888 114.241 28.6763C113.517 29.9702 112.517 31.042 111.188 31.7216C110.253 32.1921 109.253 32.5973 108.134 32.4797C107.673 32.4405 107.213 32.4666 106.752 32.4666C106.055 32.4666 105.449 32.2183 104.817 31.9569C104.159 31.6824 103.567 31.3164 103.014 30.8721C102.08 30.114 101.369 29.186 100.882 28.1012C100.237 26.6504 100.158 25.069 100.513 23.579C100.987 21.6185 102.119 20.037 103.935 18.9783C104.58 18.5993 105.265 18.3902 105.936 18.1026C106.16 17.9981 106.449 18.0111 106.713 17.9981C107.331 17.985 107.937 18.0242 108.555 17.985C109.174 17.9458 109.713 18.168 110.253 18.3771C111.503 18.8476 112.596 19.5665 113.412 20.6382C113.807 21.161 114.149 21.71 114.438 22.3243C114.965 23.4483 115.07 24.5984 115.031 25.7878C115.018 26.2583 114.965 26.3106 114.504 26.3368C114.307 26.3498 114.109 26.3498 113.912 26.3368C110.885 26.3368 107.871 26.3237 104.844 26.3237C104.528 26.3237 104.172 26.2453 103.935 26.6374ZM110.924 22.8863C110.161 21.8145 109.213 21.3309 108.042 21.2525C106.568 21.161 105.383 21.6838 104.422 22.834C104.988 23.0431 108.345 23.1346 110.279 23.017C110.451 22.9908 110.635 22.9385 110.924 22.8863Z" fill="#0091F2"/>
<path d="M134.695 19.082C135.05 18.886 135.274 18.7684 135.498 18.6507C136.643 18.0364 137.88 17.9711 139.157 17.958C140.763 17.945 142.105 18.52 143.355 19.4219C144.54 20.2583 145.33 21.4085 145.83 22.7155C146.08 23.356 146.33 24.0356 146.317 24.7806C146.277 27.1463 146.317 29.525 146.317 31.8907C146.317 32.0345 146.29 32.1913 146.264 32.4396C145.224 32.505 144.185 32.4919 143.053 32.4396C143.04 32.1652 143.026 31.9038 143.026 31.6554C143.026 29.5642 142.987 27.473 143.04 25.3949C143.079 23.9049 142.395 22.807 141.276 21.9836C140.065 21.0818 138.696 21.0033 137.262 21.5131C135.932 21.9836 135.208 22.9638 134.761 24.1924C134.629 24.5453 134.642 24.9636 134.642 25.3557C134.629 27.4469 134.642 29.5381 134.629 31.6162C134.629 31.8645 134.603 32.126 134.577 32.4266C133.484 32.5181 132.444 32.4788 131.431 32.4527C131.273 31.7861 131.299 15.3309 131.444 14.7559C132.444 14.7559 133.471 14.7559 134.55 14.7559C134.577 15.0303 134.616 15.2787 134.629 15.527C134.642 16.4419 134.629 17.3568 134.629 18.2717C134.656 18.4939 134.682 18.7292 134.695 19.082Z" fill="#0091F2"/>
<path d="M159.359 32.3618C159.32 32.1004 159.293 31.8259 159.241 31.4731C158.806 31.656 158.425 31.8129 158.043 31.9828C157.503 32.218 156.977 32.4533 156.385 32.4533C155.792 32.4533 155.2 32.4533 154.608 32.4664C153.765 32.4794 153.002 32.2442 152.239 31.9044C151.002 31.3685 150.041 30.532 149.225 29.4995C148.817 28.9897 148.593 28.3885 148.317 27.8134C147.843 26.8332 147.974 25.7876 147.948 24.7681C147.948 24.7028 147.961 24.6374 147.961 24.5721C147.974 22.1672 149.277 20.4681 151.12 19.1611C152.199 18.3899 153.476 17.8802 154.884 17.9848C155.253 18.0109 155.634 18.0109 156.003 17.9848C156.727 17.9456 157.345 18.2592 158.004 18.4814C158.78 18.7298 159.412 19.2264 160.044 19.71C160.675 20.1936 161.149 20.834 161.531 21.5267C162.136 22.6116 162.584 23.7356 162.557 25.0034C162.531 27.2253 162.557 29.4341 162.557 31.656C162.557 31.8913 162.557 32.1266 162.557 32.3357C161.952 32.5056 159.978 32.5187 159.359 32.3618ZM151.238 25.2386C151.015 27.5128 153.134 29.2381 155.187 29.2642C157.543 29.2904 159.32 27.3168 159.307 25.2648C159.293 23.1213 157.582 21.2261 155.213 21.2261C153.134 21.2261 151.041 22.886 151.238 25.2386Z" fill="#0091F2"/>
<path d="M186.289 18.1152C186.144 18.3244 186.052 18.4812 185.921 18.6119C184.618 19.9581 183.301 21.2913 181.998 22.6505C181.538 23.1341 181.117 23.67 180.656 24.1405C180.38 24.415 180.459 24.6372 180.669 24.8724C180.959 25.2123 181.275 25.539 181.577 25.8658C182.446 26.833 183.315 27.8132 184.196 28.7804C185.131 29.8129 186.079 30.8324 187.026 31.8518C187.171 32.0087 187.289 32.1655 187.5 32.4139C187.171 32.44 186.934 32.4792 186.71 32.4792C185.763 32.4792 184.828 32.4661 183.881 32.4923C183.394 32.5054 183.051 32.3747 182.709 31.9695C181.788 30.8977 180.801 29.8913 179.84 28.8457C179.261 28.2184 178.695 27.5649 178.142 26.9506C177.602 27.1728 177.497 27.5387 177.51 27.9962C177.523 29.1856 177.523 30.388 177.51 31.5774C177.51 31.8388 177.484 32.0871 177.471 32.3877C176.405 32.5184 175.391 32.4531 174.312 32.44C174.286 32.2178 174.246 32.0348 174.246 31.8518C174.246 26.3755 174.246 20.8992 174.246 15.4097C174.246 15.2006 174.286 14.9915 174.312 14.7432C175.352 14.7432 176.352 14.7432 177.431 14.7432C177.458 15.0176 177.51 15.2921 177.523 15.5666C177.537 17.5663 177.523 19.566 177.537 21.5657C177.537 21.8141 177.589 22.0493 177.602 22.2976C177.655 22.3107 177.708 22.3369 177.76 22.3499C178.155 21.9448 178.563 21.5527 178.958 21.1475C179.893 20.1934 180.814 19.2131 181.762 18.2721C181.906 18.1283 182.13 18.0107 182.314 17.9976C183.538 17.9715 184.762 17.9845 186 17.9976C186.026 17.9976 186.079 18.0368 186.289 18.1152Z" fill="#0091F2"/>
<path d="M118.809 27.709C119.506 28.1011 120.125 28.5325 120.809 28.82C121.323 29.0422 121.902 29.1337 122.455 29.186C123.244 29.2513 124.034 29.2513 124.824 29.199C125.271 29.1729 125.719 29.0161 126.14 28.8592C126.285 28.8069 126.416 28.5717 126.43 28.4148C126.443 28.2449 126.324 27.9835 126.193 27.9312C125.798 27.7744 125.456 27.5261 124.995 27.4738C124.403 27.4084 123.837 27.1601 123.258 26.9902C123.179 26.9641 123.086 26.951 123.007 26.9248C122.31 26.7941 121.599 26.6765 120.915 26.5197C120.586 26.4412 120.244 26.3236 119.954 26.1537C119.506 25.8923 119.02 25.6963 118.598 25.3564C118.032 24.9121 117.69 24.3762 117.374 23.7488C117.098 23.1999 117.085 22.6771 117.098 22.1151C117.124 21.1479 117.532 20.3506 118.217 19.671C118.941 18.9521 119.822 18.6123 120.783 18.2855C122.297 17.7758 123.824 17.9588 125.324 18.0633C126.232 18.1156 127.14 18.4293 127.969 18.8868C128.246 19.0436 128.535 19.1743 128.825 19.305C129.088 19.4357 129.115 19.671 128.983 19.8539C128.456 20.6512 127.89 21.4224 127.325 22.2196C125.706 21.2524 123.995 21.0956 122.257 21.3047C121.718 21.3701 121.139 21.4616 120.691 21.8667C120.283 22.2327 120.27 22.6771 120.77 22.8862C121.428 23.1607 122.099 23.4351 122.797 23.5397C123.547 23.6573 124.232 23.9971 125.021 24.0102C125.495 24.0233 125.943 24.35 126.416 24.4938C126.838 24.6245 127.272 24.6899 127.68 24.9382C128.443 25.4218 129.18 25.9315 129.523 26.768C129.812 27.4607 130.062 28.1665 129.825 29.0161C129.444 30.4407 128.575 31.2902 127.285 31.8653C126.377 32.2705 125.456 32.4796 124.455 32.4404C123.902 32.4273 123.363 32.4273 122.81 32.4404C121.797 32.4665 120.862 32.1921 119.901 31.8915C119.072 31.617 118.348 31.1857 117.598 30.7805C117.322 30.6367 117.098 30.3753 116.861 30.1662C116.65 29.9832 116.664 29.748 116.822 29.5911C117.466 28.9638 118.151 28.3233 118.809 27.709Z" fill="#0091F2"/>
<path d="M84.2596 18.0365C85.2994 18.0365 86.3129 18.0365 87.3921 18.0365C87.4053 18.3371 87.4316 18.5985 87.4316 18.8469C87.4184 20.7551 87.3921 22.6764 87.3789 24.5846C87.3789 25.0159 87.3789 25.4603 87.4448 25.8916C87.629 27.0287 88.1818 27.9305 89.1821 28.5971C90.2087 29.2898 91.3143 29.3552 92.4199 29.1461C93.4465 28.95 94.2757 28.3619 94.8679 27.447C95.3154 26.7412 95.5129 26.0092 95.5129 25.1989C95.5129 23.0946 95.5129 20.9773 95.5129 18.873C95.5129 18.6116 95.5129 18.3633 95.5129 18.0496C96.6053 17.9058 97.6319 17.9842 98.7111 17.9842C98.7375 18.1934 98.7901 18.3894 98.7901 18.5724C98.7901 21.0034 98.7901 23.4475 98.7901 25.8785C98.7901 27.0156 98.3426 27.9959 97.7898 28.9761C97.1186 30.1524 96.1709 31.0412 95.0127 31.6555C94.2098 32.0737 93.3543 32.5051 92.3672 32.4658C91.946 32.4528 91.538 32.4528 91.1169 32.4658C90.1824 32.5051 89.3269 32.2829 88.4714 31.9038C87.5764 31.4987 86.813 30.9628 86.1286 30.2701C85.3915 29.5251 84.9177 28.6363 84.4965 27.6953C84.128 26.8849 84.1412 26.0354 84.1412 25.212C84.1149 22.9509 84.1807 20.6897 84.2201 18.4286C84.1938 18.311 84.2333 18.1934 84.2596 18.0365Z" fill="#0091F2"/>
<path d="M78.9293 32.4527C78.7582 31.5247 78.7713 15.2917 78.9293 14.7559C79.9296 14.7559 80.9562 14.7559 81.9565 14.7559C82.1276 15.2525 82.2065 31.3548 82.0486 32.4135C81.022 32.5311 79.9954 32.4658 78.9293 32.4527Z" fill="#0091F2"/>
<path d="M172.574 18.0624C172.574 18.4022 172.574 18.6767 172.574 18.9512C172.561 19.5393 172.561 20.1275 172.534 20.7156C172.508 21.1731 172.429 21.2254 171.995 21.2907C171.416 21.3822 170.81 21.4214 170.284 21.6305C169.586 21.9181 168.994 22.4147 168.546 23.0421C168.059 23.7348 167.836 24.4929 167.836 25.3424C167.849 27.4075 167.836 29.4726 167.836 31.5376C167.836 31.799 167.836 32.0474 167.836 32.3872C166.756 32.5571 165.717 32.4656 164.624 32.4525C164.598 32.2173 164.572 32.0343 164.572 31.8513C164.572 29.4595 164.598 27.0677 164.572 24.6759C164.558 23.9309 164.73 23.2512 165.059 22.6239C165.44 21.8789 165.848 21.1339 166.362 20.4804C166.849 19.8661 167.533 19.4348 168.204 19.0165C168.928 18.5591 169.744 18.35 170.547 18.1016C171.192 17.9056 171.876 17.9579 172.574 18.0624Z" fill="#0091F2"/>
</svg>
