<svg width="41" height="40" viewBox="0 0 41 40" fill="none" xmlns="http://www.w3.org/2000/svg">
<path d="M20.576 5.31467C20.3335 5.29246 20.2013 5.37574 20.1517 5.54785C20.1076 5.70331 20.069 5.86432 20.0139 6.01977C19.8871 6.38065 19.7493 6.73598 19.6281 7.09131C19.5179 7.40778 19.4187 7.72979 19.3085 8.04626C19.1431 8.50708 18.9612 8.96234 18.7959 9.42316C18.7243 9.61748 18.6747 9.8229 18.6085 10.0228C18.4708 10.4447 18.3495 10.8722 18.1787 11.2775C18.0739 11.5218 18.0188 11.7772 17.9141 12.0215C17.7433 12.4212 17.6331 12.8432 17.4842 13.2541C17.341 13.6538 17.1922 14.0535 17.0599 14.4533C16.9552 14.7809 16.8064 15.0918 16.6851 15.4193C16.6245 15.5803 16.5914 15.7525 16.5363 15.919C16.393 16.3521 16.2497 16.7796 16.0954 17.2071C15.9797 17.518 15.8419 17.8234 15.7262 18.1343C15.616 18.4396 15.5223 18.7561 15.4176 19.067C15.3018 19.4001 15.1751 19.7277 15.0538 20.0553C14.9822 20.2496 14.9271 20.455 14.8554 20.6493C14.7783 20.8714 14.7397 21.1046 14.6074 21.31C14.5247 21.4433 14.5137 21.6209 14.4641 21.7764C14.3153 22.2261 14.172 22.6758 14.0122 23.12C13.902 23.4364 13.7642 23.7363 13.6429 24.0472C13.5768 24.2248 13.5327 24.4136 13.4666 24.5913C13.3894 24.8022 13.3013 25.0132 13.2241 25.2242C13.158 25.4019 13.1084 25.5906 13.0477 25.7738C12.9265 26.1236 12.7997 26.4734 12.673 26.8232C12.5683 27.1285 12.4636 27.4395 12.3588 27.7448C12.2321 28.1057 12.0943 28.461 11.9731 28.8219C11.8573 29.1495 11.7581 29.477 11.6479 29.8046C11.4275 30.4486 10.9039 30.8928 10.1985 30.9372C10.0552 30.9483 9.91739 30.9983 9.77961 31.0372C9.73552 31.0483 9.69143 31.0649 9.64734 31.076C9.31667 31.126 8.98048 31.176 8.64981 31.2259C8.57817 31.237 8.51203 31.2648 8.44039 31.287C8.37976 31.3037 8.31914 31.3481 8.25852 31.3425C7.9058 31.3148 7.57513 31.4425 7.24446 31.5146C6.88072 31.5979 6.50045 31.5868 6.15324 31.7478C6.09813 31.7756 6.02649 31.7589 5.96586 31.7756C5.76746 31.8144 5.57457 31.8533 5.37617 31.8922C5.30452 31.9033 5.23288 31.9088 5.16123 31.9255C5.04549 31.9477 4.93527 31.981 4.81954 32.0032C4.69278 32.0254 4.56602 32.0421 4.43926 32.0532C4.28495 32.0643 4.13615 32.0698 3.99286 32.1587C3.77792 32.2864 3.58503 32.2142 3.43623 32.0088C3.1276 31.5702 2.88511 31.0927 2.59853 30.643C2.36155 30.2654 2.19621 29.8546 1.98127 29.4715C1.77736 29.1106 1.66162 28.7053 1.5018 28.3167C1.38606 28.028 1.2538 27.7504 1.14357 27.4617C1.07193 27.2729 1.02233 27.0786 0.972725 26.8843C0.917613 26.6733 0.807389 26.479 0.796367 26.2513C0.790856 26.1236 0.713699 25.9959 0.66961 25.8682C0.592453 25.6517 0.570408 25.4241 0.537341 25.1964C0.498763 24.9188 0.399562 24.6523 0.322405 24.3803C0.316894 24.3525 0.294849 24.3303 0.294849 24.3026C0.311382 23.7585 0.06889 23.2421 0.107468 22.6869C0.118491 22.4926 0.0523565 22.2927 0.0248005 22.0929C0.0137781 22.0096 0.00275568 21.9263 0.00275568 21.843C0.00275568 20.9269 0.00275568 20.0109 0.00275568 19.1003C0.00275568 19.0448 -0.00826687 18.9837 0.0137779 18.9338C0.151558 18.634 0.0964457 18.3175 0.124002 18.0066C0.140535 17.8178 0.190136 17.629 0.228714 17.4403C0.234226 17.4014 0.250759 17.3681 0.25627 17.3348C0.305871 16.9906 0.355472 16.6463 0.410584 16.3021C0.427117 16.1966 0.471207 16.0911 0.498763 15.9856C0.515296 15.9357 0.537341 15.8802 0.542852 15.8302C0.559386 15.5026 0.653076 15.2028 0.790856 14.9086C0.801878 14.8863 0.807389 14.853 0.8129 14.8308C0.829434 14.4366 1.0113 14.0924 1.12704 13.7315C1.31993 13.1486 1.56793 12.5823 1.81594 12.016C2.02536 11.5385 2.25683 11.0666 2.51035 10.6113C2.75284 10.1727 3.05044 9.76183 3.30396 9.33433C3.85508 8.40159 4.555 7.58544 5.2439 6.76374C5.89973 5.98646 6.64925 5.31467 7.41531 4.65953C8.02705 4.13764 8.6939 3.68793 9.36075 3.23266C9.84574 2.90509 10.3473 2.59973 10.8818 2.34989C11.3062 2.15557 11.6975 1.90018 12.1219 1.7003C12.3974 1.56706 12.7005 1.49488 12.9871 1.38939C13.1304 1.33387 13.2682 1.2617 13.4115 1.21173C13.676 1.11734 13.924 0.989647 14.2051 0.939679C14.398 0.906367 14.5799 0.80643 14.7617 0.739806C14.7893 0.728702 14.8113 0.717598 14.8389 0.712046C15.0924 0.656526 15.3514 0.606558 15.6049 0.545486C15.9136 0.473309 16.2167 0.384477 16.5253 0.306749C16.5969 0.290093 16.6686 0.284541 16.7457 0.278989C16.9827 0.262333 17.2252 0.284541 17.4402 0.151292C17.4567 0.140188 17.4732 0.140188 17.4953 0.140188C17.9307 0.0957723 18.366 0.0180441 18.8014 0.012492C19.9037 -0.00416401 21.0059 -0.00416401 22.1026 0.012492C22.4113 0.0180441 22.7199 0.0902203 23.023 0.11798C23.2214 0.134636 23.4253 0.134636 23.6127 0.223469C23.6898 0.262333 23.789 0.256781 23.8827 0.262333C24.0977 0.284541 24.3126 0.284541 24.5275 0.367821C24.7811 0.467757 25.0621 0.478861 25.3267 0.545486C25.6298 0.623214 25.9329 0.712046 26.236 0.795326C26.4344 0.850846 26.6383 0.900815 26.8367 0.961887C27.0351 1.02296 27.228 1.10069 27.4209 1.17286C27.8508 1.33942 28.2807 1.50043 28.705 1.67254C28.92 1.76138 29.1294 1.86687 29.3388 1.97791C29.6474 2.13891 29.9506 2.31103 30.2537 2.48314C30.5513 2.6497 30.8599 2.80516 31.1465 2.98837C31.6866 3.33815 32.2267 3.68237 32.7392 4.06546C33.2022 4.40969 33.6375 4.78723 34.0674 5.17587C34.4808 5.54785 34.8886 5.91984 35.2578 6.33069C35.831 6.96917 36.4262 7.59655 36.8891 8.32386C37.0324 8.55149 37.2253 8.75137 37.3741 8.97345C37.578 9.27881 37.7764 9.58417 37.9638 9.90063C38.1788 10.2671 38.3827 10.6391 38.5756 11.0166C38.7078 11.272 38.8181 11.5385 38.9448 11.7994C39.055 12.0382 39.1873 12.2658 39.2865 12.5045C39.4133 12.8154 39.5235 13.1319 39.6392 13.4428C39.6943 13.5872 39.755 13.726 39.8046 13.8703C39.9313 14.259 40.0636 14.6421 40.1738 15.0362C40.251 15.2972 40.284 15.5748 40.3447 15.8413C40.4108 16.1411 40.488 16.4465 40.5596 16.7463C40.5816 16.8351 40.5927 16.9239 40.6092 17.0183C40.6423 17.196 40.6808 17.3736 40.7084 17.5569C40.7249 17.6679 40.736 17.7789 40.7415 17.8844C40.7635 18.2398 40.7249 18.6062 40.8517 18.9504C40.8903 19.0615 40.8848 19.1892 40.8848 19.3057C40.8903 20.083 40.8903 20.8603 40.8848 21.632C40.8848 21.8153 40.8296 21.9929 40.8076 22.1761C40.7856 22.3594 40.769 22.5426 40.7525 22.7258C40.7304 23.0478 40.78 23.3698 40.6368 23.6807C40.6037 23.7585 40.6202 23.864 40.6092 23.9528C40.5872 24.1082 40.5541 24.2581 40.5265 24.4136C40.51 24.5135 40.4935 24.6135 40.4659 24.7134C40.4328 24.8356 40.3943 24.9521 40.3612 25.0743C40.3557 25.1021 40.3447 25.1298 40.3392 25.152C40.284 25.4407 40.2399 25.7294 40.1683 26.0126C40.1132 26.2402 40.014 26.4567 39.9423 26.6788C39.8927 26.8343 39.8487 26.9953 39.7991 27.1507C39.7054 27.4283 39.6117 27.7004 39.507 27.9724C39.3747 28.3167 39.2314 28.6664 39.0826 29.0051C38.9834 29.2383 38.8732 29.4659 38.7519 29.6936C38.4929 30.1821 38.2339 30.6707 37.9583 31.1482C37.7764 31.4647 37.578 31.77 37.3796 32.0698C37.286 32.2086 37.0655 32.2475 36.8836 32.142C36.7403 32.0587 36.5915 32.0365 36.4372 32.0365C36.2664 32.031 36.101 32.0088 35.9302 31.9477C35.7098 31.8755 35.4673 31.8533 35.2413 31.7978C34.8831 31.7034 34.5028 31.7034 34.1446 31.609C33.8194 31.5202 33.4722 31.5313 33.1636 31.3814C33.147 31.3758 33.1305 31.3647 33.1085 31.3703C32.7337 31.4036 32.381 31.2759 32.0338 31.1871C31.6701 31.0927 31.2843 31.1371 30.9426 30.9594C30.8764 30.9261 30.7827 30.9261 30.7001 30.9206C30.171 30.8984 29.7356 30.6929 29.4325 30.2432C29.3443 30.11 29.2782 29.9601 29.2176 29.8102C29.1514 29.6436 29.1129 29.4604 29.0577 29.2883C29.0026 29.1328 28.931 28.9829 28.8759 28.833C28.7932 28.5998 28.7216 28.3666 28.6389 28.1335C28.5176 27.8003 28.3854 27.4783 28.2641 27.1452C28.2145 27.0064 28.1649 26.8676 28.1264 26.7288C28.0657 26.5289 28.0161 26.3291 27.95 26.1292C27.9114 26.0181 27.8508 25.9126 27.8122 25.8072C27.691 25.4851 27.5697 25.1631 27.4595 24.8356C27.3823 24.6135 27.3217 24.3858 27.2501 24.1638C27.2115 24.0527 27.1674 23.9417 27.1233 23.8362C26.9966 23.4975 26.8643 23.1533 26.7486 22.8091C26.5887 22.3427 26.4454 21.8763 26.2801 21.41C26.1699 21.1046 26.0321 20.8048 25.9219 20.4994C25.8502 20.3051 25.7951 20.0997 25.7345 19.8998C25.5967 19.4779 25.4589 19.0559 25.3101 18.6395C25.1944 18.323 25.0346 18.0232 24.9519 17.6957C24.8692 17.357 24.7094 17.0516 24.6157 16.7185C24.5275 16.402 24.4008 16.1022 24.2961 15.7969C24.1803 15.4638 24.0646 15.1306 23.9434 14.8031C23.8166 14.4644 23.6788 14.1257 23.5631 13.7815C23.5025 13.5927 23.4639 13.3984 23.3757 13.2152C23.271 12.9931 23.1938 12.7599 23.1167 12.5267C23.0065 12.1992 22.9128 11.866 22.8025 11.5385C22.7033 11.2442 22.5986 10.9555 22.4939 10.6668C22.4168 10.4558 22.3341 10.2449 22.2569 10.0339C22.0806 9.55086 21.9318 9.05673 21.7334 8.57925C21.6011 8.26279 21.5295 7.92411 21.4247 7.59655C21.3807 7.45775 21.3145 7.33005 21.2649 7.19125C21.0996 6.74709 20.9398 6.30293 20.7799 5.85876C20.6973 5.69776 20.6311 5.49788 20.576 5.31467Z" fill="#0091F2"/>
<path d="M34.2575 34.7802C34.2021 34.8718 34.1799 34.958 34.1189 35.0064C33.7142 35.3457 33.3094 35.6797 32.8714 35.9813C32.6108 36.1644 32.3613 36.369 32.0897 36.5414C31.7071 36.7891 31.3467 37.0638 30.942 37.2684C30.565 37.4569 30.2101 37.6831 29.822 37.8501C29.3895 38.0332 28.9571 38.2163 28.5357 38.421C28.3139 38.5287 28.0922 38.6095 27.8538 38.6795C27.5266 38.7764 27.2217 38.938 26.9001 39.0511C26.7061 39.1211 26.4954 39.148 26.2958 39.2127C26.0685 39.2827 25.8522 39.3527 25.6083 39.3689C25.4142 39.3796 25.2146 39.455 25.0372 39.5358C24.8709 39.6112 24.699 39.6112 24.5271 39.6274C24.4218 39.6381 24.3164 39.6758 24.2111 39.6974C24.1778 39.7082 24.1446 39.7243 24.1058 39.7297C23.6955 39.7836 23.2907 39.8374 22.8804 39.8859C22.6088 39.9182 22.3316 39.9505 22.0599 39.9774C21.9656 39.9882 21.8769 39.999 21.7827 39.999C20.9067 39.999 20.0306 40.0044 19.1546 39.9936C18.9717 39.9936 18.7942 39.929 18.6113 39.9074C18.4671 39.8913 18.3174 39.8913 18.1677 39.8859C17.9959 39.8751 17.824 39.8859 17.6576 39.8051C17.5634 39.762 17.4414 39.7782 17.3305 39.7674C17.1143 39.7459 16.887 39.7674 16.6874 39.6435C16.6597 39.6274 16.6153 39.622 16.582 39.622C16.2716 39.6489 15.9722 39.5574 15.6949 39.4604C15.2847 39.3204 14.83 39.3312 14.4475 39.0996C14.076 39.0834 13.76 38.8788 13.4051 38.7926C13.1279 38.7226 12.8618 38.5987 12.5956 38.491C12.3184 38.3779 12.0523 38.254 11.7806 38.1248C11.3149 37.9039 10.8492 37.6831 10.4001 37.4408C10.0009 37.2307 9.60167 37.0099 9.23574 36.7514C8.86981 36.4983 8.49834 36.2559 8.13795 35.992C7.75539 35.7066 7.39501 35.3996 7.01244 35.1249C6.88492 35.0334 6.77958 34.9095 6.62988 34.7695C6.92928 34.7102 7.18432 34.6618 7.43936 34.6133C7.48372 34.6025 7.53362 34.6133 7.57797 34.5971C7.894 34.4894 8.22666 34.4894 8.55378 34.4517C8.96961 34.4032 9.37435 34.2955 9.79018 34.2201C9.87334 34.204 9.95651 34.2147 10.0397 34.1986C10.1949 34.177 10.3446 34.1393 10.4943 34.1178C10.6662 34.0963 10.8436 34.0963 11.0155 34.0693C11.1763 34.0478 11.3371 34.0047 11.4923 33.967C11.5256 33.9616 11.5644 33.9455 11.5976 33.9401C11.8804 33.897 12.1576 33.827 12.4404 33.827C12.7675 33.8216 13.0835 33.757 13.3718 33.6385C13.699 33.5038 13.9984 33.2992 14.2146 32.9976C14.4031 32.7229 14.5306 32.4321 14.6304 32.1197C14.7413 31.775 14.891 31.4411 15.013 31.1018C15.1294 30.7841 15.2237 30.4663 15.3401 30.1485C15.451 29.8416 15.5785 29.5454 15.6894 29.2384C15.767 29.0229 15.828 28.8021 15.9001 28.5813C15.9333 28.479 15.9888 28.3874 16.0221 28.2851C16.1662 27.8704 16.2937 27.4449 16.4601 27.0356C16.6153 26.6532 16.7484 26.2601 16.887 25.8669C16.9923 25.5599 17.1365 25.2637 17.2529 24.9567C17.3194 24.7844 17.3638 24.6013 17.4248 24.4289C17.5468 24.0896 17.6743 23.7503 17.7963 23.411C17.9016 23.1202 18.0014 22.8294 18.1067 22.544C18.2398 22.1885 18.3784 21.833 18.5115 21.4776C18.6556 21.0898 18.8053 20.702 18.9384 20.3089C19.0493 19.9911 19.1435 19.668 19.2544 19.3502C19.3653 19.0379 19.5039 18.7309 19.6204 18.4131C19.7312 18.1061 19.82 17.7938 19.9308 17.4868C19.9918 17.3144 20.0805 17.1529 20.1194 16.9644C20.1415 16.8567 20.2857 16.7597 20.3966 16.6843C20.4409 16.652 20.5574 16.6682 20.5962 16.7059C20.696 16.792 20.8069 16.8944 20.8512 17.0075C20.9732 17.3198 21.0674 17.643 21.1783 17.9607C21.2781 18.2516 21.3946 18.5424 21.4999 18.8332C21.6219 19.1617 21.7328 19.501 21.8658 19.8242C21.9934 20.1419 22.0599 20.4812 22.2373 20.7828C22.2539 20.8151 22.2761 20.8475 22.2761 20.8798C22.2761 21.1383 22.448 21.3429 22.5201 21.5799C22.5866 21.8007 22.6587 22.0162 22.7308 22.237C22.7696 22.3447 22.8139 22.447 22.8527 22.5547C22.9802 22.8886 23.1078 23.2172 23.2297 23.5511C23.2963 23.7396 23.3517 23.9388 23.4183 24.1273C23.4571 24.2458 23.5125 24.3589 23.5569 24.472C23.7343 24.9352 23.9117 25.3984 24.078 25.8615C24.1945 26.1847 24.2887 26.5186 24.3996 26.8471C24.4495 26.9979 24.5216 27.1379 24.5715 27.2887C24.6657 27.5473 24.7434 27.8112 24.8432 28.0643C24.9596 28.3713 25.0927 28.6675 25.2091 28.9691C25.2701 29.1253 25.3144 29.2868 25.3699 29.4484C25.4919 29.7823 25.6194 30.1108 25.7414 30.4394C25.8522 30.7571 25.952 31.0749 26.0685 31.3926C26.1849 31.7158 26.3069 32.0389 26.4399 32.3513C26.5065 32.5021 26.5287 32.6637 26.6229 32.8145C26.8502 33.1753 27.1663 33.4338 27.5322 33.6169C27.754 33.7246 28.0145 33.757 28.264 33.8C28.6133 33.8593 28.9904 33.8485 29.323 33.9616C29.5836 34.0478 29.8442 34.0478 30.0992 34.0855C30.4596 34.1393 30.8145 34.2201 31.1748 34.2901C31.2635 34.3063 31.3578 34.3225 31.4465 34.3278C31.6461 34.3494 31.8513 34.3278 32.0342 34.4409C32.0509 34.4517 32.073 34.4517 32.0897 34.4517C32.4999 34.4194 32.8825 34.5756 33.2872 34.6133C33.3316 34.6187 33.387 34.6079 33.4259 34.6294C33.6255 34.7533 33.8528 34.7264 34.069 34.7372C34.1244 34.7533 34.1688 34.7695 34.2575 34.7802Z" fill="#0091F2"/>
</svg>
