<svg width="274" height="33" viewBox="0 0 274 33" fill="none" xmlns="http://www.w3.org/2000/svg">
<path d="M16.9135 4.36866C16.7142 4.35041 16.6054 4.41886 16.5647 4.56034C16.5284 4.68813 16.4967 4.82048 16.4514 4.94826C16.3472 5.24491 16.234 5.53699 16.1343 5.82907C16.0437 6.0892 15.9622 6.3539 15.8715 6.61404C15.7356 6.99283 15.5861 7.36706 15.4502 7.74585C15.3913 7.90558 15.3506 8.07444 15.2962 8.23874C15.183 8.58558 15.0833 8.93699 14.9429 9.27015C14.8568 9.47095 14.8115 9.68089 14.7254 9.88169C14.585 10.2103 14.4944 10.5571 14.3721 10.8948C14.2543 11.2234 14.132 11.552 14.0232 11.8806C13.9372 12.1499 13.8148 12.4055 13.7152 12.6747C13.6653 12.8071 13.6382 12.9485 13.5929 13.0855C13.4751 13.4414 13.3573 13.7928 13.2304 14.1442C13.1353 14.3998 13.0221 14.6508 12.9269 14.9064C12.8363 15.1574 12.7593 15.4175 12.6732 15.6731C12.5781 15.9469 12.4739 16.2162 12.3742 16.4855C12.3153 16.6452 12.27 16.814 12.2111 16.9738C12.1477 17.1563 12.116 17.348 12.0073 17.5169C11.9393 17.6264 11.9303 17.7724 11.8895 17.9002C11.7672 18.2699 11.6494 18.6396 11.518 19.0047C11.4274 19.2648 11.3142 19.5112 11.2145 19.7668C11.1601 19.9128 11.1239 20.068 11.0695 20.2141C11.0061 20.3875 10.9336 20.5609 10.8702 20.7343C10.8158 20.8804 10.7751 21.0355 10.7252 21.1861C10.6256 21.4737 10.5214 21.7612 10.4172 22.0487C10.3311 22.2997 10.245 22.5553 10.159 22.8063C10.0548 23.1029 9.94152 23.395 9.84186 23.6916C9.74672 23.9609 9.66518 24.2302 9.57457 24.4994C9.39337 25.0288 8.963 25.3939 8.38313 25.4304C8.26535 25.4396 8.15209 25.4806 8.03884 25.5126C8.00259 25.5217 7.96635 25.5354 7.93011 25.5445C7.6583 25.5856 7.38196 25.6267 7.11015 25.6678C7.05125 25.6769 6.99689 25.6997 6.938 25.718C6.88817 25.7316 6.83833 25.7682 6.7885 25.7636C6.49857 25.7408 6.22676 25.8457 5.95495 25.9051C5.65595 25.9735 5.34337 25.9644 5.05797 26.0967C5.01266 26.1196 4.95377 26.1059 4.90394 26.1196C4.74085 26.1515 4.5823 26.1835 4.41921 26.2154C4.36032 26.2245 4.30142 26.2291 4.24253 26.2428C4.1474 26.261 4.05679 26.2884 3.96166 26.3067C3.85746 26.3249 3.75327 26.3386 3.64907 26.3478C3.52223 26.3569 3.39991 26.3614 3.28213 26.4345C3.10545 26.5394 2.94689 26.4801 2.82458 26.3112C2.57089 25.9507 2.37156 25.5582 2.13599 25.1886C1.94119 24.8782 1.80528 24.5405 1.62861 24.2256C1.46099 23.929 1.36585 23.5958 1.23448 23.2763C1.13934 23.039 1.03062 22.8108 0.940016 22.5735C0.881123 22.4184 0.840352 22.2586 0.79958 22.0989C0.754278 21.9255 0.663674 21.7657 0.654614 21.5786C0.650084 21.4737 0.586661 21.3687 0.550419 21.2637C0.486996 21.0857 0.468875 20.8986 0.441694 20.7115C0.409983 20.4833 0.32844 20.2643 0.265017 20.0406C0.260487 20.0178 0.242366 19.9996 0.242366 19.9767C0.255956 19.5295 0.0566276 19.1051 0.088339 18.6487C0.0973994 18.489 0.043037 18.3247 0.020386 18.1604C0.0113256 18.0919 0.00226517 18.0234 0.00226517 17.955C0.00226517 17.202 0.00226517 16.4489 0.00226517 15.7005C0.00226517 15.6549 -0.00679537 15.6047 0.0113254 15.5636C0.12458 15.3171 0.0792784 15.057 0.101929 14.8014C0.11552 14.6463 0.156292 14.4911 0.188003 14.3359C0.192533 14.304 0.206124 14.2766 0.210654 14.2492C0.251426 13.9663 0.292198 13.6833 0.3375 13.4004C0.35109 13.3136 0.387332 13.2269 0.409983 13.1402C0.423574 13.0991 0.441694 13.0535 0.446225 13.0124C0.459815 12.7432 0.536829 12.4967 0.650084 12.2549C0.659144 12.2366 0.663674 12.2092 0.668204 12.191C0.681795 11.8669 0.831291 11.584 0.926426 11.2873C1.08498 10.8081 1.28884 10.3426 1.4927 9.87713C1.66485 9.48464 1.85512 9.09672 2.06351 8.7225C2.26283 8.36196 2.50746 8.02424 2.71585 7.67283C3.16887 6.90612 3.74421 6.23524 4.31048 5.55981C4.84958 4.92088 5.46568 4.36866 6.09538 3.83014C6.59823 3.40115 7.14639 3.03148 7.69454 2.65725C8.0932 2.38799 8.50545 2.13698 8.94488 1.93161C9.2937 1.77188 9.61535 1.56195 9.96417 1.39765C10.1907 1.28812 10.4398 1.22879 10.6754 1.14208C10.7932 1.09644 10.9065 1.03712 11.0242 0.996042C11.2417 0.918458 11.4455 0.813491 11.6766 0.772417C11.8351 0.745035 11.9846 0.662887 12.1341 0.608122C12.1568 0.598994 12.1749 0.589867 12.1976 0.585303C12.4059 0.539665 12.6189 0.498591 12.8273 0.44839C13.0809 0.389061 13.3301 0.316041 13.5838 0.252148C13.6427 0.238457 13.7016 0.233893 13.765 0.229329C13.9598 0.215638 14.1591 0.233893 14.3358 0.124363C14.3494 0.115235 14.363 0.115235 14.3811 0.115235C14.739 0.0787249 15.0969 0.0148322 15.4548 0.0102685C16.3608 -0.00342282 17.2668 -0.00342282 18.1684 0.0102685C18.4221 0.0148322 18.6757 0.0741612 18.9249 0.09698C19.088 0.110671 19.2556 0.110671 19.4096 0.183692C19.4731 0.215638 19.5546 0.211074 19.6316 0.215638C19.8083 0.233893 19.985 0.233893 20.1616 0.302349C20.37 0.384497 20.6011 0.393625 20.8185 0.44839C21.0677 0.512283 21.3168 0.585303 21.566 0.653759C21.7291 0.699397 21.8967 0.740471 22.0598 0.790672C22.2229 0.840874 22.3814 0.904766 22.54 0.964095C22.8934 1.10101 23.2467 1.23336 23.5955 1.37483C23.7722 1.44785 23.9444 1.53457 24.1165 1.62584C24.3702 1.75819 24.6194 1.89967 24.8685 2.04114C25.1132 2.17806 25.3668 2.30584 25.6024 2.45645C26.0464 2.74396 26.4903 3.02692 26.9116 3.34182C27.2922 3.62477 27.6501 3.93511 28.0034 4.25457C28.3432 4.56034 28.6784 4.86611 28.9819 5.20383C29.4531 5.72866 29.9423 6.24437 30.3229 6.84222C30.4407 7.02934 30.5992 7.19363 30.7215 7.37618C30.8892 7.62719 31.0522 7.8782 31.2063 8.13833C31.3829 8.43954 31.5506 8.74531 31.7091 9.05565C31.8178 9.26558 31.9085 9.48464 32.0126 9.69914C32.1032 9.89538 32.212 10.0825 32.2935 10.2787C32.3977 10.5343 32.4883 10.7944 32.5835 11.05C32.6288 11.1687 32.6786 11.2828 32.7194 11.4014C32.8236 11.7209 32.9323 12.0358 33.0229 12.3598C33.0863 12.5743 33.1135 12.8025 33.1633 13.0216C33.2177 13.268 33.2811 13.519 33.34 13.7655C33.3581 13.8385 33.3672 13.9115 33.3808 13.9891C33.4079 14.1351 33.4397 14.2812 33.4623 14.4318C33.4759 14.523 33.485 14.6143 33.4895 14.701C33.5076 14.9931 33.4759 15.2943 33.5801 15.5773C33.6118 15.6685 33.6073 15.7735 33.6073 15.8693C33.6118 16.5083 33.6118 17.1472 33.6073 17.7816C33.6073 17.9322 33.562 18.0782 33.5439 18.2288C33.5257 18.3794 33.5121 18.53 33.4986 18.6806C33.4804 18.9453 33.5212 19.21 33.4034 19.4656C33.3762 19.5295 33.3898 19.6162 33.3808 19.6892C33.3626 19.817 33.3355 19.9402 33.3128 20.068C33.2992 20.1502 33.2856 20.2323 33.263 20.3145C33.2358 20.4149 33.2041 20.5107 33.1769 20.6111C33.1724 20.6339 33.1633 20.6567 33.1588 20.675C33.1135 20.9123 33.0772 21.1496 33.0183 21.3824C32.973 21.5695 32.8915 21.7475 32.8326 21.93C32.7918 22.0578 32.7556 22.1902 32.7148 22.3179C32.6378 22.5461 32.5608 22.7698 32.4747 22.9934C32.366 23.2763 32.2482 23.5639 32.1259 23.8422C32.0444 24.0339 31.9538 24.221 31.8541 24.4082C31.6412 24.8098 31.4282 25.2114 31.2017 25.6039C31.0522 25.864 30.8892 26.115 30.7261 26.3614C30.6491 26.4755 30.4678 26.5075 30.3184 26.4208C30.2006 26.3523 30.0782 26.3341 29.9514 26.3341C29.811 26.3295 29.6751 26.3112 29.5346 26.261C29.3534 26.2017 29.1541 26.1835 28.9684 26.1378C28.6739 26.0602 28.3613 26.0602 28.0668 25.9827C27.7996 25.9096 27.5142 25.9188 27.2605 25.7955C27.2469 25.791 27.2333 25.7818 27.2152 25.7864C26.9071 25.8138 26.6172 25.7088 26.3318 25.6358C26.0328 25.5582 25.7157 25.5947 25.4348 25.4487C25.3804 25.4213 25.3034 25.4213 25.2355 25.4167C24.8006 25.3985 24.4427 25.2296 24.1935 24.86C24.121 24.7504 24.0667 24.6272 24.0168 24.504C23.9625 24.3671 23.9308 24.2165 23.8855 24.075C23.8402 23.9472 23.7813 23.824 23.736 23.7008C23.668 23.5091 23.6091 23.3174 23.5412 23.1257C23.4415 22.8519 23.3328 22.5872 23.2331 22.3134C23.1923 22.1993 23.1516 22.0852 23.1199 21.9711C23.07 21.8068 23.0293 21.6425 22.9749 21.4782C22.9432 21.3869 22.8934 21.3002 22.8616 21.2135C22.762 20.9488 22.6623 20.6841 22.5717 20.4149C22.5083 20.2323 22.4585 20.0452 22.3996 19.8626C22.3679 19.7714 22.3316 19.6801 22.2954 19.5934C22.1912 19.315 22.0824 19.032 21.9873 18.7491C21.8559 18.3657 21.7382 17.9824 21.6022 17.599C21.5116 17.348 21.3984 17.1016 21.3078 16.8506C21.2489 16.6908 21.2036 16.522 21.1538 16.3577C21.0405 16.0108 20.9272 15.664 20.8049 15.3217C20.7098 15.0616 20.5784 14.8151 20.5105 14.5459C20.4425 14.2675 20.3111 14.0165 20.2341 13.7426C20.1616 13.4825 20.0575 13.2361 19.9714 12.9851C19.8762 12.7112 19.7811 12.4374 19.6814 12.1681C19.5773 11.8897 19.464 11.6114 19.3689 11.3284C19.319 11.1732 19.2873 11.0135 19.2148 10.8629C19.1288 10.6803 19.0653 10.4887 19.0019 10.297C18.9113 10.0277 18.8343 9.75391 18.7437 9.48464C18.6622 9.24276 18.5761 9.00545 18.49 8.76813C18.4266 8.59471 18.3586 8.42129 18.2952 8.24786C18.1502 7.85082 18.0279 7.44464 17.8648 7.05216C17.7561 6.79202 17.6972 6.51363 17.6111 6.24437C17.5749 6.13028 17.5205 6.02531 17.4798 5.91122C17.3439 5.54611 17.2125 5.18101 17.0811 4.81591C17.0132 4.68356 16.9588 4.51927 16.9135 4.36866Z" fill="#0091F2"/>
<path d="M28.1597 28.5854C28.1142 28.6607 28.0959 28.7315 28.0458 28.7713C27.7131 29.0503 27.3804 29.3247 27.0204 29.5726C26.8062 29.7232 26.6011 29.8914 26.3778 30.0331C26.0633 30.2367 25.7671 30.4625 25.4344 30.6307C25.1245 30.7857 24.8328 30.9716 24.5138 31.1088C24.1583 31.2593 23.8028 31.4099 23.4564 31.5781C23.2741 31.6666 23.0918 31.733 22.8959 31.7906C22.627 31.8703 22.3763 32.0031 22.112 32.0961C21.9525 32.1536 21.7793 32.1757 21.6152 32.2289C21.4284 32.2864 21.2506 32.344 21.0501 32.3573C20.8906 32.3661 20.7265 32.4281 20.5807 32.4945C20.4439 32.5565 20.3027 32.5565 20.1614 32.5698C20.0748 32.5786 19.9882 32.6096 19.9016 32.6273C19.8742 32.6362 19.8469 32.6494 19.815 32.6539C19.4777 32.6981 19.1451 32.7424 18.8078 32.7822C18.5845 32.8088 18.3566 32.8354 18.1333 32.8575C18.0558 32.8664 17.9829 32.8752 17.9054 32.8752C17.1853 32.8752 16.4653 32.8796 15.7452 32.8708C15.5948 32.8708 15.4489 32.8177 15.2985 32.8C15.18 32.7867 15.057 32.7867 14.9339 32.7822C14.7927 32.7734 14.6514 32.7822 14.5147 32.7158C14.4372 32.6804 14.3369 32.6937 14.2458 32.6849C14.068 32.6671 13.8812 32.6849 13.7171 32.583C13.6943 32.5698 13.6578 32.5653 13.6305 32.5653C13.3753 32.5875 13.1292 32.5122 12.9013 32.4325C12.5641 32.3174 12.1903 32.3263 11.8759 32.1359C11.5705 32.1226 11.3107 31.9544 11.0191 31.8836C10.7912 31.826 10.5724 31.7242 10.3537 31.6356C10.1258 31.5427 9.90704 31.4409 9.68373 31.3346C9.3009 31.1531 8.91807 30.9716 8.54891 30.7724C8.22078 30.5997 7.89264 30.4182 7.59184 30.2057C7.29105 29.9976 6.9857 29.7984 6.68946 29.5815C6.375 29.3469 6.07876 29.0945 5.76429 28.8687C5.65947 28.7935 5.57288 28.6917 5.44983 28.5766C5.69593 28.5279 5.90558 28.488 6.11522 28.4482C6.15168 28.4393 6.1927 28.4482 6.22916 28.4349C6.48893 28.3463 6.76238 28.3463 7.03127 28.3154C7.37309 28.2755 7.70578 28.187 8.04759 28.125C8.11595 28.1117 8.18432 28.1206 8.25268 28.1073C8.38029 28.0896 8.50334 28.0586 8.62639 28.0409C8.76767 28.0232 8.91351 28.0232 9.0548 28.001C9.18696 27.9833 9.31913 27.9479 9.44674 27.9169C9.47408 27.9125 9.50599 27.8992 9.53333 27.8948C9.76576 27.8594 9.99363 27.8018 10.2261 27.8018C10.495 27.7974 10.7547 27.7443 10.9917 27.6469C11.2606 27.5362 11.5067 27.368 11.6845 27.1201C11.8394 26.8943 11.9442 26.6552 12.0263 26.3984C12.1174 26.1151 12.2405 25.8406 12.3407 25.5617C12.4364 25.3005 12.5139 25.0393 12.6096 24.7781C12.7008 24.5258 12.8056 24.2823 12.8967 24.03C12.9606 23.8529 13.0107 23.6714 13.0699 23.4899C13.0973 23.4058 13.1429 23.3305 13.1702 23.2464C13.2887 22.9055 13.3935 22.5558 13.5302 22.2193C13.6578 21.905 13.7672 21.5818 13.8812 21.2586C13.9678 21.0063 14.0863 20.7628 14.182 20.5105C14.2366 20.3688 14.2731 20.2183 14.3232 20.0766C14.4235 19.7977 14.5283 19.5188 14.6286 19.2399C14.7152 19.0009 14.7972 18.7618 14.8838 18.5272C14.9932 18.235 15.1071 17.9428 15.2165 17.6506C15.335 17.3319 15.4581 17.0131 15.5674 16.6899C15.6586 16.4287 15.7361 16.1631 15.8272 15.9019C15.9184 15.6452 16.0323 15.3928 16.128 15.1316C16.2192 14.8793 16.2921 14.6225 16.3832 14.3702C16.4334 14.2285 16.5063 14.0957 16.5382 13.9407C16.5564 13.8522 16.6749 13.7725 16.766 13.7105C16.8025 13.684 16.8982 13.6972 16.9301 13.7282C17.0122 13.7991 17.1033 13.8832 17.1398 13.9762C17.24 14.2329 17.3175 14.4985 17.4087 14.7597C17.4907 14.9988 17.5864 15.2379 17.673 15.4769C17.7733 15.747 17.8644 16.0259 17.9738 16.2915C18.0786 16.5527 18.1333 16.8316 18.2791 17.0795C18.2928 17.1061 18.311 17.1326 18.311 17.1592C18.311 17.3717 18.4523 17.5399 18.5116 17.7347C18.5663 17.9162 18.6255 18.0933 18.6847 18.2748C18.7167 18.3634 18.7531 18.4475 18.785 18.536C18.8898 18.8105 18.9947 19.0805 19.0949 19.355C19.1496 19.51 19.1952 19.6738 19.2499 19.8287C19.2818 19.9261 19.3274 20.0191 19.3638 20.112C19.5097 20.4928 19.6555 20.8735 19.7922 21.2542C19.8879 21.5198 19.9654 21.7943 20.0565 22.0644C20.0976 22.1883 20.1568 22.3034 20.1978 22.4274C20.2753 22.6399 20.3391 22.8568 20.4211 23.0649C20.5169 23.3172 20.6262 23.5607 20.7219 23.8086C20.7721 23.937 20.8085 24.0698 20.8541 24.2026C20.9544 24.4771 21.0592 24.7472 21.1595 25.0172C21.2506 25.2784 21.3326 25.5396 21.4283 25.8008C21.5241 26.0664 21.6243 26.332 21.7337 26.5888C21.7884 26.7128 21.8066 26.8456 21.8841 26.9695C22.071 27.2661 22.3307 27.4786 22.6315 27.6292C22.8138 27.7177 23.028 27.7443 23.2331 27.7797C23.5202 27.8284 23.8301 27.8195 24.1036 27.9125C24.3178 27.9833 24.532 27.9833 24.7416 28.0143C25.0379 28.0586 25.3296 28.125 25.6258 28.1825C25.6987 28.1958 25.7762 28.2091 25.8491 28.2135C26.0132 28.2312 26.1818 28.2135 26.3322 28.3065C26.3459 28.3154 26.3641 28.3154 26.3778 28.3154C26.715 28.2888 27.0295 28.4172 27.3622 28.4482C27.3986 28.4526 27.4442 28.4437 27.4761 28.4615C27.6402 28.5633 27.8271 28.5411 28.0048 28.55C28.0504 28.5633 28.0868 28.5766 28.1597 28.5854Z" fill="#0091F2"/>
<path d="M45.774 10.7484C46.4087 10.7484 47.0626 10.7388 47.7166 10.7484C47.9666 10.7579 48.0531 10.8916 48.0628 11.2259C48.0724 11.923 48.0628 12.6202 48.0724 13.3268C48.0724 13.5083 48.1205 13.6802 48.1397 13.8521C48.6975 13.6229 49.1975 13.4128 49.7072 13.2122C49.813 13.174 49.9284 13.1549 50.0342 13.1549C50.6785 13.1549 51.3132 13.1167 51.9576 13.1645C52.3134 13.1931 52.6596 13.3364 52.9962 13.4701C53.7655 13.7757 54.4675 14.2054 54.9965 14.8453C55.3331 15.2464 55.6216 15.7048 55.8716 16.1727C56.0639 16.526 56.1793 16.9271 56.314 17.3091C56.3524 17.4142 56.3524 17.5288 56.3621 17.6338C56.3717 17.8535 56.3621 18.0827 56.3813 18.3023C56.4678 19.5438 56.0351 20.6038 55.3427 21.6066C54.8811 22.2846 54.256 22.8003 53.5443 23.1632C52.8423 23.5165 52.0922 23.8126 51.2652 23.7171C51.0247 23.6884 50.7843 23.7075 50.5439 23.7075C49.7265 23.7266 49.0052 23.4497 48.3128 23.039C48.2839 23.0199 48.2551 23.0295 48.1493 23.0199C48.1205 23.1345 48.0724 23.2682 48.0628 23.3924C48.0435 23.5834 47.9474 23.698 47.7646 23.698C47.0915 23.7075 46.4279 23.698 45.774 23.698C45.6297 23.2587 45.6297 11.2163 45.774 10.7484ZM50.9863 21.3487C52.6307 21.5015 54.0059 19.8971 53.9963 18.4456C53.9867 16.9462 52.6788 15.5042 51.044 15.5042C49.4091 15.5042 48.0531 16.8316 48.0531 18.4456C48.0531 20.0022 49.3803 21.4442 50.9863 21.3487Z" fill="#0091F2"/>
<path d="M75.9433 19.4698C76.1453 20.2434 76.6838 20.7782 77.3474 21.0933C78.1071 21.4467 78.9245 21.4944 79.7612 21.1984C80.2132 21.0456 80.5402 20.74 80.8864 20.463C81.1076 20.2911 81.3191 20.1765 81.6172 20.1861C82.2808 20.2052 82.954 20.1956 83.7041 20.1956C83.6175 20.5012 83.5887 20.7495 83.4733 20.9596C82.9444 21.9051 82.2135 22.6881 81.2422 23.1847C80.5594 23.5285 79.8285 23.8246 79.0111 23.7386C78.6745 23.71 78.3379 23.7291 78.0013 23.7291C77.4916 23.7291 77.0493 23.5476 76.5877 23.3566C76.1068 23.1561 75.6741 22.8887 75.2702 22.564C74.5874 22.0101 74.0681 21.3321 73.7122 20.5394C73.241 19.4794 73.1833 18.3239 73.443 17.2352C73.7892 15.8027 74.6162 14.6472 75.9433 13.8736C76.4146 13.5967 76.9146 13.4439 77.4051 13.2338C77.5686 13.1574 77.7801 13.1669 77.9725 13.1574C78.4245 13.1478 78.8668 13.1765 79.3188 13.1478C79.7708 13.1192 80.1651 13.2815 80.5594 13.4343C81.473 13.7781 82.2712 14.3034 82.8674 15.0865C83.1559 15.4685 83.406 15.8696 83.6175 16.3184C84.0022 17.1397 84.0791 17.9801 84.0503 18.8491C84.0407 19.1929 84.0022 19.2311 83.6656 19.2502C83.5214 19.2598 83.3771 19.2598 83.2329 19.2502C81.021 19.2502 78.8188 19.2406 76.6069 19.2406C76.3761 19.2406 76.1164 19.1834 75.9433 19.4698ZM81.0499 16.729C80.4921 15.946 79.7997 15.5926 78.9438 15.5353C77.8667 15.4685 77.0012 15.8505 76.2992 16.6908C76.7127 16.8436 79.165 16.9105 80.5786 16.8245C80.7036 16.8054 80.8383 16.7672 81.0499 16.729Z" fill="#0091F2"/>
<path d="M98.4161 13.9457C98.6757 13.8024 98.8392 13.7165 99.0027 13.6305C99.8394 13.1817 100.743 13.1339 101.676 13.1244C102.849 13.1148 103.83 13.535 104.744 14.194C105.609 14.8052 106.186 15.6456 106.552 16.6005C106.735 17.0685 106.917 17.5651 106.908 18.1094C106.879 19.8379 106.908 21.576 106.908 23.3045C106.908 23.4096 106.888 23.5242 106.869 23.7056C106.11 23.7534 105.35 23.7438 104.523 23.7056C104.513 23.5051 104.504 23.3141 104.504 23.1326C104.504 21.6047 104.475 20.0767 104.513 18.5583C104.542 17.4696 104.042 16.6674 103.224 16.0657C102.34 15.4068 101.34 15.3495 100.291 15.7219C99.3201 16.0657 98.7911 16.782 98.4642 17.6797C98.368 17.9375 98.3776 18.2431 98.3776 18.5296C98.368 20.0576 98.3776 21.5856 98.368 23.104C98.368 23.2854 98.3488 23.4764 98.3295 23.6961C97.5313 23.7629 96.7716 23.7343 96.0311 23.7152C95.9157 23.2281 95.935 11.2049 96.0407 10.7847C96.7716 10.7847 97.5217 10.7847 98.3103 10.7847C98.3295 10.9852 98.3584 11.1667 98.368 11.3481C98.3776 12.0166 98.368 12.6851 98.368 13.3536C98.3872 13.5159 98.4065 13.6878 98.4161 13.9457Z" fill="#0091F2"/>
<path d="M116.438 23.65C116.41 23.459 116.39 23.2585 116.352 23.0006C116.034 23.1343 115.756 23.2489 115.477 23.3731C115.082 23.545 114.698 23.7169 114.265 23.7169C113.832 23.7169 113.399 23.7169 112.967 23.7264C112.351 23.736 111.793 23.5641 111.236 23.3158C110.332 22.9242 109.63 22.313 109.033 21.5586C108.735 21.1862 108.572 20.7469 108.37 20.3267C108.024 19.6104 108.12 18.8464 108.101 18.1016C108.101 18.0538 108.11 18.0061 108.11 17.9583C108.12 16.2011 109.072 14.9596 110.418 14.0047C111.207 13.4412 112.14 13.0688 113.169 13.1452C113.438 13.1643 113.717 13.1643 113.986 13.1452C114.515 13.1165 114.967 13.3457 115.448 13.5081C116.015 13.6895 116.477 14.0524 116.938 14.4058C117.4 14.7591 117.746 15.227 118.025 15.7332C118.468 16.5258 118.794 17.3471 118.775 18.2734C118.756 19.8969 118.775 21.5108 118.775 23.1343C118.775 23.3062 118.775 23.4781 118.775 23.6309C118.333 23.7551 116.89 23.7646 116.438 23.65ZM110.505 18.4453C110.341 20.107 111.89 21.3676 113.39 21.3867C115.111 21.4058 116.41 19.9638 116.4 18.4644C116.39 16.8983 115.14 15.5135 113.409 15.5135C111.89 15.5135 110.361 16.7264 110.505 18.4453Z" fill="#0091F2"/>
<path d="M136.115 13.2373C136.009 13.3901 135.942 13.5047 135.846 13.6002C134.894 14.5838 133.932 15.5579 132.98 16.5511C132.644 16.9044 132.336 17.296 131.999 17.6398C131.797 17.8403 131.855 18.0027 132.009 18.1746C132.22 18.4229 132.451 18.6616 132.672 18.9004C133.307 19.607 133.942 20.3233 134.586 21.03C135.269 21.7844 135.961 22.5293 136.654 23.2742C136.759 23.3888 136.846 23.5034 137 23.6848C136.759 23.7039 136.586 23.7326 136.423 23.7326C135.73 23.7326 135.048 23.723 134.355 23.7421C133.999 23.7517 133.749 23.6562 133.499 23.3601C132.826 22.577 132.105 21.8417 131.403 21.0777C130.98 20.6193 130.566 20.1418 130.162 19.693C129.768 19.8553 129.691 20.1227 129.701 20.457C129.71 21.326 129.71 22.2046 129.701 23.0736C129.701 23.2646 129.682 23.4461 129.672 23.6657C128.893 23.7612 128.152 23.7135 127.364 23.7039C127.345 23.5416 127.316 23.4079 127.316 23.2742C127.316 19.2728 127.316 15.2714 127.316 11.2605C127.316 11.1077 127.345 10.9549 127.364 10.7734C128.124 10.7734 128.854 10.7734 129.643 10.7734C129.662 10.974 129.701 11.1745 129.71 11.3751C129.72 12.8362 129.71 14.2973 129.72 15.7585C129.72 15.9399 129.758 16.1118 129.768 16.2932C129.807 16.3028 129.845 16.3219 129.883 16.3314C130.172 16.0354 130.47 15.7489 130.759 15.4529C131.441 14.7557 132.115 14.0395 132.807 13.3519C132.913 13.2468 133.076 13.1609 133.211 13.1513C134.105 13.1322 135 13.1418 135.904 13.1513C135.923 13.1513 135.961 13.18 136.115 13.2373Z" fill="#0091F2"/>
<path d="M86.8092 20.2455C87.3189 20.532 87.7709 20.8471 88.271 21.0572C88.646 21.2196 89.0691 21.2864 89.4731 21.3246C90.0501 21.3723 90.6271 21.3723 91.2041 21.3341C91.531 21.315 91.858 21.2005 92.1658 21.0859C92.2715 21.0477 92.3677 20.8758 92.3773 20.7612C92.3869 20.637 92.3004 20.446 92.2042 20.4078C91.9157 20.2932 91.6657 20.1118 91.3291 20.0736C90.8963 20.0258 90.4828 19.8444 90.0597 19.7202C90.002 19.7011 89.9347 19.6916 89.877 19.6725C89.3673 19.577 88.848 19.491 88.3479 19.3764C88.1075 19.3191 87.8574 19.2332 87.6459 19.109C87.3189 18.918 86.9631 18.7748 86.6553 18.5265C86.2418 18.2018 85.9918 17.8102 85.761 17.3519C85.559 16.9508 85.5494 16.5688 85.559 16.1581C85.5783 15.4514 85.8764 14.8689 86.3764 14.3723C86.9054 13.8471 87.5497 13.5988 88.2517 13.36C89.3577 12.9876 90.4732 13.1213 91.5695 13.1977C92.2331 13.2359 92.8966 13.4651 93.5025 13.7993C93.7044 13.9139 93.916 14.0094 94.1276 14.1049C94.3199 14.2004 94.3392 14.3723 94.243 14.506C93.8583 15.0885 93.4448 15.652 93.0313 16.2345C91.8484 15.5278 90.5982 15.4132 89.3288 15.566C88.9345 15.6138 88.5114 15.6806 88.1844 15.9767C87.8863 16.2441 87.8767 16.5688 88.2421 16.7216C88.7229 16.9221 89.2134 17.1227 89.7231 17.1991C90.2712 17.285 90.7713 17.5333 91.3483 17.5429C91.6945 17.5524 92.0215 17.7912 92.3677 17.8962C92.6754 17.9917 92.9928 18.0394 93.2909 18.2209C93.8487 18.5742 94.3872 18.9467 94.6373 19.5579C94.8488 20.064 95.0316 20.5797 94.8585 21.2005C94.5796 22.2414 93.9449 22.8621 93.0024 23.2823C92.3389 23.5784 91.6657 23.7312 90.9348 23.7025C90.5309 23.693 90.1366 23.693 89.7327 23.7025C88.9922 23.7216 88.3094 23.5211 87.6074 23.3014C87.0015 23.1009 86.4726 22.7857 85.9245 22.4897C85.7225 22.3846 85.559 22.1936 85.3859 22.0408C85.232 21.9071 85.2417 21.7352 85.3571 21.6206C85.8283 21.1622 86.3284 20.6943 86.8092 20.2455Z" fill="#0091F2"/>
<path d="M61.5652 13.1822C62.3249 13.1822 63.0654 13.1822 63.854 13.1822C63.8636 13.4019 63.8829 13.5929 63.8829 13.7743C63.8732 15.1686 63.854 16.5724 63.8444 17.9667C63.8444 18.2818 63.8444 18.6065 63.8925 18.9217C64.0271 19.7525 64.431 20.4115 65.1619 20.8985C65.912 21.4046 66.7198 21.4524 67.5276 21.2996C68.2777 21.1563 68.8836 20.7266 69.3164 20.0581C69.6433 19.5424 69.7876 19.0076 69.7876 18.4155C69.7876 16.878 69.7876 15.3309 69.7876 13.7934C69.7876 13.6024 69.7876 13.421 69.7876 13.1918C70.5858 13.0867 71.3359 13.144 72.1245 13.144C72.1437 13.2968 72.1822 13.4401 72.1822 13.5738C72.1822 15.35 72.1822 17.1359 72.1822 18.9121C72.1822 19.743 71.8552 20.4592 71.4513 21.1754C70.9608 22.0349 70.2684 22.6843 69.4221 23.1332C68.8355 23.4388 68.2104 23.7539 67.4892 23.7253C67.1814 23.7157 66.8833 23.7157 66.5756 23.7253C65.8928 23.7539 65.2677 23.5916 64.6426 23.3146C63.9886 23.0186 63.4309 22.627 62.9308 22.1209C62.3923 21.5765 62.0461 20.9271 61.7383 20.2396C61.469 19.6475 61.4787 19.0267 61.4787 18.4251C61.4594 16.773 61.5075 15.1208 61.5364 13.4687C61.5171 13.3828 61.546 13.2968 61.5652 13.1822Z" fill="#0091F2"/>
<path d="M57.6715 23.7152C57.5465 23.0371 57.5561 11.1762 57.6715 10.7847C58.4024 10.7847 59.1525 10.7847 59.8834 10.7847C60.0084 11.1476 60.0661 22.913 59.9507 23.6865C59.2006 23.7725 58.4505 23.7247 57.6715 23.7152Z" fill="#0091F2"/>
<path d="M126.095 13.2014C126.095 13.4497 126.095 13.6502 126.095 13.8508C126.085 14.2805 126.085 14.7103 126.066 15.14C126.047 15.4742 125.989 15.5124 125.672 15.5602C125.249 15.627 124.806 15.6557 124.422 15.8085C123.912 16.0186 123.479 16.3815 123.152 16.8399C122.796 17.346 122.633 17.8999 122.633 18.5206C122.642 20.0295 122.633 21.5384 122.633 23.0473C122.633 23.2383 122.633 23.4197 122.633 23.668C121.844 23.7922 121.084 23.7253 120.286 23.7158C120.267 23.5439 120.248 23.4102 120.248 23.2765C120.248 21.5289 120.267 19.7812 120.248 18.0336C120.238 17.4893 120.363 16.9927 120.604 16.5343C120.883 15.9899 121.181 15.4456 121.556 14.9681C121.912 14.5193 122.412 14.2041 122.902 13.8985C123.431 13.5643 124.027 13.4115 124.614 13.23C125.085 13.0868 125.585 13.125 126.095 13.2014Z" fill="#0091F2"/>
<line x1="158" y1="6.93848" x2="158" y2="28.9385" stroke="#202633" stroke-width="2"/>
<path d="M178.312 23.9385V12.8985H183.688C185.48 12.8985 186.376 13.7945 186.376 15.5865V17.4105C186.376 18.7438 185.88 19.5758 184.888 19.9065L186.696 23.4585L186.424 23.9385H184.44L182.488 20.0985H180.616V23.9385H178.312ZM180.616 18.0185H183.592C183.912 18.0185 184.072 17.8585 184.072 17.5385V15.4585C184.072 15.1385 183.912 14.9785 183.592 14.9785H180.616V18.0185ZM188.479 14.0985V11.9385H190.783V14.0985H188.479ZM188.527 23.9385V15.4905H190.735V23.9385H188.527ZM192.915 21.3465V18.0825C192.915 16.3545 193.779 15.4905 195.507 15.4905H197.971V12.0985H200.179V23.9385H195.507C193.779 23.9385 192.915 23.0745 192.915 21.3465ZM195.123 21.5065C195.123 21.8478 195.293 22.0185 195.635 22.0185H197.971V17.4105H195.635C195.293 17.4105 195.123 17.5811 195.123 17.9225V21.5065ZM202.352 21.3465V18.0825C202.352 16.3545 203.216 15.4905 204.944 15.4905H207.024C208.752 15.4905 209.616 16.3545 209.616 18.0825V20.5305H204.56V21.5065C204.56 21.8478 204.731 22.0185 205.072 22.0185H209.296V23.2185L208.336 23.9385H204.944C203.216 23.9385 202.352 23.0745 202.352 21.3465ZM204.56 18.8345H207.408V17.9225C207.408 17.5811 207.237 17.4105 206.896 17.4105H205.072C204.731 17.4105 204.56 17.5811 204.56 17.9225V18.8345ZM215.572 21.3465V12.8985H217.78V15.4905H220.532V17.4105H217.78V21.5065C217.78 21.8478 217.951 22.0185 218.292 22.0185H220.692V23.2185L219.732 23.9385H218.164C216.436 23.9385 215.572 23.0745 215.572 21.3465ZM222.418 23.9385V12.0985H224.626V15.4905H227.09C228.818 15.4905 229.682 16.3545 229.682 18.0825V23.9385H227.474V17.9225C227.474 17.5811 227.303 17.4105 226.962 17.4105H224.626V23.9385H222.418ZM231.79 21.3465V18.0825C231.79 16.3545 232.654 15.4905 234.382 15.4905H236.462C238.19 15.4905 239.054 16.3545 239.054 18.0825V20.5305H233.998V21.5065C233.998 21.8478 234.168 22.0185 234.51 22.0185H238.734V23.2185L237.774 23.9385H234.382C232.654 23.9385 231.79 23.0745 231.79 21.3465ZM233.998 18.8345H236.846V17.9225C236.846 17.5811 236.675 17.4105 236.334 17.4105H234.51C234.168 17.4105 233.998 17.5811 233.998 17.9225V18.8345ZM245.01 21.3465V12.8985H247.218V15.4905H249.97V17.4105H247.218V21.5065C247.218 21.8478 247.388 22.0185 247.73 22.0185H250.13V23.2185L249.17 23.9385H247.602C245.874 23.9385 245.01 23.0745 245.01 21.3465ZM251.807 14.0985V11.9385H254.111V14.0985H251.807ZM251.855 23.9385V15.4905H254.063V23.9385H251.855ZM256.243 21.3465V18.0825C256.243 16.3545 257.107 15.4905 258.835 15.4905H261.299V12.0985H263.507V23.9385H258.835C257.107 23.9385 256.243 23.0745 256.243 21.3465ZM258.451 21.5065C258.451 21.8478 258.621 22.0185 258.963 22.0185H261.299V17.4105H258.963C258.621 17.4105 258.451 17.5811 258.451 17.9225V21.5065ZM265.68 21.3465V18.0825C265.68 16.3545 266.544 15.4905 268.272 15.4905H270.352C272.08 15.4905 272.944 16.3545 272.944 18.0825V20.5305H267.888V21.5065C267.888 21.8478 268.059 22.0185 268.4 22.0185H272.624V23.2185L271.664 23.9385H268.272C266.544 23.9385 265.68 23.0745 265.68 21.3465ZM267.888 18.8345H270.736V17.9225C270.736 17.5811 270.565 17.4105 270.224 17.4105H268.4C268.059 17.4105 267.888 17.5811 267.888 17.9225V18.8345Z" fill="#0091F2"/>
</svg>
