<svg width="108" height="33" viewBox="0 0 108 33" fill="none" xmlns="http://www.w3.org/2000/svg">
<path d="M103.211 32.5645H4.32117C2.14474 32.5645 0.365234 30.765 0.365234 28.5642V4.56466C0.365234 2.36388 2.14474 0.564453 4.32117 0.564453H103.211C105.386 0.564453 107.167 2.36388 107.167 4.56466V28.5642C107.165 30.765 105.386 32.5645 103.211 32.5645Z" fill="#100F0D"/>
<path d="M103.211 0.56613H4.32117C2.1464 0.56613 0.365234 2.36555 0.365234 4.56634V28.5642C0.365234 30.765 2.14474 32.5645 4.32117 32.5645H103.211C105.386 32.5645 107.167 30.765 107.167 28.5642V4.56466C107.165 2.36555 105.386 0.56613 103.211 0.56613ZM103.211 1.20496C105.044 1.20496 106.534 2.71172 106.534 4.56466V28.5642C106.534 30.4172 105.044 31.924 103.211 31.924H4.32117C2.48874 31.924 0.998647 30.4172 0.998647 28.5642V4.56466C0.998647 2.71172 2.48874 1.20496 4.32117 1.20496H103.211Z" fill="#2F3C51"/>
<path d="M19.9247 25.7859C18.361 25.7859 16.7971 25.7854 15.2334 25.7862C14.8387 25.7862 14.4437 25.7568 14.0567 25.6948C13.4992 25.6051 12.9514 25.4664 12.4404 25.2058C11.9007 24.9305 11.4567 24.5523 11.1356 24.0386C10.8842 23.6366 10.7118 23.2013 10.5955 22.7397C10.5036 22.375 10.4438 22.0053 10.4023 21.6348C10.3611 21.2679 10.3655 20.8946 10.3655 20.5241C10.3644 17.5158 10.3669 14.5075 10.3677 11.4992C10.3677 11.1625 10.383 10.8255 10.4275 10.4932C10.5241 9.77159 10.6885 9.06409 11.065 8.43053C11.2391 8.13728 11.4556 7.8745 11.7185 7.64218C12.3928 7.04683 13.2064 6.82004 14.0628 6.68186C14.6646 6.58467 15.2705 6.56418 15.8781 6.56446C18.7475 6.56556 21.6165 6.56335 24.4856 6.56999C25.3343 6.57193 26.1741 6.66387 26.9838 6.93717C28.1486 7.33038 28.9062 8.12372 29.2702 9.29448C29.4208 9.77851 29.5047 10.275 29.5534 10.7806C29.6057 11.3228 29.609 11.865 29.6087 12.408C29.6076 15.2133 29.6135 18.0187 29.5999 20.824C29.596 21.6379 29.4914 22.4445 29.2168 23.2193C28.8987 24.1167 28.3354 24.7976 27.4701 25.2196C26.9199 25.4882 26.335 25.6195 25.734 25.7045C25.0177 25.8056 24.2977 25.7931 23.5777 25.7937C22.3598 25.7948 21.1421 25.7939 19.9242 25.7939C19.9242 25.7915 19.9242 25.7887 19.9242 25.7862L19.9247 25.7859ZM21.4034 17.8692C21.3505 17.8387 21.3536 17.7861 21.34 17.7446C21.2132 17.3558 21.0917 16.9651 20.9636 16.5766C20.9207 16.4464 20.9218 16.2645 20.8188 16.2014C20.7175 16.139 20.5511 16.1881 20.4138 16.1778C20.3039 16.1698 20.2954 16.2025 20.33 16.2994C20.5788 17.0011 20.8224 17.7047 21.0679 18.4077C21.1701 18.7004 21.1706 18.696 21.4779 18.7002C21.5675 18.7013 21.6046 18.6722 21.6323 18.5897C21.7862 18.1322 21.9454 17.6767 22.1048 17.2212C22.1206 17.1761 22.1195 17.1193 22.1771 17.0852C22.3307 17.5302 22.4829 17.9722 22.6357 18.4138C22.7346 18.6993 22.7348 18.6932 23.0382 18.701C23.1437 18.7038 23.1794 18.6614 23.2096 18.5722C23.3615 18.1239 23.5196 17.6778 23.6749 17.2306C23.795 16.8842 23.9143 16.5372 24.0378 16.18C23.8855 16.18 23.7474 16.185 23.6095 16.1781C23.5307 16.1742 23.4977 16.2008 23.4747 16.2761C23.3806 16.5838 23.2799 16.8895 23.1808 17.1954C23.108 17.42 23.0341 17.644 22.9496 17.9016C22.7791 17.3862 22.6202 16.9069 22.4622 16.427C22.3805 16.1792 22.3811 16.187 22.1212 16.1756C21.9983 16.1701 21.9465 16.2077 21.9097 16.3251C21.7472 16.841 21.5736 17.3538 21.4037 17.8694L21.4034 17.8692ZM19.9834 12.979C20.2048 12.9737 20.4246 12.9557 20.6427 12.9128C21.9938 12.6478 23.0808 11.4267 23.1799 10.0587C23.1934 9.8721 23.1081 9.77878 22.9239 9.77878C22.8871 9.77878 22.8497 9.78183 22.8132 9.77823C22.7512 9.77186 22.7371 9.80066 22.7346 9.85798C22.7299 9.96847 22.7232 10.0795 22.7055 10.1886C22.4616 11.68 21.1446 12.6713 19.6363 12.5008C18.4001 12.3609 17.3784 11.3239 17.2546 10.0831C17.2242 9.77712 17.2239 9.78349 16.9128 9.77602C16.7957 9.77325 16.7813 9.81561 16.7841 9.91668C16.8333 11.6008 18.2686 12.9768 19.9831 12.9793L19.9834 12.979ZM12.5049 17.4366C12.5049 17.7227 12.5038 18.0087 12.5055 18.2948C12.506 18.4232 12.4629 18.5935 12.5279 18.6689C12.6035 18.7564 12.7793 18.6838 12.9105 18.6985C13.0013 18.7087 13.0276 18.6761 13.0256 18.585C13.0198 18.3128 13.0256 18.0406 13.0223 17.7684C13.0215 17.7002 13.0345 17.6712 13.1117 17.6723C13.4345 17.6764 13.7575 17.6764 14.0802 17.6723C14.1558 17.6714 14.173 17.6983 14.1713 17.7678C14.1672 17.9431 14.1661 18.1187 14.1713 18.2937C14.1752 18.4257 14.1107 18.6066 14.199 18.6766C14.282 18.7425 14.4553 18.6907 14.5885 18.699C14.6698 18.704 14.687 18.6727 14.6867 18.5971C14.6842 17.8221 14.6842 17.0467 14.6867 16.2717C14.6867 16.2008 14.6704 16.1731 14.5951 16.1775C14.4894 16.1839 14.3825 16.1845 14.2771 16.1775C14.1921 16.1717 14.1663 16.1989 14.168 16.285C14.1735 16.5525 14.1688 16.8202 14.1708 17.0877C14.1713 17.1556 14.1666 17.1999 14.0772 17.1988C13.7544 17.1941 13.4314 17.1954 13.1087 17.1982C13.0414 17.1988 13.0209 17.1761 13.0223 17.1104C13.0259 16.9352 13.0273 16.7596 13.0223 16.5846C13.0187 16.4525 13.0824 16.2722 12.9965 16.2022C12.9154 16.1357 12.7413 16.1875 12.609 16.1775C12.5193 16.1709 12.5025 16.2061 12.5033 16.288C12.5072 16.671 12.5049 17.0539 12.5049 17.4369V17.4366ZM24.4499 17.4325C24.4499 17.806 24.4544 18.1796 24.4472 18.5531C24.4449 18.6644 24.4682 18.7018 24.5881 18.6999C25.0628 18.6921 25.5378 18.6968 26.0128 18.6968C26.3568 18.6968 26.353 18.6968 26.3532 18.3513C26.3532 18.2524 26.3225 18.2289 26.2278 18.2302C25.8406 18.2352 25.4533 18.2294 25.0661 18.2344C24.9756 18.2355 24.9468 18.2106 24.9521 18.1198C24.9598 17.9866 24.9573 17.8523 24.9526 17.7188C24.9501 17.6468 24.9623 17.6105 25.0475 17.6138C25.2134 17.6205 25.3794 17.6158 25.5455 17.6158C25.8907 17.6158 25.8882 17.6158 25.8852 17.2691C25.8843 17.1835 25.868 17.1442 25.7708 17.1503C25.6286 17.1592 25.4852 17.1536 25.3421 17.1522C25.2183 17.1511 25.0487 17.196 24.9819 17.1329C24.8967 17.0523 24.967 16.8806 24.9526 16.7493C24.9432 16.6627 24.975 16.6408 25.0595 16.6422C25.359 16.6472 25.6587 16.6441 25.9585 16.6441C26.3189 16.6441 26.3161 16.6441 26.307 16.2775C26.3051 16.1964 26.2785 16.1784 26.2029 16.1789C25.6543 16.1817 25.1057 16.1834 24.5568 16.1778C24.456 16.1767 24.4474 16.2174 24.448 16.2985C24.451 16.6768 24.4494 17.0548 24.4494 17.433L24.4499 17.4325ZM17.0462 16.9919C17.0443 16.9919 17.0421 16.9919 17.0401 16.9919C17.0401 17.2411 17.049 17.4906 17.0376 17.739C17.0255 18.0098 16.863 18.1893 16.6174 18.2314C16.1837 18.3058 15.9088 18.0777 15.9044 17.6343C15.9008 17.2838 15.9063 16.9329 15.9022 16.5824C15.9005 16.4506 15.9631 16.2703 15.8756 16.2005C15.7928 16.1346 15.6201 16.182 15.487 16.1798C15.4778 16.1798 15.4684 16.1806 15.4593 16.1798C15.4048 16.1739 15.3862 16.1997 15.3873 16.2523C15.3973 16.7917 15.3563 17.3328 15.4108 17.8705C15.4562 18.3205 15.7447 18.6138 16.1889 18.7068C16.3215 18.7345 16.455 18.732 16.5884 18.7265C17.1074 18.7049 17.4786 18.3742 17.5373 17.8597C17.5982 17.3267 17.5492 16.7903 17.5636 16.2559C17.5652 16.1942 17.5431 16.1759 17.4841 16.1778C17.369 16.1814 17.2533 16.1828 17.1381 16.1775C17.0648 16.1742 17.0434 16.2 17.0446 16.272C17.0484 16.5118 17.0459 16.7518 17.0459 16.9916L17.0462 16.9919ZM20.4816 18.6966C20.4587 18.6412 20.4454 18.6077 20.431 18.5747C20.1262 17.8808 19.8073 17.1927 19.5239 16.4904C19.424 16.2432 19.3038 16.1332 19.0381 16.1742C18.9548 16.187 18.9116 16.2044 18.8776 16.2836C18.6724 16.7601 18.4612 17.2345 18.252 17.7094C18.1224 18.0035 17.9912 18.2973 17.8639 18.5924C17.8492 18.6268 17.782 18.6924 17.8891 18.6952C18.0361 18.699 18.1974 18.729 18.3253 18.6786C18.4192 18.6414 18.4313 18.4753 18.4823 18.3681C18.5019 18.3266 18.5221 18.2851 18.5365 18.2416C18.5556 18.184 18.5916 18.1699 18.6506 18.1704C18.9775 18.1735 19.3047 18.1738 19.6316 18.1704C19.6961 18.1699 19.7307 18.1882 19.7545 18.2499C19.8026 18.374 19.8616 18.4939 19.9114 18.6174C19.9325 18.6694 19.9554 18.7004 20.0194 18.6985C20.1664 18.6938 20.3136 18.6971 20.4811 18.6971L20.4816 18.6966ZM27.4657 17.4319C27.4657 17.1462 27.4682 16.8601 27.4646 16.5743C27.463 16.4467 27.5203 16.2792 27.4408 16.2019C27.3622 16.1252 27.195 16.19 27.068 16.1773C26.9747 16.1681 26.9517 16.2033 26.9534 16.2925C26.9583 16.5968 26.9553 16.9008 26.9553 17.2051C26.9553 17.6615 26.9581 18.1181 26.9531 18.5744C26.952 18.6719 26.9799 18.7051 27.0768 18.6968C27.1684 18.6888 27.2617 18.6888 27.3531 18.6968C27.4477 18.7054 27.4685 18.6675 27.4677 18.5794C27.4635 18.1967 27.466 17.8141 27.466 17.4316L27.4657 17.4319Z" fill="#DA0025"/>
<path d="M65.3969 21.4057C65.3969 21.9731 65.3952 22.5405 65.3985 23.1079C65.3991 23.1948 65.38 23.2366 65.2909 23.279C64.7691 23.5257 64.2207 23.6935 63.6599 23.809C63.0836 23.9275 62.4971 23.9738 61.9053 23.9555C61.3212 23.9375 60.7585 23.8259 60.2242 23.5949C59.863 23.439 59.5375 23.2236 59.2355 22.9633C58.8795 22.6568 58.6124 22.2868 58.3979 21.8812C58.2118 21.5295 58.0961 21.1465 58.0087 20.755C57.9519 20.5005 57.9378 20.2422 57.8982 19.9866C57.8705 19.8074 57.9018 19.6197 57.8993 19.4358C57.8921 18.8842 57.9774 18.3481 58.1449 17.8228C58.3721 17.1104 58.763 16.5025 59.3243 16.0138C59.8771 15.5325 60.5362 15.2565 61.2484 15.1036C61.7181 15.0028 62.194 14.9696 62.6734 14.9884C63.5094 15.0211 64.306 15.2174 65.0672 15.5644C65.1392 15.5971 65.145 15.6261 65.1198 15.6984C65.0107 16.0124 64.9103 16.3295 64.8073 16.6457C64.7827 16.7216 64.7541 16.7537 64.6617 16.713C64.4026 16.5989 64.1388 16.4959 63.8684 16.4103C63.6525 16.3422 63.4341 16.2907 63.2104 16.2564C62.9876 16.2223 62.7656 16.1822 62.5391 16.1835C61.8136 16.1885 61.1341 16.34 60.5558 16.8107C60.1683 17.1259 59.8993 17.5249 59.7177 17.9876C59.4821 18.5876 59.442 19.2126 59.4705 19.847C59.4951 20.3981 59.6025 20.9306 59.8586 21.4237C60.2087 22.0983 60.7579 22.5272 61.5011 22.6825C62.3119 22.8517 63.1077 22.7501 63.8894 22.497C63.9409 22.4804 63.9517 22.4544 63.9514 22.4081C63.9506 21.8684 63.9495 21.3287 63.9522 20.7891C63.9528 20.6938 63.8913 20.7162 63.841 20.7162C63.2505 20.7154 62.6604 20.7124 62.07 20.7187C61.9551 20.7198 61.9227 20.6916 61.926 20.5758C61.9346 20.2715 61.9316 19.9669 61.9271 19.6626C61.926 19.5823 61.9399 19.5527 62.0304 19.5529C63.1188 19.5565 64.2072 19.5565 65.2956 19.5529C65.3864 19.5527 65.3991 19.5826 65.3985 19.6626C65.3952 20.2438 65.3969 20.8251 65.3969 21.4063V21.4057Z" fill="white"/>
<path d="M35.2506 23.8375C35.3743 23.526 35.4944 23.2261 35.6126 22.9251C35.761 22.5477 35.9077 22.1697 36.0558 21.7923C36.1958 21.4356 36.337 21.0795 36.4776 20.7231C36.623 20.354 36.7686 19.9849 36.9133 19.6155C37.0725 19.2098 37.2317 18.8042 37.3897 18.3979C37.5467 17.9945 37.7008 17.5897 37.8578 17.1862C37.9821 16.8667 38.1091 16.5485 38.2353 16.2295C38.3666 15.8975 38.5025 15.5674 38.6273 15.2332C38.6641 15.1346 38.7092 15.0933 38.8194 15.0953C39.2205 15.1022 39.6219 15.1005 40.023 15.0961C40.1121 15.095 40.1539 15.1147 40.1901 15.2072C40.625 16.3076 41.0665 17.4058 41.5077 18.5037C42.1998 20.2264 42.8929 21.9484 43.5852 23.6711C43.5954 23.6963 43.5982 23.7256 43.6126 23.7478C43.6649 23.8278 43.6253 23.8386 43.5528 23.8383C43.2577 23.8367 42.9624 23.8378 42.6673 23.8375C42.4782 23.8375 42.2889 23.8331 42.1001 23.8397C42.0367 23.8419 42.0124 23.8164 41.9941 23.7663C41.8753 23.4404 41.7582 23.1137 41.6367 22.7886C41.5105 22.4502 41.3801 22.1132 41.2511 21.7756C41.2498 21.7718 41.242 21.7693 41.242 21.7662C41.2415 21.4672 41.0377 21.4921 40.8296 21.4932C39.8151 21.4985 38.8003 21.4976 37.7855 21.4924C37.6828 21.4918 37.6394 21.5298 37.6084 21.6159C37.3573 22.3128 37.1027 23.0087 36.8546 23.7068C36.8178 23.8104 36.768 23.8422 36.6581 23.8405C36.1931 23.8331 35.7278 23.8375 35.25 23.8375H35.2506ZM38.1102 20.2995H40.7067C40.2757 19.0935 39.7866 17.9186 39.396 16.6717C39.0204 17.9266 38.5326 19.0988 38.1105 20.2995H38.1102Z" fill="white"/>
<path d="M52.6617 18.1347C53.0844 17.672 53.5752 17.3596 54.185 17.2502C55.1524 17.0766 56.1586 17.4482 56.6718 18.4163C56.9096 18.8646 57.0228 19.3445 57.0665 19.8496C57.1299 20.5795 57.0823 21.2947 56.8393 21.9881C56.5021 22.9493 55.8425 23.5836 54.8623 23.8636C54.497 23.968 54.1144 23.9708 53.7335 23.9566C53.4113 23.9447 53.0996 23.8838 52.7977 23.7775C52.6872 23.7387 52.688 23.783 52.6883 23.8664C52.69 24.6738 52.6869 25.4813 52.6919 26.2887C52.6927 26.407 52.6565 26.4388 52.5402 26.4466C52.1281 26.4748 51.7167 26.5155 51.3054 26.5557C51.1988 26.5659 51.1933 26.5147 51.1936 26.4286C51.1963 25.3259 51.1958 24.223 51.1952 23.1201C51.1944 21.5329 51.193 19.9457 51.1911 18.3584C51.1908 18.074 51.1609 17.7913 51.1421 17.5078C51.1299 17.3275 51.1421 17.3267 51.319 17.3267C51.6835 17.3267 52.0481 17.3341 52.4121 17.3225C52.5394 17.3184 52.566 17.3746 52.5781 17.4754C52.6039 17.6908 52.633 17.9062 52.6623 18.1341L52.6617 18.1347ZM55.5693 20.428C55.5771 20.196 55.5552 19.9296 55.5087 19.6657C55.4857 19.5344 55.4517 19.4057 55.4063 19.2797C55.163 18.6063 54.5952 18.2831 53.891 18.4127C53.4149 18.5005 53.0576 18.7832 52.721 19.1047C52.6806 19.1432 52.6894 19.1883 52.6894 19.2329C52.6889 20.3306 52.6903 21.4279 52.6869 22.5253C52.6869 22.6051 52.716 22.6364 52.7835 22.6638C53.0111 22.7571 53.248 22.8133 53.4911 22.8393C54.43 22.9393 55.1289 22.5912 55.4281 21.5977C55.5394 21.2286 55.574 20.8481 55.5696 20.4277L55.5693 20.428Z" fill="white"/>
<path d="M44.3494 22.0372C44.3389 20.9246 44.3752 19.5589 44.3267 18.1943C44.3176 17.939 44.3181 17.6829 44.3015 17.4278C44.2968 17.3528 44.3129 17.3243 44.3959 17.3251C44.797 17.3295 45.1984 17.3287 45.5995 17.3257C45.6797 17.3251 45.7094 17.3464 45.7174 17.4326C45.7351 17.6225 45.7686 17.8114 45.7971 18.0002C45.8015 18.0293 45.7791 18.0703 45.8187 18.0849C45.8572 18.0991 45.8713 18.0573 45.8929 18.0368C46.1564 17.7889 46.4362 17.5669 46.7737 17.4234C47.1822 17.2498 47.6013 17.1795 48.0467 17.2268C48.5236 17.2775 48.9419 17.4475 49.3031 17.7607C49.6763 18.0841 49.9052 18.5006 50.0541 18.9614C50.213 19.4531 50.2542 19.9649 50.2432 20.4782C50.2285 21.1713 50.1142 21.8448 49.7801 22.4653C49.4465 23.0848 48.9527 23.5253 48.2942 23.7709C47.8446 23.9385 47.3749 23.9736 46.8971 23.9584C46.5699 23.9482 46.2566 23.8759 45.9466 23.787C45.8367 23.7554 45.8381 23.7889 45.8381 23.8723C45.8397 24.6703 45.8356 25.4681 45.8425 26.2661C45.8436 26.396 45.8101 26.4384 45.6803 26.4472C45.2637 26.4755 44.8482 26.5167 44.4322 26.5533C44.3793 26.558 44.3414 26.5489 44.3483 26.4819C44.3516 26.45 44.3489 26.4173 44.3489 26.3849C44.3489 25.0198 44.3489 23.6544 44.3489 22.0367L44.3494 22.0372ZM45.8392 20.877C45.8392 21.4208 45.8411 21.965 45.837 22.5088C45.8364 22.5966 45.8644 22.6395 45.9457 22.6705C46.1708 22.7566 46.4025 22.8145 46.6408 22.8394C47.5139 22.9311 48.207 22.6511 48.5209 21.754C48.8004 20.9551 48.8087 20.1316 48.5649 19.3216C48.3504 18.6088 47.7613 18.2796 47.0297 18.4147C46.5843 18.4973 46.2441 18.7581 45.9219 19.0536C45.8586 19.1117 45.837 19.1737 45.8375 19.2587C45.8408 19.7982 45.8392 20.3376 45.8392 20.8767V20.877Z" fill="white"/>
<path d="M94.8849 22.3761C94.9743 22.0236 95.0538 21.7021 95.1584 21.3869C95.4114 20.6243 95.6597 19.8601 95.9108 19.0969C96.0912 18.5478 96.2745 17.9996 96.4522 17.4496C96.4754 17.3773 96.497 17.3264 96.584 17.3267C97.0407 17.3283 97.4971 17.3278 97.9539 17.3286C97.9666 17.3286 97.9796 17.3358 97.9998 17.3419C97.8077 17.8697 97.617 18.3952 97.4254 18.9208C97.1381 19.7094 96.8508 20.4978 96.5635 21.2862C96.1926 22.3038 95.8316 23.3253 95.446 24.3374C95.2395 24.8796 94.9691 25.3941 94.5624 25.8194C94.2175 26.1802 93.7926 26.4034 93.3027 26.5009C92.9736 26.5665 92.6378 26.5762 92.3076 26.5532C92.0366 26.5344 91.7603 26.4986 91.5004 26.3951C91.4362 26.3693 91.4127 26.3707 91.4398 26.2807C91.5303 25.9817 91.602 25.6762 91.6671 25.3705C91.6842 25.2899 91.7003 25.2886 91.7706 25.3032C92.0881 25.3705 92.4064 25.4397 92.7341 25.381C93.1984 25.2977 93.5073 25.0064 93.7486 24.624C93.8801 24.4158 93.9623 24.1848 94.0595 23.9605C94.0888 23.893 94.0692 23.8251 94.0448 23.7606C93.8826 23.3272 93.716 22.8955 93.5571 22.4608C93.3755 21.964 93.2028 21.4639 93.022 20.9669C92.8022 20.3624 92.5772 19.7601 92.3558 19.1562C92.1631 18.6301 91.9707 18.1039 91.7811 17.5767C91.6917 17.3283 91.6947 17.3272 91.9522 17.3275C92.3627 17.3275 92.7732 17.3283 93.1837 17.3267C93.2537 17.3264 93.2966 17.3333 93.324 17.4172C93.67 18.4808 94.0252 19.5416 94.3712 20.6052C94.5516 21.1599 94.7368 21.7137 94.8487 22.288C94.8528 22.3088 94.865 22.3282 94.8852 22.3763L94.8849 22.3761Z" fill="white"/>
<path d="M70.647 23.0033C70.3973 23.2702 70.1261 23.4746 69.823 23.6388C69.3665 23.8858 68.8785 23.9749 68.3645 23.955C67.9349 23.9384 67.5382 23.8229 67.1917 23.5646C66.9132 23.3569 66.7258 23.0808 66.6093 22.7521C66.5199 22.4998 66.4706 22.2379 66.4783 21.9765C66.4947 21.4263 66.6577 20.9223 67.0826 20.5441C67.3995 20.2619 67.7876 20.1124 68.1995 20.0312C68.9009 19.8931 69.6073 19.877 70.3162 19.9709C70.3932 19.9811 70.471 19.9706 70.549 19.9927C70.6149 20.0116 70.6321 19.9603 70.6332 19.9025C70.6387 19.5885 70.6016 19.2819 70.487 18.987C70.3364 18.5993 69.8255 18.3003 69.428 18.3393C69.3447 18.3474 69.2707 18.3055 69.186 18.3072C68.5497 18.3197 67.9479 18.4783 67.366 18.7242C67.2581 18.7699 67.2185 18.7721 67.1964 18.6298C67.1529 18.3526 67.0768 18.0801 67.0076 17.8074C66.9799 17.6988 67.0411 17.6562 67.1208 17.628C67.4768 17.5022 67.8388 17.3948 68.2098 17.3242C68.6571 17.2389 69.1096 17.1929 69.5655 17.2101C70.0131 17.2267 70.4552 17.2851 70.8696 17.4701C71.468 17.7376 71.8049 18.2236 71.9785 18.8347C72.0878 19.2193 72.1218 19.6159 72.1213 20.0157C72.1202 20.911 72.1174 21.8059 72.1241 22.7012C72.1265 23.0459 72.1506 23.3907 72.1681 23.7354C72.1717 23.8032 72.16 23.8398 72.0823 23.8392C71.6626 23.8373 71.2427 23.8387 70.8231 23.8379C70.7871 23.8379 70.7439 23.8398 70.7378 23.7897C70.7076 23.5369 70.6791 23.2835 70.647 23.0041V23.0033ZM70.6332 21.4861C70.6332 21.3108 70.6323 21.1355 70.6337 20.9605C70.634 20.9054 70.6321 20.8653 70.5579 20.8589C70.1582 20.8257 69.7588 20.7836 69.3574 20.8107C69.0723 20.8298 68.7883 20.8633 68.5281 20.9965C68.1134 21.2089 67.9238 21.6963 68.0489 22.2238C68.1433 22.6217 68.4625 22.8501 68.9413 22.8496C69.5312 22.849 70.0264 22.6059 70.4726 22.2387C70.5911 22.1413 70.6545 22.033 70.6362 21.8727C70.6216 21.7453 70.6332 21.6149 70.6332 21.4858V21.4861Z" fill="white"/>
<path d="M83.8164 20.7741C83.1476 20.7741 82.4788 20.7755 81.8101 20.7724C81.7268 20.7721 81.6816 20.7832 81.6958 20.8812C81.742 21.2 81.7824 21.5192 81.9166 21.8177C82.1547 22.3469 82.5588 22.6634 83.1274 22.7678C83.9227 22.9137 84.6714 22.7268 85.4027 22.4347C85.4819 22.4031 85.5146 22.4172 85.5375 22.4917C85.6247 22.7767 85.7089 23.0627 85.8038 23.3449C85.8262 23.4116 85.8127 23.4346 85.7576 23.4595C85.4127 23.6154 85.0576 23.7375 84.6875 23.8214C84.1134 23.9516 83.5301 23.9845 82.9489 23.951C82.4445 23.922 81.9593 23.7827 81.5164 23.5182C81.1233 23.2834 80.8205 22.9611 80.6051 22.5659C80.4307 22.2461 80.3258 21.8972 80.2594 21.5334C80.173 21.0607 80.1722 20.5841 80.2115 20.1153C80.2677 19.4424 80.4759 18.8116 80.9041 18.2634C81.4095 17.616 82.0725 17.3008 82.8772 17.2269C83.459 17.1735 84.0159 17.2402 84.5336 17.5157C85.1359 17.8361 85.5137 18.35 85.7355 18.9855C85.9281 19.5371 85.9718 20.109 85.9624 20.6882C85.9608 20.7849 85.9112 20.7741 85.8503 20.7738C85.1724 20.7733 84.4943 20.7735 83.8164 20.7735V20.7741ZM83.1163 19.8271C83.5357 19.8271 83.955 19.8229 84.3744 19.8298C84.4829 19.8315 84.5134 19.8005 84.4943 19.6978C84.4704 19.5712 84.4616 19.4416 84.4331 19.3165C84.303 18.743 83.9434 18.368 83.4277 18.2913C82.8589 18.2069 82.3911 18.3841 82.0667 18.8767C81.8939 19.1387 81.8134 19.4352 81.7544 19.7398C81.7348 19.8415 81.7982 19.8273 81.8582 19.8273C82.2776 19.8271 82.697 19.8273 83.1163 19.8273V19.8271Z" fill="white"/>
<path d="M77.1336 18.6107C77.1336 17.3142 77.1353 16.0174 77.1309 14.721C77.1306 14.6069 77.1616 14.5767 77.2748 14.5701C77.6778 14.5457 78.0803 14.5125 78.4817 14.4706C78.5988 14.4585 78.6262 14.482 78.6259 14.6011C78.6223 17.088 78.6242 19.5751 78.6226 22.062C78.6223 22.6895 78.9547 22.849 79.466 22.733C79.5811 22.7069 79.611 22.7117 79.6252 22.8393C79.6567 23.1242 79.7101 23.407 79.7625 23.6894C79.7746 23.7548 79.7647 23.7736 79.7021 23.7946C79.3149 23.9251 78.9174 23.9688 78.5107 23.9539C78.3067 23.9464 78.1132 23.9062 77.9239 23.8279C77.5029 23.6534 77.2986 23.3136 77.1895 22.8958C77.1356 22.6884 77.1334 22.4771 77.1334 22.265C77.1334 21.0469 77.1334 19.8288 77.1334 18.6107H77.1336Z" fill="white"/>
<path d="M73.4227 18.6216C73.4227 17.3207 73.4244 16.0197 73.4199 14.7188C73.4196 14.6028 73.4537 14.5768 73.565 14.5699C73.968 14.5452 74.3705 14.5123 74.7721 14.4705C74.8922 14.458 74.9155 14.4868 74.9155 14.6031C74.913 17.1127 74.9133 19.622 74.9166 22.1316C74.9172 22.6206 75.1865 22.8344 75.6709 22.7469C75.7072 22.7403 75.7437 22.7353 75.7786 22.7242C75.8719 22.6949 75.9037 22.7225 75.9156 22.8244C75.9455 23.0767 75.9881 23.3276 76.0352 23.5774C76.0714 23.7698 76.0612 23.7911 75.8658 23.8412C75.4705 23.9429 75.0675 23.9736 74.6622 23.9562C74.0859 23.9315 73.5807 23.4502 73.4761 22.8668C73.4357 22.6414 73.423 22.4177 73.423 22.1914C73.4221 21.0013 73.4227 19.8111 73.4227 18.621V18.6216Z" fill="white"/>
<path d="M88.6248 18.5541C88.833 18.2401 89.0132 17.9477 89.2614 17.7092C89.6692 17.3177 90.1514 17.1452 90.7177 17.2294C90.7894 17.2399 90.8642 17.2476 90.9342 17.251C91.0563 17.2565 91.0662 17.3113 91.0527 17.4052C91.0026 17.7524 90.9494 18.0997 90.9076 18.448C90.8932 18.5682 90.821 18.5754 90.7426 18.5519C90.5018 18.4802 90.2671 18.5078 90.0252 18.5505C89.7497 18.5992 89.5197 18.7266 89.3138 18.9024C89.0857 19.0968 88.8938 19.3272 88.7087 19.562C88.6594 19.6246 88.6442 19.6966 88.6445 19.7791C88.6469 21.0842 88.6447 22.3892 88.6489 23.6943C88.6492 23.8053 88.6276 23.843 88.5085 23.8405C88.1074 23.8325 87.7064 23.833 87.3053 23.8405C87.1896 23.8427 87.1536 23.8214 87.1541 23.6949C87.1597 22.1821 87.1563 20.6697 87.1583 19.1569C87.1588 18.5895 87.1419 18.0227 87.1168 17.4562C87.1123 17.3543 87.1331 17.323 87.2405 17.3252C87.6092 17.3324 87.9787 17.3396 88.3466 17.3227C88.5105 17.3152 88.5227 17.3947 88.5323 17.5129C88.56 17.8491 88.5919 18.185 88.6248 18.5546V18.5541Z" fill="white"/>
<path d="M80.6227 11.0226C80.6598 10.9561 80.6451 10.9102 80.6435 10.8664C80.6061 9.79646 80.6338 8.72622 80.6235 7.65625C80.6227 7.57318 80.634 7.53303 80.7326 7.53801C80.9073 7.54715 81.083 7.54327 81.2582 7.53912C81.3299 7.53746 81.3634 7.54743 81.3634 7.63382C81.3607 9.09146 81.3607 10.5491 81.3632 12.0067C81.3632 12.089 81.3344 12.1064 81.2594 12.1053C81.0243 12.1012 80.7888 12.1 80.5538 12.1061C80.4829 12.1081 80.4494 12.0748 80.4173 12.0244C80.076 11.4895 79.7344 10.9548 79.3931 10.4201C79.0205 9.83606 78.648 9.25178 78.2765 8.66696C78.2602 8.64121 78.253 8.60964 78.2048 8.59164C78.2048 8.62985 78.2037 8.66336 78.2048 8.69631C78.2502 9.79369 78.2222 10.8916 78.2322 11.9893C78.233 12.0829 78.1987 12.1081 78.1112 12.1053C77.9499 12.1 77.7879 12.097 77.6271 12.1061C77.5192 12.1122 77.4887 12.0812 77.4893 11.9705C77.494 11.0616 77.492 10.1531 77.492 9.24431C77.492 8.71376 77.4942 8.1832 77.4898 7.65293C77.489 7.56266 77.5125 7.53607 77.6036 7.53856C77.8386 7.54493 78.0739 7.543 78.3092 7.5394C78.3709 7.53856 78.4113 7.55573 78.4448 7.60834C79.0936 8.62902 79.7436 9.64915 80.3938 10.6693C80.466 10.7825 80.5397 10.8949 80.6224 11.0229L80.6227 11.0226Z" fill="white"/>
<path d="M76.6144 9.86212C76.6069 10.3129 76.4993 10.8338 76.1657 11.2932C75.8919 11.6703 75.5293 11.9121 75.092 12.0519C74.7036 12.1762 74.2959 12.2067 73.9023 12.1544C73.4621 12.0959 73.0464 11.9428 72.7101 11.6072C72.3666 11.2641 72.1894 10.8576 72.0961 10.393C71.9807 9.81782 72.0374 9.25597 72.2666 8.72902C72.5761 8.01765 73.1535 7.62804 73.9178 7.51562C74.3346 7.45414 74.7496 7.46079 75.1559 7.58235C75.8424 7.78782 76.282 8.24194 76.4934 8.92369C76.5781 9.19644 76.6155 9.47584 76.6144 9.86212ZM75.7901 9.77628C75.7854 9.70373 75.784 9.5974 75.7713 9.49245C75.7231 9.09648 75.6149 8.72514 75.312 8.44021C74.6419 7.81025 73.4527 8.06528 73.0641 8.92396C72.8631 9.36812 72.8446 9.83388 72.9271 10.3049C73.0746 11.1464 73.6335 11.5861 74.4852 11.5288C74.9846 11.4953 75.3513 11.2461 75.5803 10.8003C75.7397 10.4899 75.7857 10.154 75.7901 9.77628Z" fill="white"/>
<path d="M49.4507 9.86412C49.4426 9.38009 49.5351 8.92236 49.7851 8.50036C50.0547 8.0454 50.4411 7.74634 50.9474 7.5982C51.483 7.44119 52.0252 7.42458 52.5578 7.58408C53.2728 7.7984 53.7229 8.28493 53.907 9.01014C54.0858 9.71487 54.0456 10.4044 53.7079 11.0557C53.4026 11.6444 52.893 11.9683 52.2553 12.1093C51.9488 12.1771 51.6352 12.1888 51.3302 12.1569C50.946 12.1168 50.5856 11.9888 50.2648 11.7465C50.0259 11.566 49.849 11.3431 49.707 11.0922C49.5885 10.8829 49.5307 10.6458 49.4861 10.4077C49.4523 10.2274 49.4545 10.0461 49.4509 9.86468L49.4507 9.86412ZM50.2767 9.82065C50.2714 10.0532 50.303 10.2809 50.3661 10.5035C50.5532 11.162 51.0246 11.5269 51.6956 11.5355C52.3862 11.5444 52.8748 11.1911 53.0785 10.5326C53.208 10.1136 53.2141 9.68718 53.1269 9.26157C53.0176 8.72576 52.7524 8.29988 52.1913 8.15893C51.6197 8.0155 51.0874 8.10272 50.6791 8.57429C50.3713 8.92984 50.2786 9.36265 50.2764 9.82065H50.2767Z" fill="white"/>
<path d="M58.3559 12.1038C58.0439 12.1038 57.7638 12.1011 57.4839 12.106C57.4228 12.1071 57.4125 12.0717 57.3873 12.0338C57.056 11.5298 56.7216 11.0278 56.3911 10.5235C56.3546 10.4679 56.3042 10.4219 56.2845 10.3527C56.2726 10.3109 56.2303 10.2898 56.1758 10.292C56.047 10.2976 55.9172 10.2998 55.7888 10.292C55.6958 10.2862 55.6745 10.3183 55.6753 10.4078C55.6794 10.9289 55.6739 11.4498 55.68 11.9709C55.6814 12.0803 55.6526 12.1124 55.5435 12.1069C55.3597 12.0975 55.1748 12.1005 54.9905 12.106C54.9096 12.1085 54.8809 12.0922 54.8809 12.0022C54.8842 10.5498 54.8839 9.09718 54.8809 7.6448C54.8809 7.55592 54.9088 7.53875 54.9908 7.53958C55.484 7.54401 55.9776 7.53321 56.4706 7.54706C56.8132 7.55647 57.1496 7.61573 57.4413 7.81981C57.7303 8.02167 57.8726 8.30079 57.8933 8.6508C57.9166 9.03847 57.8081 9.37962 57.5545 9.67314C57.4214 9.8271 57.2636 9.9567 57.0754 10.0298C56.9461 10.0802 56.9713 10.1239 57.0319 10.2092C57.3192 10.6143 57.6027 11.0222 57.887 11.4293C58.0375 11.6453 58.1873 11.8618 58.3556 12.1047L58.3559 12.1038ZM55.6772 8.90971C55.6772 9.14453 55.6792 9.37907 55.6758 9.61388C55.675 9.6784 55.6913 9.70277 55.7597 9.70028C55.9067 9.69474 56.0545 9.70388 56.2012 9.69529C56.6643 9.66844 56.9887 9.4062 57.0768 8.995C57.172 8.55029 56.9832 8.25317 56.5381 8.1676C56.2746 8.11665 56.0058 8.15154 55.7395 8.14213C55.6626 8.13936 55.6772 8.19003 55.677 8.23351C55.6764 8.45891 55.677 8.68459 55.677 8.90999L55.6772 8.90971Z" fill="white"/>
<path d="M38.2649 12.1039C38.3876 11.8619 38.5467 11.6511 38.6901 11.431C39.0342 10.9029 39.3868 10.381 39.7375 9.85732C39.7785 9.79613 39.7749 9.74407 39.7361 9.6837C39.3348 9.05928 38.9348 8.43375 38.5345 7.80849C38.4839 7.72958 38.4346 7.64983 38.3856 7.57257C38.4031 7.52494 38.441 7.54128 38.4695 7.54128C38.7095 7.53989 38.9492 7.54266 39.1892 7.53906C39.2512 7.53823 39.2863 7.55734 39.3179 7.61161C39.5933 8.08734 39.8715 8.56168 40.1491 9.0363C40.2172 9.15287 40.2366 9.15371 40.3091 9.03713C40.6017 8.56666 40.8943 8.0962 41.1836 7.62407C41.2154 7.57202 41.2453 7.53934 41.3101 7.53989C41.5719 7.54183 41.8338 7.54073 42.1167 7.54073C41.9736 7.7653 41.8399 7.97547 41.7059 8.18509C41.3923 8.67576 41.0795 9.167 40.7634 9.65574C40.7144 9.73133 40.7354 9.78311 40.7794 9.85096C41.2503 10.5759 41.7178 11.3033 42.1859 12.0299C42.1975 12.0482 42.2088 12.0668 42.2315 12.1039C41.9351 12.1039 41.6563 12.1083 41.3779 12.1019C41.2486 12.0992 41.2295 11.9657 41.18 11.8859C40.8735 11.3922 40.5793 10.8907 40.2792 10.3931C40.1896 10.2444 40.1707 10.4183 40.1597 10.4358C39.8566 10.9165 39.5523 11.3966 39.2678 11.8884C39.1704 12.0568 39.0649 12.128 38.8697 12.1086C38.6735 12.0889 38.4739 12.1041 38.2646 12.1041L38.2649 12.1039Z" fill="white"/>
<path d="M58.9782 9.82611C58.9782 9.10643 58.9807 8.38647 58.9754 7.66679C58.9746 7.56184 59.0022 7.53803 59.1049 7.53858C59.9215 7.54301 60.7378 7.54246 61.5544 7.53914C61.6435 7.53886 61.6745 7.55686 61.6593 7.65128C61.6336 7.80884 61.6175 7.96834 61.6023 8.12756C61.5934 8.22254 61.5239 8.18821 61.4777 8.18848C60.9565 8.1907 60.4353 8.19374 59.914 8.1871C59.8 8.18571 59.766 8.2123 59.7687 8.32915C59.777 8.65645 59.7756 8.98431 59.7693 9.31189C59.7673 9.41601 59.7889 9.45228 59.9027 9.45062C60.3915 9.44342 60.8806 9.45173 61.3695 9.44453C61.4805 9.44287 61.4996 9.47997 61.4927 9.57661C61.4846 9.69153 61.4838 9.80783 61.4927 9.92247C61.5007 10.0277 61.4722 10.062 61.3595 10.0604C60.8707 10.0534 60.3816 10.0598 59.8927 10.0551C59.8003 10.0543 59.7671 10.0712 59.7687 10.1728C59.7754 10.5602 59.7745 10.9479 59.769 11.3355C59.7676 11.4275 59.7945 11.4485 59.8833 11.4479C60.4461 11.4438 61.0088 11.4491 61.5716 11.4432C61.6762 11.4421 61.6958 11.4767 61.6828 11.5687C61.6612 11.7229 61.6416 11.8774 61.6311 12.0328C61.6266 12.0995 61.5973 12.1053 61.5444 12.1053C60.714 12.1045 59.8839 12.1031 59.0535 12.1064C58.9452 12.107 58.9784 12.0369 58.9784 11.986C58.9771 11.2663 58.9773 10.5463 58.9773 9.82666L58.9782 9.82611Z" fill="white"/>
<path d="M35.2542 9.82174C35.2542 9.10206 35.2558 8.38238 35.252 7.6627C35.2514 7.56994 35.2683 7.53754 35.3699 7.53809C36.1909 7.54252 37.0119 7.54225 37.8329 7.53809C37.9276 7.53754 37.9492 7.56495 37.9359 7.65301C37.9126 7.80642 37.8935 7.96065 37.8816 8.11544C37.8739 8.21624 37.8044 8.18827 37.7512 8.18855C37.23 8.18993 36.7088 8.19325 36.1876 8.18661C36.0708 8.18522 36.0425 8.21901 36.045 8.33198C36.0525 8.6687 36.0506 9.00542 36.0458 9.34214C36.0445 9.42881 36.0708 9.44958 36.1552 9.44903C36.6532 9.44515 37.1514 9.44986 37.6497 9.44459C37.7471 9.44349 37.7773 9.46924 37.7703 9.56643C37.7618 9.69049 37.7609 9.81593 37.7703 9.9397C37.7781 10.0424 37.7377 10.0593 37.6452 10.0585C37.1517 10.0541 36.6581 10.0593 36.1646 10.0538C36.0652 10.0527 36.0439 10.082 36.0453 10.1767C36.0508 10.5597 36.0511 10.9427 36.0453 11.3253C36.0439 11.4206 36.066 11.4483 36.1646 11.4472C36.7226 11.4419 37.281 11.4488 37.8387 11.4414C37.96 11.4397 37.9732 11.4826 37.9583 11.5823C37.9367 11.7269 37.9198 11.8722 37.9104 12.0179C37.9063 12.0841 37.8858 12.1043 37.8207 12.1043C36.995 12.1026 36.1696 12.1015 35.3439 12.1054C35.2365 12.1059 35.2539 12.0434 35.2539 11.9802C35.2539 11.2605 35.2539 10.5409 35.2539 9.82119L35.2542 9.82174Z" fill="white"/>
<path d="M42.8118 9.82011C42.8118 9.10099 42.8135 8.38159 42.8096 7.66246C42.809 7.56914 42.8273 7.53674 42.9283 7.53813C43.343 7.54477 43.7582 7.53453 44.1729 7.54422C44.5025 7.55197 44.8261 7.60292 45.1292 7.74885C45.5372 7.94518 45.7708 8.26999 45.8185 8.71498C45.8592 9.09573 45.8043 9.4665 45.5693 9.78412C45.3288 10.1092 45.0011 10.2933 44.6016 10.3698C44.3254 10.4227 44.0522 10.3905 43.7779 10.3911C43.6062 10.3914 43.6062 10.3836 43.6062 10.5642C43.6062 11.0391 43.604 11.514 43.6082 11.9888C43.609 12.078 43.5874 12.1099 43.4941 12.1063C43.3101 12.0991 43.1251 12.0982 42.9411 12.1063C42.8392 12.111 42.8088 12.0841 42.8096 11.9778C42.8146 11.2586 42.8124 10.5392 42.8124 9.82011H42.8118ZM43.6057 8.93983C43.6057 9.17963 43.6057 9.41971 43.6057 9.65951C43.6057 9.70935 43.5952 9.75504 43.6727 9.76722C43.9675 9.8143 44.2603 9.83091 44.5454 9.7232C44.8842 9.59527 45.0714 9.26713 45.0401 8.86673C45.0096 8.47739 44.8328 8.26944 44.4544 8.18304C44.195 8.12379 43.9309 8.14871 43.6688 8.14178C43.5918 8.13985 43.606 8.18969 43.6057 8.23372C43.6054 8.46909 43.6057 8.70418 43.6057 8.93955V8.93983Z" fill="white"/>
<path d="M67.4658 10.1456C67.4658 9.54165 67.4624 8.93744 67.4685 8.33351C67.4696 8.22136 67.4359 8.1981 67.3307 8.19976C66.939 8.20585 66.547 8.20142 66.1554 8.20281C66.0709 8.20308 66.0233 8.2197 66.0471 8.08346C66.0704 7.95082 66.1097 7.81043 66.0889 7.66755C66.0765 7.58254 66.1161 7.53906 66.2141 7.53906C67.3343 7.54183 68.4542 7.54183 69.5745 7.53906C69.6603 7.53906 69.6711 7.56703 69.6603 7.64152C69.6362 7.80849 69.6163 7.9763 69.6021 8.14466C69.5958 8.2233 69.5437 8.20142 69.5033 8.20142C69.1299 8.20281 68.7565 8.20696 68.3834 8.19921C68.2718 8.19699 68.248 8.23077 68.2486 8.33711C68.2524 9.54525 68.2494 10.7531 68.2536 11.9613C68.2538 12.0729 68.2309 12.1144 68.1121 12.1069C67.9377 12.0961 67.7617 12.0986 67.587 12.1064C67.491 12.1105 67.4633 12.0831 67.4641 11.9853C67.4688 11.3723 67.4663 10.7589 67.4663 10.1456H67.4658Z" fill="white"/>
<path d="M46.6055 9.82945C46.6055 9.1189 46.6099 8.40864 46.6016 7.6981C46.5999 7.55854 46.6417 7.52891 46.7699 7.53749C46.9399 7.54912 47.1112 7.54663 47.2814 7.53804C47.3808 7.53306 47.4016 7.56518 47.4013 7.66071C47.398 8.8647 47.4013 10.0687 47.3958 11.273C47.3952 11.4037 47.4337 11.428 47.5547 11.4266C48.085 11.42 48.6154 11.4289 49.1457 11.4203C49.2836 11.4181 49.2944 11.459 49.2689 11.5778C49.2412 11.7069 49.2351 11.8414 49.2313 11.9741C49.2285 12.0635 49.2088 12.1064 49.1064 12.1059C48.304 12.1023 47.5015 12.1017 46.699 12.1067C46.5952 12.1073 46.6052 12.0552 46.6052 11.9888C46.606 11.2691 46.6058 10.5494 46.6058 9.82972L46.6055 9.82945Z" fill="white"/>
<path d="M64.5921 9.82611C64.5921 9.10698 64.594 8.38786 64.5899 7.66901C64.5893 7.57182 64.6037 7.53139 64.7141 7.53776C64.9024 7.54856 65.092 7.54357 65.2808 7.53942C65.3533 7.53776 65.3857 7.55077 65.3857 7.63523C65.3832 9.08705 65.3832 10.5391 65.3857 11.991C65.3857 12.0848 65.3525 12.1087 65.2639 12.1056C65.0798 12.0995 64.8949 12.0979 64.7111 12.1062C64.6123 12.1106 64.5896 12.0785 64.5901 11.9832C64.594 11.2641 64.5923 10.545 64.5923 9.82611H64.5921Z" fill="white"/>
<path d="M21.4042 17.8688C21.5741 17.3532 21.7477 16.8406 21.9102 16.3245C21.9473 16.2074 21.9987 16.1697 22.1216 16.175C22.3818 16.1863 22.3813 16.1786 22.4627 16.4264C22.6207 16.9063 22.7796 17.3856 22.9501 17.9009C23.0345 17.6434 23.1085 17.4194 23.1813 17.1948C23.2804 16.8888 23.3814 16.5831 23.4752 16.2755C23.4982 16.2002 23.5311 16.1736 23.61 16.1775C23.7476 16.1844 23.886 16.1794 24.0382 16.1794C23.9148 16.5369 23.7958 16.8836 23.6754 17.23C23.5201 17.6772 23.362 18.1233 23.21 18.5716C23.1799 18.6607 23.1444 18.7031 23.0387 18.7003C22.7353 18.6923 22.735 18.6987 22.6362 18.4132C22.4834 17.9715 22.3312 17.5296 22.1776 17.0846C22.1197 17.1189 22.1211 17.1754 22.1053 17.2206C21.9456 17.6761 21.7867 18.1316 21.6328 18.589C21.6051 18.6715 21.568 18.7009 21.4783 18.6995C21.1711 18.6954 21.1705 18.6995 21.0684 18.4071C20.8229 17.7043 20.5793 17.0004 20.3304 16.2987C20.2961 16.2018 20.3044 16.1691 20.4143 16.1772C20.5513 16.1874 20.718 16.1384 20.8193 16.2007C20.9222 16.2641 20.9211 16.4458 20.964 16.5759C21.0925 16.9644 21.2137 17.3549 21.3405 17.7439C21.3541 17.7854 21.351 17.8378 21.4039 17.8685L21.4042 17.8688Z" fill="#FEFEFE"/>
<path d="M19.9836 12.9793C18.2693 12.9768 16.8338 11.6008 16.7845 9.9167C16.7815 9.81535 16.7959 9.77299 16.9132 9.77603C17.2247 9.78351 17.2247 9.77742 17.2551 10.0831C17.3788 11.3239 18.4002 12.361 19.6367 12.5008C21.1451 12.6716 22.4621 11.6803 22.706 10.1886C22.7237 10.0798 22.7306 9.96848 22.735 9.858C22.7375 9.80095 22.7516 9.77188 22.8136 9.77825C22.8502 9.78212 22.8873 9.7788 22.9244 9.7788C23.1085 9.7788 23.1939 9.87212 23.1804 10.0588C23.0813 11.4264 21.9943 12.6476 20.6432 12.9128C20.4251 12.9557 20.2053 12.9737 19.9839 12.9793H19.9836Z" fill="#FEFEFE"/>
<path d="M12.505 17.4363C12.505 17.0534 12.5072 16.6704 12.5033 16.2874C12.5025 16.2055 12.5194 16.1703 12.609 16.177C12.7414 16.1866 12.9155 16.1351 12.9966 16.2016C13.0821 16.2717 13.0184 16.4522 13.0223 16.584C13.0273 16.7593 13.0259 16.9346 13.0223 17.1098C13.0209 17.1755 13.0414 17.1982 13.1087 17.1976C13.4314 17.1949 13.7545 17.1935 14.0772 17.1982C14.1666 17.1996 14.1713 17.1553 14.1708 17.0871C14.1688 16.8197 14.1736 16.5519 14.168 16.2844C14.1664 16.1983 14.1921 16.1711 14.2771 16.177C14.3828 16.1842 14.4894 16.1833 14.5951 16.177C14.6704 16.1725 14.6867 16.2002 14.6867 16.2711C14.6845 17.0462 14.6843 17.8215 14.6867 18.5966C14.6867 18.6722 14.6699 18.7034 14.5885 18.6985C14.4553 18.6904 14.2821 18.7419 14.199 18.676C14.1107 18.606 14.1752 18.4252 14.1713 18.2931C14.1661 18.1178 14.1672 17.9425 14.1713 17.7672C14.173 17.6977 14.1556 17.6709 14.0803 17.6717C13.7575 17.6756 13.4345 17.6758 13.1117 17.6717C13.0345 17.6706 13.0215 17.6997 13.0223 17.7678C13.0256 18.04 13.0198 18.3122 13.0256 18.5844C13.0276 18.6755 13.0013 18.7082 12.9105 18.6979C12.7793 18.6832 12.6035 18.7558 12.5279 18.6683C12.4632 18.593 12.5064 18.4227 12.5055 18.2942C12.5041 18.0081 12.505 17.7221 12.505 17.436V17.4363Z" fill="#FEFEFE"/>
<path d="M24.4496 17.4325C24.4496 17.0542 24.4513 16.6763 24.4482 16.298C24.4477 16.2169 24.4563 16.1762 24.557 16.1773C25.1056 16.1828 25.6543 16.1811 26.2032 16.1784C26.2787 16.1781 26.305 16.1961 26.3073 16.277C26.3164 16.6439 26.3192 16.6436 25.9588 16.6436C25.659 16.6436 25.3592 16.6466 25.0597 16.6416C24.9753 16.6403 24.9432 16.6619 24.9529 16.7488C24.9672 16.8801 24.8969 17.0517 24.9822 17.1323C25.0486 17.1955 25.2183 17.1506 25.3423 17.1517C25.4851 17.1531 25.6285 17.1586 25.7711 17.1498C25.8682 17.1437 25.8846 17.183 25.8854 17.2686C25.8887 17.6152 25.8912 17.6152 25.5458 17.6152C25.3797 17.6152 25.2136 17.62 25.0478 17.6133C24.9625 17.61 24.9504 17.646 24.9529 17.7183C24.9576 17.8517 24.9598 17.986 24.9523 18.1192C24.947 18.21 24.9758 18.235 25.0663 18.2339C25.4536 18.2289 25.8408 18.2347 26.2281 18.2297C26.3228 18.2286 26.3535 18.2519 26.3535 18.3507C26.3532 18.6963 26.3571 18.6963 26.013 18.6963C25.538 18.6963 25.063 18.6919 24.5883 18.6993C24.4684 18.7013 24.4452 18.6642 24.4474 18.5526C24.4546 18.179 24.4502 17.8055 24.4502 17.4319L24.4496 17.4325Z" fill="#FEFEFE"/>
<path d="M17.0458 16.9912C17.0458 16.7514 17.0483 16.5114 17.0444 16.2716C17.0433 16.1996 17.0644 16.1735 17.138 16.1771C17.2532 16.1824 17.3686 16.181 17.484 16.1774C17.543 16.1758 17.5651 16.1938 17.5635 16.2555C17.5488 16.7902 17.5978 17.3266 17.5372 17.8594C17.4785 18.3738 17.1073 18.7042 16.5883 18.7261C16.4548 18.7316 16.3214 18.7341 16.1888 18.7064C15.7446 18.6131 15.4561 18.3201 15.4107 17.8701C15.3565 17.3324 15.3972 16.7913 15.3872 16.2519C15.3861 16.1993 15.4046 16.1735 15.4592 16.1794C15.4683 16.1805 15.4777 16.1794 15.4869 16.1794C15.62 16.1819 15.7927 16.1342 15.8755 16.2001C15.9632 16.2699 15.9007 16.4502 15.9021 16.582C15.9062 16.9325 15.9007 17.2834 15.9043 17.6339C15.9087 18.0773 16.1836 18.3054 16.6173 18.231C16.8629 18.1889 17.0253 18.0094 17.0375 17.7386C17.0489 17.49 17.04 17.2405 17.04 16.9915C17.042 16.9915 17.0442 16.9915 17.0461 16.9915L17.0458 16.9912Z" fill="#FEFEFE"/>
<path d="M20.4817 18.6963C20.3142 18.6963 20.167 18.693 20.02 18.6977C19.956 18.6997 19.9331 18.6689 19.912 18.6166C19.8622 18.4931 19.8032 18.3732 19.7551 18.2491C19.731 18.1874 19.6967 18.1691 19.6322 18.1697C19.3053 18.173 18.9781 18.1727 18.6512 18.1697C18.5922 18.1691 18.5562 18.1832 18.5371 18.2408C18.5227 18.2843 18.5025 18.3258 18.4829 18.3674C18.4319 18.4748 18.42 18.6409 18.3259 18.6778C18.198 18.7282 18.0364 18.698 17.8897 18.6944C17.7826 18.6916 17.8495 18.626 17.8645 18.5917C17.9921 18.2965 18.123 18.003 18.2526 17.7086C18.4618 17.2337 18.673 16.7596 18.8781 16.2828C18.9122 16.2036 18.9554 16.1862 19.0387 16.1734C19.3042 16.1325 19.4246 16.2421 19.5245 16.4897C19.8079 17.1922 20.1268 17.8803 20.4316 18.5739C20.446 18.6069 20.4593 18.6404 20.4822 18.6958L20.4817 18.6963ZM19.1444 16.8208C19.0177 17.116 18.9033 17.3799 18.7912 17.6444C18.7575 17.7238 18.8197 17.7133 18.8635 17.7136C19.0476 17.7144 19.2316 17.7119 19.4157 17.715C19.4965 17.7164 19.525 17.7008 19.4863 17.6142C19.3736 17.363 19.2679 17.1091 19.1444 16.8211V16.8208Z" fill="#FEFEFE"/>
<path d="M27.4661 17.432C27.4661 17.8147 27.4636 18.1973 27.4677 18.5798C27.4686 18.6678 27.4478 18.7055 27.3531 18.6972C27.2618 18.6889 27.1685 18.6891 27.0769 18.6972C26.98 18.7055 26.952 18.6722 26.9532 18.5748C26.9581 18.1184 26.9554 17.6621 26.9554 17.2055C26.9554 16.9011 26.9584 16.5968 26.9534 16.2928C26.952 16.2036 26.9747 16.1682 27.068 16.1776C27.1954 16.1903 27.3623 16.1255 27.4409 16.2022C27.5203 16.2795 27.463 16.447 27.4647 16.5747C27.4683 16.8604 27.4658 17.1462 27.4658 17.4323L27.4661 17.432Z" fill="#FEFEFE"/>
<path d="M19.1441 16.8211C19.2676 17.1091 19.3733 17.3633 19.486 17.6141C19.5247 17.7008 19.4962 17.7163 19.4154 17.7149C19.2313 17.7119 19.0472 17.7144 18.8631 17.7135C18.8194 17.7135 18.7571 17.7238 18.7909 17.6443C18.9033 17.3799 19.0173 17.116 19.1441 16.8208V16.8211Z" fill="#DA0025"/>
</svg>
