<svg width="25" height="26" viewBox="0 0 25 26" fill="none" xmlns="http://www.w3.org/2000/svg">
<path fill-rule="evenodd" clip-rule="evenodd" d="M12.5 0.564453C5.59644 0.564453 0 6.16089 0 13.0645C0 19.968 5.59644 25.5645 12.5 25.5645C19.4036 25.5645 25 19.968 25 13.0645C25 6.16089 19.4036 0.564453 12.5 0.564453ZM9.75171 6.43806C10.4628 6.4057 10.6901 6.39779 12.5006 6.39779H12.4985C14.3097 6.39779 14.5361 6.4057 15.2472 6.43806C15.9569 6.47056 16.4416 6.58293 16.8666 6.74779C17.3055 6.91793 17.6764 7.14571 18.0472 7.51655C18.418 7.88711 18.6458 8.25906 18.8167 8.69753C18.9806 9.12143 19.0931 9.60588 19.1264 10.3156C19.1583 11.0267 19.1667 11.2539 19.1667 13.0645C19.1667 14.8751 19.1583 15.1018 19.1264 15.8129C19.0931 16.5223 18.9806 17.0069 18.8167 17.431C18.6458 17.8693 18.418 18.2412 18.0472 18.6118C17.6768 18.9826 17.3054 19.211 16.8671 19.3813C16.4429 19.5461 15.9579 19.6585 15.2482 19.691C14.537 19.7233 14.3105 19.7313 12.4998 19.7313C10.6894 19.7313 10.4623 19.7233 9.75115 19.691C9.04156 19.6585 8.55697 19.5461 8.1328 19.3813C7.6946 19.211 7.32265 18.9826 6.95223 18.6118C6.58154 18.2412 6.35375 17.8693 6.18334 17.4308C6.01861 17.0069 5.90625 16.5225 5.87361 15.8127C5.84139 15.1016 5.83333 14.8751 5.83333 13.0645C5.83333 11.2539 5.84167 11.0266 5.87347 10.3155C5.90542 9.60601 6.01792 9.12143 6.1832 8.69739C6.35403 8.25906 6.58181 7.88711 6.95265 7.51655C7.32321 7.14585 7.69516 6.91807 8.13363 6.74779C8.55753 6.58293 9.04198 6.47056 9.75171 6.43806Z" fill="#767F8F"/>
<path fill-rule="evenodd" clip-rule="evenodd" d="M11.9024 7.59932C12.0186 7.59914 12.1435 7.5992 12.2783 7.59926L12.5005 7.59932C14.2805 7.59932 14.4915 7.60571 15.1944 7.63766C15.8444 7.66738 16.1972 7.77599 16.4322 7.86724C16.7433 7.98808 16.9651 8.13252 17.1983 8.36586C17.4317 8.59919 17.5761 8.82142 17.6972 9.13253C17.7885 9.36726 17.8972 9.72004 17.9268 10.37C17.9587 11.0728 17.9657 11.2839 17.9657 13.0631C17.9657 14.8423 17.9587 15.0534 17.9268 15.7562C17.8971 16.4062 17.7885 16.759 17.6972 16.9937C17.5764 17.3048 17.4317 17.5264 17.1983 17.7596C16.965 17.9929 16.7435 18.1373 16.4322 18.2582C16.1975 18.3499 15.8444 18.4582 15.1944 18.4879C14.4916 18.5199 14.2805 18.5268 12.5005 18.5268C10.7203 18.5268 10.5094 18.5199 9.80657 18.4879C9.15657 18.4579 8.80379 18.3493 8.56864 18.258C8.25753 18.1372 8.03531 17.9928 7.80197 17.7594C7.56863 17.5261 7.42419 17.3044 7.30308 16.9932C7.21182 16.7584 7.10307 16.4057 7.07349 15.7557C7.04155 15.0529 7.03516 14.8418 7.03516 13.0615C7.03516 11.2812 7.04155 11.0712 7.07349 10.3684C7.10321 9.71837 7.21182 9.36559 7.30308 9.13059C7.42391 8.81947 7.56863 8.59725 7.80197 8.36391C8.03531 8.13058 8.25753 7.98613 8.56864 7.86502C8.80365 7.77335 9.15657 7.66502 9.80657 7.63516C10.4216 7.60738 10.6599 7.59905 11.9024 7.59766V7.59932ZM16.0591 8.70628C15.6175 8.70628 15.2591 9.0642 15.2591 9.50601C15.2591 9.94768 15.6175 10.306 16.0591 10.306C16.5008 10.306 16.8591 9.94768 16.8591 9.50601C16.8591 9.06434 16.5008 8.706 16.0591 8.706V8.70628ZM9.07684 13.0647C9.07684 11.174 10.6097 9.64109 12.5004 9.64101C14.3911 9.64101 15.9236 11.1739 15.9236 13.0647C15.9236 14.9554 14.3912 16.4876 12.5005 16.4876C10.6098 16.4876 9.07684 14.9554 9.07684 13.0647Z" fill="#767F8F"/>
<path d="M12.5015 10.8423C13.7288 10.8423 14.7238 11.8372 14.7238 13.0645C14.7238 14.2918 13.7288 15.2868 12.5015 15.2868C11.2742 15.2868 10.2793 14.2918 10.2793 13.0645C10.2793 11.8372 11.2742 10.8423 12.5015 10.8423Z" fill="#767F8F"/>
</svg>
