<svg width="97" height="33" viewBox="0 0 97 33" fill="none" xmlns="http://www.w3.org/2000/svg">
<path d="M88.9396 0.564557H8.45975C8.16639 0.564557 7.87655 0.564557 7.58397 0.566157C7.33905 0.567757 7.09608 0.572405 6.84881 0.576317C6.31162 0.582639 5.7757 0.629898 5.2457 0.717685C4.71644 0.807382 4.20376 0.976488 3.725 1.21928C3.24682 1.46413 2.8099 1.78229 2.43008 2.16221C2.04827 2.54106 1.73 2.97896 1.48751 3.45908C1.24435 3.93823 1.07574 4.4517 0.987511 4.98173C0.89844 5.51109 0.85051 6.04656 0.844151 6.58332C0.836727 6.8286 0.835943 7.0747 0.832031 7.32001V25.8114C0.835943 26.0598 0.836727 26.3004 0.844151 26.5489C0.850512 27.0856 0.898442 27.621 0.987511 28.1504C1.0755 28.6807 1.24412 29.1945 1.48751 29.6738C1.72989 30.1524 2.0482 30.5885 2.43008 30.9653C2.80846 31.3469 3.24567 31.6652 3.725 31.9082C4.20375 32.1517 4.71638 32.3218 5.2457 32.4129C5.77579 32.4999 6.31166 32.5472 6.84881 32.5543C7.09608 32.5597 7.33905 32.5629 7.58397 32.5629C7.87654 32.5645 8.16641 32.5645 8.45975 32.5645H88.9396C89.2271 32.5645 89.5192 32.5645 89.8068 32.5629C90.0505 32.5629 90.3005 32.5597 90.5443 32.5543C91.0804 32.5476 91.6153 32.5003 92.1443 32.4129C92.6753 32.3211 93.1898 32.1511 93.6708 31.9082C94.1497 31.6651 94.5865 31.3467 94.9646 30.9653C95.3455 30.587 95.6645 30.1512 95.9099 29.6738C96.1514 29.1941 96.3184 28.6804 96.4051 28.1504C96.4943 27.621 96.544 27.0857 96.5536 26.5489C96.5567 26.3004 96.5567 26.0598 96.5567 25.8114C96.563 25.5207 96.563 25.2317 96.563 24.9363V8.19344C96.563 7.90047 96.563 7.60985 96.5567 7.32001C96.5567 7.0747 96.5567 6.8286 96.5536 6.58329C96.544 6.04648 96.4943 5.51113 96.4051 4.98169C96.3182 4.45197 96.1512 3.93855 95.9099 3.45904C95.416 2.49671 94.633 1.71337 93.6708 1.21921C93.1898 0.97701 92.6752 0.807949 92.1443 0.717613C91.6154 0.629439 91.0804 0.582163 90.5443 0.576205C90.3005 0.572301 90.0505 0.567613 89.8068 0.566053C89.5192 0.564453 89.2271 0.564453 88.9396 0.564453V0.564557Z" fill="#2F3C51"/>
<path d="M7.58869 31.8646C7.34494 31.8646 7.10709 31.8614 6.86526 31.856C6.36428 31.8495 5.86448 31.8058 5.36995 31.7255C4.90882 31.6461 4.46212 31.4984 4.04456 31.2872C3.63084 31.0778 3.25349 30.8032 2.92697 30.4739C2.59572 30.1485 2.31994 29.7712 2.11056 29.3567C1.89887 28.9396 1.75237 28.4925 1.67616 28.031C1.59386 27.5351 1.54933 27.0336 1.54296 26.531C1.53789 26.3622 1.53125 25.8005 1.53125 25.8005V7.3201C1.53125 7.3201 1.53832 6.76697 1.543 6.60447C1.5491 6.10262 1.59337 5.60196 1.67543 5.10682C1.75178 4.64404 1.89839 4.19564 2.11019 3.77714C2.3188 3.363 2.59305 2.98533 2.9223 2.65879C3.25118 2.32914 3.62974 2.05313 4.04417 1.84081C4.46076 1.63032 4.90663 1.48363 5.36682 1.40566C5.86298 1.32452 6.36452 1.28065 6.86723 1.27442L7.58908 1.26465H89.8037L90.5341 1.27481C91.0323 1.28073 91.5293 1.32421 92.0209 1.40488C92.4857 1.48383 92.9362 1.63154 93.3576 1.84316C94.1878 2.27103 94.8634 2.94797 95.2896 3.7791C95.498 4.1947 95.6423 4.63944 95.7177 5.09823C95.8008 5.59743 95.8472 6.10202 95.8568 6.60799C95.8591 6.83455 95.8591 7.07791 95.8591 7.3201C95.8654 7.6201 95.8654 7.90564 95.8654 8.19353V24.9364C95.8654 25.2271 95.8654 25.5107 95.8591 25.7966C95.8591 26.0567 95.8591 26.295 95.856 26.5403C95.8466 27.0373 95.8009 27.5329 95.7192 28.0231C95.6446 28.488 95.4989 28.9386 95.2872 29.3591C95.0764 29.7691 94.8022 30.1432 94.4748 30.4677C94.1479 30.7987 93.7699 31.0749 93.3552 31.2857C92.9351 31.4985 92.4852 31.6467 92.0209 31.7255C91.5264 31.8063 91.0265 31.8499 90.5255 31.856C90.2912 31.8614 90.0458 31.8646 89.8076 31.8646L88.9404 31.8661L7.58869 31.8646Z" fill="black"/>
<path d="M20.6484 16.8048C20.657 16.1371 20.8343 15.4824 21.1639 14.9016C21.4936 14.3208 21.9647 13.8329 22.5336 13.4832C22.1722 12.967 21.6955 12.5423 21.1412 12.2426C20.5869 11.943 19.9704 11.7767 19.3407 11.757C17.9973 11.616 16.6949 12.5609 16.0104 12.5609C15.3126 12.5609 14.2586 11.771 13.1236 11.7944C12.3894 11.8181 11.674 12.0316 11.0469 12.414C10.4198 12.7965 9.90243 13.3348 9.54526 13.9767C7.99806 16.6554 9.15213 20.5922 10.6342 22.7575C11.3757 23.8178 12.2424 25.0021 13.3763 24.9601C14.486 24.9141 14.9004 24.2525 16.2398 24.2525C17.5668 24.2525 17.9556 24.9601 19.1126 24.9334C20.3033 24.9141 21.0535 23.8684 21.769 22.7981C22.3018 22.0426 22.7118 21.2077 22.9837 20.3241C22.292 20.0315 21.7016 19.5418 21.2863 18.916C20.8711 18.2901 20.6492 17.5559 20.6484 16.8048Z" fill="white"/>
<path d="M18.4625 10.333C19.1117 9.55365 19.4315 8.55191 19.3541 7.54053C18.3622 7.6447 17.446 8.11875 16.788 8.86821C16.4663 9.23434 16.2199 9.66029 16.0629 10.1217C15.9059 10.5831 15.8414 11.071 15.8731 11.5573C16.3692 11.5624 16.86 11.4549 17.3085 11.2428C17.757 11.0308 18.1516 10.7197 18.4625 10.333Z" fill="white"/>
<path d="M34.675 22.2761H30.8883L29.9789 24.9612H28.375L31.9617 15.0269H33.6281L37.2148 24.9612H35.5836L34.675 22.2761ZM31.2805 21.037H34.282L32.8024 16.6792H32.761L31.2805 21.037Z" fill="white"/>
<path d="M44.9613 21.3406C44.9613 23.5914 43.7566 25.0374 41.9387 25.0374C41.4782 25.0615 41.0202 24.9555 40.6171 24.7313C40.2141 24.5072 39.8823 24.1742 39.6598 23.7703H39.6254V27.3577H38.1387V17.7187H39.5778V18.9234H39.6051C39.8379 18.5214 40.1752 18.1901 40.5813 17.9646C40.9874 17.7391 41.4471 17.628 41.9113 17.6429C43.7496 17.6429 44.9613 19.0961 44.9613 21.3406ZM43.4332 21.3406C43.4332 19.8742 42.6754 18.9101 41.5191 18.9101C40.3832 18.9101 39.6192 19.8945 39.6192 21.3406C39.6192 22.8 40.3832 23.7773 41.5191 23.7773C42.6754 23.7773 43.4332 22.8203 43.4332 21.3406Z" fill="white"/>
<path d="M52.932 21.3406C52.932 23.5914 51.7273 25.0374 49.9094 25.0374C49.4489 25.0615 48.9909 24.9554 48.5878 24.7313C48.1848 24.5072 47.853 24.1742 47.6305 23.7702H47.5961V27.3577H46.1094V17.7187H47.5484V18.9234H47.5758C47.8085 18.5214 48.1459 18.1901 48.552 17.9646C48.9581 17.7391 49.4178 17.628 49.882 17.6429C51.7203 17.6429 52.932 19.0961 52.932 21.3406ZM51.4039 21.3406C51.4039 19.8742 50.6461 18.9101 49.4899 18.9101C48.3539 18.9101 47.5899 19.8945 47.5899 21.3406C47.5899 22.8 48.3539 23.7773 49.4899 23.7773C50.6461 23.7773 51.4039 22.8203 51.4039 21.3406H51.4039Z" fill="white"/>
<path d="M58.2016 22.1934C58.3117 23.1785 59.2688 23.8254 60.5766 23.8254C61.8297 23.8254 62.7313 23.1785 62.7313 22.2902C62.7313 21.5191 62.1875 21.0574 60.9 20.741L59.6125 20.4308C57.7883 19.9902 56.9414 19.1371 56.9414 17.7527C56.9414 16.0387 58.4352 14.8613 60.5563 14.8613C62.6555 14.8613 64.0945 16.0387 64.143 17.7527H62.6422C62.5523 16.7613 61.7328 16.1629 60.5352 16.1629C59.3375 16.1629 58.518 16.7684 58.518 17.6496C58.518 18.3519 59.0414 18.7652 60.3219 19.0816L61.4164 19.3504C63.4547 19.8324 64.3015 20.6511 64.3015 22.1042C64.3015 23.9628 62.8211 25.1269 60.4664 25.1269C58.2633 25.1269 56.7758 23.9902 56.6797 22.1933L58.2016 22.1934Z" fill="white"/>
<path d="M67.5098 16.0044V17.7185H68.8871V18.8958H67.5098V22.8887C67.5098 23.5091 67.7855 23.7981 68.391 23.7981C68.5545 23.7953 68.7178 23.7838 68.8801 23.7637V24.934C68.6078 24.9849 68.3312 25.0079 68.0543 25.0028C66.5879 25.0028 66.016 24.452 66.016 23.0473V18.8958H64.9629V17.7185H66.016V16.0044H67.5098Z" fill="white"/>
<path d="M69.6855 21.3403C69.6855 19.0614 71.0277 17.6294 73.1207 17.6294C75.2207 17.6294 76.5566 19.0614 76.5566 21.3403C76.5566 23.6255 75.2277 25.0512 73.1207 25.0512C71.0144 25.0512 69.6855 23.6255 69.6855 21.3403ZM75.0418 21.3403C75.0418 19.777 74.3254 18.8544 73.1207 18.8544C71.916 18.8544 71.2004 19.7841 71.2004 21.3403C71.2004 22.9098 71.916 23.8255 73.1207 23.8255C74.3254 23.8255 75.0417 22.9098 75.0417 21.3403H75.0418Z" fill="white"/>
<path d="M77.7813 17.7187H79.1992V18.9514H79.2336C79.3296 18.5664 79.5551 18.2262 79.8724 17.9878C80.1897 17.7495 80.5793 17.6277 80.9758 17.6429C81.1471 17.6423 81.318 17.6609 81.4852 17.6983V19.089C81.2689 19.0229 81.0432 18.9925 80.8172 18.9991C80.6012 18.9904 80.3859 19.0284 80.186 19.1107C79.9861 19.193 79.8064 19.3176 79.6593 19.4759C79.5121 19.6343 79.4009 19.8225 79.3334 20.0279C79.2658 20.2332 79.2435 20.4507 79.268 20.6655V24.9616H77.7812L77.7813 17.7187Z" fill="white"/>
<path d="M88.3402 22.8341C88.1402 24.1489 86.8597 25.0512 85.2215 25.0512C83.1144 25.0512 81.8066 23.6395 81.8066 21.3747C81.8066 19.1028 83.1215 17.6294 85.159 17.6294C87.1629 17.6294 88.423 19.0059 88.423 21.202V21.7114H83.3074V21.8013C83.2838 22.0678 83.3172 22.3363 83.4053 22.589C83.4935 22.8417 83.6344 23.0727 83.8186 23.2668C84.0029 23.4608 84.2264 23.6134 84.4742 23.7144C84.722 23.8155 84.9884 23.8627 85.2559 23.8528C85.6072 23.8857 85.9598 23.8044 86.2611 23.6208C86.5625 23.4373 86.7966 23.1613 86.9285 22.8341L88.3402 22.8341ZM83.3144 20.6724H86.9355C86.9489 20.4327 86.9125 20.1928 86.8288 19.9679C86.7451 19.7429 86.6157 19.5377 86.4489 19.3651C86.2821 19.1924 86.0814 19.0562 85.8594 18.9648C85.6374 18.8734 85.399 18.8289 85.159 18.8341C84.9169 18.8326 84.6769 18.8791 84.4528 18.9709C84.2288 19.0627 84.0252 19.198 83.8537 19.3689C83.6822 19.5398 83.5463 19.743 83.4537 19.9667C83.3612 20.1904 83.3138 20.4303 83.3144 20.6724V20.6724Z" fill="white"/>
<path d="M31.0934 7.54985C31.405 7.52748 31.7178 7.57457 32.0091 7.68772C32.3004 7.80086 32.5629 7.97725 32.7778 8.20415C32.9927 8.43104 33.1545 8.7028 33.2516 8.99982C33.3487 9.29683 33.3787 9.6117 33.3394 9.92171C33.3394 11.4467 32.5152 12.3233 31.0934 12.3233H29.3691V7.54985H31.0934ZM30.1105 11.6482H31.0105C31.2333 11.6615 31.4561 11.625 31.663 11.5413C31.8698 11.4576 32.0554 11.3289 32.2062 11.1644C32.357 11 32.4692 10.804 32.5347 10.5907C32.6002 10.3774 32.6173 10.1522 32.5847 9.93144C32.6149 9.71158 32.5961 9.48776 32.5296 9.27603C32.4631 9.0643 32.3506 8.8699 32.2001 8.70675C32.0497 8.54361 31.865 8.41576 31.6593 8.33237C31.4537 8.24899 31.2321 8.21212 31.0105 8.22442H30.1105V11.6482Z" fill="white"/>
<path d="M34.178 10.5205C34.1553 10.2837 34.1824 10.0449 34.2575 9.81922C34.3325 9.59357 34.4539 9.38609 34.6139 9.21011C34.7738 9.03412 34.9688 8.89351 35.1863 8.79729C35.4038 8.70107 35.639 8.65137 35.8768 8.65137C36.1146 8.65137 36.3498 8.70107 36.5673 8.79729C36.7847 8.89351 36.9797 9.03412 37.1397 9.21011C37.2996 9.38609 37.421 9.59357 37.4961 9.81922C37.5712 10.0449 37.5982 10.2837 37.5756 10.5205C37.5987 10.7574 37.5719 10.9966 37.497 11.2226C37.4222 11.4487 37.3008 11.6565 37.1408 11.8328C36.9809 12.0092 36.7857 12.1501 36.568 12.2465C36.3503 12.3429 36.1149 12.3928 35.8768 12.3928C35.6387 12.3928 35.4032 12.3429 35.1855 12.2465C34.9678 12.1501 34.7727 12.0092 34.6127 11.8328C34.4527 11.6565 34.3314 11.4487 34.2565 11.2226C34.1816 10.9966 34.1549 10.7574 34.178 10.5205ZM36.8443 10.5205C36.8443 9.73961 36.4936 9.28297 35.878 9.28297C35.26 9.28297 34.9124 9.73961 34.9124 10.5205C34.9124 11.3076 35.26 11.7607 35.878 11.7607C36.4936 11.7607 36.8444 11.3044 36.8444 10.5205H36.8443Z" fill="white"/>
<path d="M42.091 12.323H41.3535L40.609 9.66992H40.5527L39.8113 12.323H39.0809L38.0879 8.7207H38.809L39.4543 11.4695H39.5074L40.248 8.7207H40.9301L41.6707 11.4695H41.7269L42.3691 8.7207H43.0801L42.091 12.323Z" fill="white"/>
<path d="M43.916 8.72054H44.6004V9.2928H44.6535C44.7436 9.08727 44.8956 8.91497 45.0883 8.79993C45.281 8.68488 45.5048 8.63282 45.7285 8.65101C45.9038 8.63783 46.0798 8.66426 46.2435 8.72833C46.4071 8.79241 46.5543 8.89249 46.6741 9.02117C46.7938 9.14984 46.8831 9.30381 46.9352 9.47167C46.9874 9.63952 47.0011 9.81696 46.9754 9.99084V12.3228H46.2644V10.1694C46.2644 9.59047 46.0129 9.30257 45.4871 9.30257C45.3681 9.29703 45.2493 9.31729 45.1389 9.36195C45.0284 9.40661 44.9289 9.47463 44.8472 9.56134C44.7655 9.64805 44.7035 9.75139 44.6655 9.8643C44.6275 9.9772 44.6143 10.097 44.6269 10.2155V12.3229H43.916L43.916 8.72054Z" fill="white"/>
<path d="M48.1074 7.31445H48.8184V12.323H48.1074V7.31445Z" fill="white"/>
<path d="M49.8068 10.5205C49.7842 10.2838 49.8113 10.0449 49.8864 9.81925C49.9615 9.59359 50.0829 9.38611 50.2429 9.21012C50.4029 9.03413 50.5978 8.89351 50.8153 8.79729C51.0328 8.70107 51.268 8.65137 51.5059 8.65137C51.7437 8.65137 51.9789 8.70107 52.1964 8.79729C52.4139 8.89351 52.6089 9.03413 52.7688 9.21012C52.9288 9.38611 53.0502 9.59359 53.1253 9.81925C53.2004 10.0449 53.2275 10.2838 53.2049 10.5205C53.2279 10.7575 53.2011 10.9967 53.1262 11.2227C53.0514 11.4487 52.93 11.6566 52.77 11.8329C52.61 12.0092 52.4149 12.1501 52.1971 12.2466C51.9794 12.343 51.744 12.3928 51.5059 12.3928C51.2678 12.3928 51.0323 12.343 50.8146 12.2466C50.5969 12.1501 50.4017 12.0092 50.2417 11.8329C50.0817 11.6566 49.9604 11.4487 49.8855 11.2227C49.8106 10.9967 49.7838 10.7575 49.8068 10.5205ZM52.4732 10.5205C52.4732 9.73968 52.1225 9.28304 51.5068 9.28304C50.8889 9.28304 50.5412 9.73968 50.5412 10.5205C50.5412 11.3076 50.8889 11.7608 51.5068 11.7608C52.1225 11.7608 52.4732 11.3045 52.4732 10.5205H52.4732Z" fill="white"/>
<path d="M53.9531 11.3045C53.9531 10.656 54.4359 10.2822 55.293 10.2291L56.2687 10.1728V9.86191C56.2687 9.48144 56.0172 9.2666 55.5312 9.2666C55.1344 9.2666 54.8594 9.4123 54.7805 9.66699H54.0922C54.1648 9.04824 54.7469 8.65137 55.5641 8.65137C56.4672 8.65137 56.9766 9.10097 56.9766 9.86191V12.3232H56.2922V11.817H56.2359C56.1218 11.9986 55.9614 12.1466 55.7713 12.246C55.5812 12.3453 55.3682 12.3925 55.1539 12.3826C55.0027 12.3983 54.8498 12.3822 54.7052 12.3352C54.5606 12.2883 54.4275 12.2115 54.3143 12.1099C54.2012 12.0084 54.1106 11.8842 54.0484 11.7455C53.9862 11.6067 53.9537 11.4565 53.9531 11.3045ZM56.2687 10.9967V10.6955L55.3891 10.7517C54.893 10.7849 54.668 10.9537 54.668 11.2713C54.668 11.5955 54.9492 11.7842 55.336 11.7842C55.4493 11.7956 55.5637 11.7842 55.6725 11.7505C55.7813 11.7168 55.8823 11.6616 55.9693 11.5882C56.0563 11.5147 56.1277 11.4245 56.1791 11.3228C56.2306 11.2212 56.261 11.1103 56.2687 10.9967Z" fill="white"/>
<path d="M57.9102 10.5203C57.9102 9.38204 58.4953 8.66094 59.4055 8.66094C59.6306 8.65057 59.854 8.70449 60.0497 8.81641C60.2453 8.92832 60.405 9.09361 60.5101 9.29294H60.5633V7.31445H61.2742V12.323H60.593V11.7539H60.5367C60.4234 11.9519 60.2581 12.1151 60.0587 12.2259C59.8593 12.3367 59.6334 12.3908 59.4055 12.3824C58.4891 12.3824 57.9102 11.6613 57.9102 10.5203ZM58.6446 10.5203C58.6446 11.2844 59.0047 11.7441 59.6071 11.7441C60.2063 11.7441 60.5766 11.2777 60.5766 10.5234C60.5766 9.77266 60.2024 9.29961 59.6071 9.29961C59.0086 9.29961 58.6445 9.7625 58.6445 10.5203H58.6446Z" fill="white"/>
<path d="M64.217 10.5205C64.1944 10.2837 64.2215 10.0449 64.2965 9.81922C64.3716 9.59357 64.493 9.38609 64.653 9.21011C64.8129 9.03412 65.0079 8.89351 65.2254 8.79729C65.4428 8.70107 65.678 8.65137 65.9158 8.65137C66.1537 8.65137 66.3888 8.70107 66.6063 8.79729C66.8238 8.89351 67.0188 9.03412 67.1787 9.21011C67.3387 9.38609 67.4601 9.59357 67.5352 9.81922C67.6102 10.0449 67.6373 10.2837 67.6147 10.5205C67.6377 10.7574 67.611 10.9966 67.5361 11.2226C67.4612 11.4487 67.3399 11.6565 67.1799 11.8328C67.0199 12.0092 66.8248 12.1501 66.6071 12.2465C66.3894 12.3429 66.1539 12.3928 65.9158 12.3928C65.6777 12.3928 65.4423 12.3429 65.2246 12.2465C65.0069 12.1501 64.8118 12.0092 64.6518 11.8328C64.4918 11.6565 64.3704 11.4487 64.2956 11.2226C64.2207 10.9966 64.1939 10.7574 64.217 10.5205ZM66.8834 10.5205C66.8834 9.73961 66.5326 9.28297 65.917 9.28297C65.299 9.28297 64.9514 9.73961 64.9514 10.5205C64.9514 11.3076 65.2991 11.7607 65.917 11.7607C66.5326 11.7607 66.8834 11.3044 66.8834 10.5205Z" fill="white"/>
<path d="M68.5684 8.72054H69.2527V9.2928H69.3059C69.396 9.08727 69.548 8.91497 69.7407 8.79993C69.9334 8.68488 70.1572 8.63282 70.3809 8.65101C70.5561 8.63783 70.7321 8.66426 70.8958 8.72833C71.0595 8.79241 71.2067 8.89249 71.3264 9.02117C71.4461 9.14984 71.5354 9.30381 71.5876 9.47167C71.6397 9.63952 71.6535 9.81696 71.6277 9.99084V12.3228H70.9168V10.1694C70.9168 9.59047 70.6652 9.30257 70.1395 9.30257C70.0204 9.29703 69.9016 9.31729 69.7912 9.36195C69.6808 9.40661 69.5813 9.47463 69.4996 9.56134C69.4179 9.64805 69.3559 9.75139 69.3179 9.8643C69.2798 9.9772 69.2667 10.097 69.2793 10.2155V12.3229H68.5684V8.72054Z" fill="white"/>
<path d="M75.6449 7.82373V8.73701H76.4254V9.33584H75.6449V11.1882C75.6449 11.5655 75.8004 11.7307 76.1543 11.7307C76.2449 11.7305 76.3354 11.725 76.4254 11.7143V12.3065C76.2977 12.3294 76.1684 12.3415 76.0387 12.3429C75.248 12.3429 74.9332 12.0647 74.9332 11.3702V9.33581H74.3613V8.73698H74.9332V7.82373H75.6449Z" fill="white"/>
<path d="M77.3965 7.31445H78.1012V9.29961H78.1574C78.2519 9.09215 78.4081 8.91888 78.6047 8.8034C78.8012 8.68792 79.0286 8.63586 79.2558 8.6543C79.4302 8.64481 79.6045 8.67392 79.7663 8.73955C79.9281 8.80519 80.0735 8.90572 80.192 9.03399C80.3105 9.16226 80.3992 9.31511 80.4518 9.48161C80.5045 9.64812 80.5197 9.82419 80.4964 9.99726V12.323H79.7848V10.1726C79.7848 9.59725 79.5168 9.30585 79.0145 9.30585C78.8923 9.29583 78.7694 9.31262 78.6544 9.35507C78.5393 9.39751 78.435 9.46457 78.3486 9.55156C78.2622 9.63855 78.1958 9.74337 78.1542 9.85868C78.1125 9.97399 78.0966 10.097 78.1075 10.2191V12.323H77.3965L77.3965 7.31445Z" fill="white"/>
<path d="M84.6407 11.3506C84.5442 11.6799 84.3349 11.9647 84.0495 12.1552C83.7642 12.3457 83.4209 12.4298 83.0798 12.3928C82.8425 12.3991 82.6066 12.3536 82.3886 12.2596C82.1706 12.1656 81.9757 12.0252 81.8174 11.8483C81.659 11.6714 81.5411 11.4622 81.4718 11.2351C81.4024 11.0081 81.3833 10.7686 81.4158 10.5335C81.3841 10.2975 81.4036 10.0576 81.4728 9.82986C81.542 9.60213 81.6593 9.39191 81.8168 9.21346C81.9743 9.035 82.1683 8.89246 82.3856 8.79549C82.603 8.69853 82.8387 8.6494 83.0767 8.65143C84.079 8.65143 84.6837 9.33622 84.6837 10.4674V10.7155H82.14V10.7553C82.1288 10.8875 82.1455 11.0206 82.1887 11.146C82.232 11.2714 82.3011 11.3864 82.3914 11.4835C82.4817 11.5807 82.5914 11.6579 82.7133 11.7102C82.8352 11.7625 82.9667 11.7888 83.0993 11.7873C83.2694 11.8077 83.4417 11.7771 83.5943 11.6994C83.7469 11.6216 83.8729 11.5002 83.9564 11.3506L84.6407 11.3506ZM82.1399 10.1897H83.9595C83.9684 10.0688 83.952 9.94736 83.9112 9.83319C83.8705 9.71901 83.8063 9.61463 83.7228 9.52674C83.6393 9.43886 83.5383 9.36941 83.4263 9.32287C83.3144 9.27633 83.194 9.25373 83.0728 9.25651C82.9498 9.25496 82.8278 9.27805 82.7139 9.3244C82.6 9.37076 82.4965 9.43945 82.4096 9.52642C82.3227 9.61339 82.254 9.71688 82.2077 9.8308C82.1614 9.94471 82.1384 10.0667 82.14 10.1897H82.1399Z" fill="white"/>
</svg>
