<svg width="26" height="26" viewBox="0 0 26 26" fill="none" xmlns="http://www.w3.org/2000/svg">
<path fill-rule="evenodd" clip-rule="evenodd" d="M12.6982 0.5C5.79468 0.5 0.198242 6.09644 0.198242 13C0.198242 19.9036 5.79468 25.5 12.6982 25.5C19.6018 25.5 25.1982 19.9036 25.1982 13C25.1982 6.09644 19.6018 0.5 12.6982 0.5ZM6.19908 10.853H9.03186V19.3644H6.19908V10.853ZM9.21843 8.22016C9.20005 7.38563 8.60327 6.75 7.6342 6.75C6.66512 6.75 6.03158 7.38563 6.03158 8.22016C6.03158 9.0374 6.6464 9.69133 7.59742 9.69133H7.61553C8.60327 9.69133 9.21843 9.0374 9.21843 8.22016ZM15.9863 10.6532C17.8504 10.6532 19.2479 11.8699 19.2479 14.4842L19.2478 19.3644H16.4151V14.8108C16.4151 13.667 16.0052 12.8866 14.9798 12.8866C14.1971 12.8866 13.731 13.4127 13.5263 13.9209C13.4514 14.103 13.433 14.3568 13.433 14.6112V19.3646H10.5999C10.5999 19.3646 10.6372 11.6519 10.5999 10.8533H13.433V12.0588C13.8089 11.4793 14.4823 10.6532 15.9863 10.6532Z" fill="#767F8F"/>
</svg>
