<svg width="35" height="36" viewBox="0 0 35 36" fill="none" xmlns="http://www.w3.org/2000/svg">
<circle r="16.75" transform="matrix(-1 0 0 1 17.5 18)" stroke="white" stroke-width="1.5"/>
<path d="M12.6525 17.0276H20.0255L16.8199 13.8316C16.6369 13.6487 16.5342 13.4006 16.5342 13.1419C16.5342 12.8832 16.6369 12.6351 16.8199 12.4522C17.0028 12.2693 17.2509 12.1665 17.5096 12.1665C17.7683 12.1665 18.0164 12.2693 18.1993 12.4522L23.0564 17.3093C23.1448 17.4017 23.2141 17.5106 23.2604 17.6299C23.3575 17.8664 23.3575 18.1316 23.2604 18.3681C23.2141 18.4874 23.1448 18.5963 23.0564 18.6887L18.1993 23.5458C18.109 23.6369 18.0015 23.7091 17.8832 23.7585C17.7648 23.8078 17.6378 23.8332 17.5096 23.8332C17.3813 23.8332 17.2544 23.8078 17.136 23.7585C17.0176 23.7091 16.9102 23.6369 16.8199 23.5458C16.7288 23.4555 16.6565 23.3481 16.6072 23.2297C16.5579 23.1113 16.5325 22.9844 16.5325 22.8561C16.5325 22.7279 16.5579 22.6009 16.6072 22.4825C16.6565 22.3642 16.7288 22.2567 16.8199 22.1664L20.0255 18.9704H12.6525C12.3948 18.9704 12.1477 18.8681 11.9656 18.6859C11.7834 18.5037 11.681 18.2566 11.681 17.999C11.681 17.7414 11.7834 17.4943 11.9656 17.3121C12.1477 17.1299 12.3948 17.0276 12.6525 17.0276Z" fill="white"/>
</svg>
