<svg width="108" height="33" viewBox="0 0 108 33" fill="none" xmlns="http://www.w3.org/2000/svg">
<path d="M103.408 32.5645H4.51843C2.34201 32.5645 0.5625 30.765 0.5625 28.5642V4.56466C0.5625 2.36388 2.34201 0.564453 4.51843 0.564453H103.408C105.583 0.564453 107.364 2.36388 107.364 4.56466V28.5642C107.363 30.765 105.583 32.5645 103.408 32.5645Z" fill="#100F0D"/>
<path d="M103.408 0.56613H4.51843C2.34366 0.56613 0.5625 2.36555 0.5625 4.56634V28.5642C0.5625 30.765 2.34201 32.5645 4.51843 32.5645H103.408C105.583 32.5645 107.364 30.765 107.364 28.5642V4.56466C107.363 2.36555 105.583 0.56613 103.408 0.56613ZM103.408 1.20496C105.241 1.20496 106.731 2.71172 106.731 4.56466V28.5642C106.731 30.4172 105.241 31.924 103.408 31.924H4.51843C2.686 31.924 1.19591 30.4172 1.19591 28.5642V4.56466C1.19591 2.71172 2.686 1.20496 4.51843 1.20496H103.408Z" fill="#2F3C51"/>
<path d="M16.9522 16.1038L8.5293 25.1444C8.5293 25.1461 8.53095 25.1477 8.53095 25.1494C8.78895 26.1311 9.67539 26.8535 10.7289 26.8535C11.1489 26.8535 11.5442 26.7381 11.8832 26.5374L11.9097 26.5207L21.391 20.9887L16.9522 16.1038Z" fill="#D8432B"/>
<path d="M25.4721 14.5654L25.4638 14.5603L21.3706 12.1605L16.7598 16.3096L21.3871 20.9888L25.4588 18.6124C26.1733 18.2227 26.6579 17.4618 26.6579 16.5839C26.6579 15.7126 26.1799 14.9567 25.4721 14.5654Z" fill="#FBC81D"/>
<path d="M8.5289 7.98812C8.47763 8.17709 8.45117 8.37443 8.45117 8.58012V24.5525C8.45117 24.7582 8.47763 24.9556 8.5289 25.1445L17.2412 16.3364L8.5289 7.98812Z" fill="#3371C1"/>
<path d="M17.0153 16.5654L21.3748 12.1588L11.905 6.60672C11.561 6.39767 11.1592 6.27727 10.7292 6.27727C9.67735 6.27727 8.78925 7.00138 8.53125 7.98471V7.98639L17.0153 16.5654Z" fill="#32A472"/>
<path d="M38.0751 8.76041C38.0751 9.43102 37.8783 9.96449 37.4863 10.3625C37.0398 10.8358 36.4576 11.0732 35.7432 11.0732C35.0585 11.0732 34.4747 10.8341 33.9968 10.3525C33.5171 9.87251 33.2773 9.27716 33.2773 8.56642C33.2773 7.85568 33.5171 7.26034 33.9968 6.78038C34.4764 6.30042 35.0585 6.0596 35.7432 6.0596C36.0839 6.0596 36.408 6.1265 36.7173 6.26028C37.0265 6.39407 37.2746 6.57301 37.4598 6.7971L37.0431 7.21853C36.7289 6.83891 36.2956 6.64826 35.7432 6.64826C35.2437 6.64826 34.8121 6.82553 34.4466 7.18174C34.0811 7.53794 33.8992 7.99783 33.8992 8.56642C33.8992 9.13334 34.0811 9.5949 34.4466 9.95111C34.8121 10.3073 35.2437 10.4846 35.7432 10.4846C36.2741 10.4846 36.7156 10.3056 37.0695 9.94777C37.2994 9.71531 37.4317 9.39088 37.4681 8.97614H35.7448V8.39919H38.0453C38.0635 8.52294 38.0751 8.64335 38.0751 8.76041Z" fill="white"/>
<path d="M41.7227 6.75539H39.5611V8.27721H41.5093V8.85416H39.5595V10.376H41.721V10.9663H38.9492V6.16673H41.721V6.75539" fill="white"/>
<path d="M44.294 10.9644H43.6838V6.75511H42.3574V6.16477H45.6188V6.75511H44.2924L44.294 10.9644Z" fill="white"/>
<path d="M47.9805 10.9644V6.16477H48.5907V10.9644H47.9805Z" fill="white"/>
<path d="M51.294 10.9644H50.6838V6.75511H49.3574V6.16477H52.6188V6.75511H51.2924L51.294 10.9644Z" fill="white"/>
<path d="M55.7646 9.94275C56.1169 10.3023 56.5452 10.4829 57.0546 10.4829C57.5623 10.4829 57.994 10.304 58.3446 9.94275C58.6969 9.5832 58.8722 9.12331 58.8722 8.56475C58.8722 8.00619 58.6952 7.5463 58.3446 7.18675C57.994 6.8272 57.564 6.64659 57.0546 6.64659C56.5469 6.64659 56.1169 6.82553 55.7646 7.18675C55.414 7.5463 55.2371 8.00619 55.2371 8.56475C55.2371 9.12331 55.414 9.5832 55.7646 9.94275ZM58.7961 10.3458C58.3297 10.8308 57.7492 11.0732 57.0546 11.0732C56.3617 11.0732 55.7812 10.8308 55.3148 10.3458C54.8484 9.8608 54.6152 9.26713 54.6152 8.56642C54.6152 7.86572 54.8484 7.27204 55.3148 6.78707C55.7812 6.30209 56.3617 6.0596 57.0546 6.0596C57.7443 6.0596 58.3231 6.30376 58.7928 6.79041C59.2608 7.27706 59.4957 7.86906 59.4957 8.56642C59.494 9.26713 59.2608 9.8608 58.7961 10.3458Z" fill="white"/>
<path d="M60.3516 10.9646V6.16506H61.0941L63.4012 9.89936H63.4277L63.4012 8.97457V6.16673H64.0115V10.9663H63.3747L60.9618 7.05139H60.9354L60.9618 7.97619V10.9663L60.3516 10.9646Z" fill="white"/>
<path d="M85.1609 24.5654H86.6361V14.5649H85.1609V24.5654ZM98.4576 18.1671L96.7641 22.5018H96.7129L94.9565 18.1654H93.3655L96.0017 24.2259L94.5 27.5973H96.0397L100.098 18.1671H98.4576ZM90.0844 23.4282C89.6014 23.4282 88.9267 23.1841 88.9267 22.5787C88.9267 21.8061 89.7668 21.5101 90.4912 21.5101C91.1395 21.5101 91.4454 21.6522 91.8391 21.8445C91.7266 22.7727 90.9377 23.4282 90.0844 23.4282ZM90.263 17.948C89.1946 17.948 88.0865 18.4246 87.6284 19.4799L88.9399 20.0334C89.2194 19.4799 89.742 19.3009 90.2878 19.3009C91.0518 19.3009 91.8275 19.7642 91.8407 20.5869V20.6906C91.5728 20.5368 91.0006 20.3043 90.301 20.3043C88.8886 20.3043 87.4515 21.0886 87.4515 22.5553C87.4515 23.8931 88.6091 24.7561 89.9074 24.7561C90.8997 24.7561 91.4471 24.3062 91.7911 23.7777H91.8424V24.5504H93.268V20.7157C93.2663 18.938 91.9548 17.948 90.263 17.948ZM81.1405 19.3845H79.0418V15.9563H81.1405C82.2436 15.9563 82.8704 16.8811 82.8704 17.6704C82.8704 18.4447 82.2436 19.3845 81.1405 19.3845ZM81.1025 14.5632H77.565V24.5637H79.0418V20.7742H81.1025C82.7397 20.7742 84.3473 19.5769 84.3473 17.6687C84.3473 15.7606 82.7381 14.5632 81.1025 14.5632ZM61.814 23.4316C60.7952 23.4316 59.9402 22.5687 59.9402 21.383C59.9402 20.1839 60.7936 19.3076 61.814 19.3076C62.8212 19.3076 63.6117 20.1839 63.6117 21.383C63.61 22.567 62.8195 23.4316 61.814 23.4316ZM63.5092 18.7273H63.4579C63.1271 18.3276 62.4888 17.9664 61.6866 17.9664C60.0047 17.9664 58.4617 19.4615 58.4617 21.3813C58.4617 23.2894 60.0047 24.7711 61.6866 24.7711C62.4904 24.7711 63.1271 24.4099 63.4579 23.9985H63.5092V24.4885C63.5092 25.7896 62.8212 26.4869 61.7115 26.4869C60.8068 26.4869 60.2462 25.8297 60.0163 25.2762L58.7296 25.818C59.1001 26.7194 60.0808 27.8281 61.7115 27.8281C63.4447 27.8281 64.9099 26.798 64.9099 24.2845V18.1754H63.5075V18.7273H63.5092ZM65.9303 24.5654H67.4089V14.5649H65.9303V24.5654ZM69.5886 21.2659C69.5505 19.9515 70.5958 19.2809 71.3482 19.2809C71.9354 19.2809 72.4315 19.5769 72.5969 20.0033L69.5886 21.2659ZM74.1763 20.1321C73.8951 19.3712 73.0418 17.9664 71.2953 17.9664C69.5621 17.9664 68.1217 19.3461 68.1217 21.3679C68.1217 23.276 69.5489 24.7711 71.4607 24.7711C73.0037 24.7711 73.8951 23.8179 74.2639 23.2627L73.1162 22.4901C72.7342 23.057 72.2115 23.4316 71.4591 23.4316C70.7066 23.4316 70.1724 23.0837 69.8284 22.3997L74.3268 20.5184L74.1763 20.1321ZM38.3314 19.0099V20.4532H41.7466C41.644 21.2642 41.3778 21.8579 40.9693 22.271C40.4715 22.7743 39.6942 23.3279 38.3314 23.3279C36.2278 23.3279 34.5839 21.6138 34.5839 19.4882C34.5839 17.361 36.2278 15.6469 38.3314 15.6469C39.466 15.6469 40.2945 16.0984 40.9064 16.6787L41.9136 15.6603C41.0602 14.8358 39.9257 14.2037 38.3314 14.2037C35.4505 14.2037 33.0293 16.575 33.0293 19.4882C33.0293 22.4014 35.4505 24.7728 38.3314 24.7728C39.886 24.7728 41.0586 24.2577 41.9765 23.2911C42.9191 22.3379 43.2135 20.9967 43.2135 19.9147C43.2135 19.5802 43.1887 19.2708 43.1374 19.0133H38.3314V19.0099ZM47.0967 23.4316C46.0763 23.4316 45.1981 22.5804 45.1981 21.3696C45.1981 20.1454 46.0779 19.3076 47.0967 19.3076C48.1154 19.3076 48.9953 20.1454 48.9953 21.3696C48.9953 22.5804 48.1171 23.4316 47.0967 23.4316ZM47.0967 17.9664C45.2361 17.9664 43.7196 19.3962 43.7196 21.3679C43.7196 23.3262 45.2361 24.7711 47.0967 24.7711C48.9572 24.7711 50.4738 23.3279 50.4738 21.3679C50.4738 19.3962 48.9572 17.9664 47.0967 17.9664ZM54.4644 23.4316C53.444 23.4316 52.5658 22.5804 52.5658 21.3696C52.5658 20.1454 53.4457 19.3076 54.4644 19.3076C55.4832 19.3076 56.363 20.1454 56.363 21.3696C56.363 22.5804 55.4848 23.4316 54.4644 23.4316ZM54.4644 17.9664C52.6039 17.9664 51.0873 19.3962 51.0873 21.3679C51.0873 23.3262 52.6039 24.7711 54.4644 24.7711C56.325 24.7711 57.8415 23.3279 57.8415 21.3679C57.8415 19.3962 56.325 17.9664 54.4644 17.9664Z" fill="white"/>
</svg>
