<svg width="288" height="240" viewBox="0 0 288 240" fill="none" xmlns="http://www.w3.org/2000/svg">
<rect opacity="0.2" width="288" height="240" rx="10" fill="#D9D9D9"/>
<g opacity="0.05">
<path d="M144.276 88.2937C144.791 88.2465 145.072 88.4235 145.178 88.7892C145.271 89.1195 145.353 89.4617 145.47 89.792C145.74 90.5589 146.033 91.314 146.29 92.0691C146.524 92.7415 146.735 93.4258 146.969 94.0983C147.321 95.0776 147.707 96.045 148.059 97.0242C148.211 97.4372 148.316 97.8737 148.457 98.2984C148.75 99.1951 149.007 100.104 149.37 100.965C149.593 101.484 149.71 102.027 149.932 102.546C150.295 103.395 150.53 104.292 150.846 105.165C151.15 106.014 151.467 106.864 151.748 107.713C151.97 108.409 152.286 109.07 152.544 109.766C152.673 110.108 152.743 110.474 152.86 110.828C153.165 111.748 153.469 112.657 153.797 113.565C154.043 114.226 154.336 114.875 154.582 115.535C154.816 116.184 155.015 116.857 155.238 117.517C155.484 118.225 155.753 118.921 156.011 119.618C156.163 120.03 156.28 120.467 156.432 120.88C156.596 121.352 156.678 121.847 156.959 122.284C157.135 122.567 157.158 122.945 157.264 123.275C157.58 124.231 157.884 125.186 158.224 126.13C158.458 126.803 158.751 127.44 159.009 128.1C159.149 128.478 159.243 128.879 159.383 129.257C159.547 129.705 159.735 130.153 159.899 130.601C160.039 130.979 160.145 131.38 160.274 131.769C160.531 132.513 160.801 133.256 161.07 133.999C161.292 134.648 161.515 135.309 161.737 135.958C162.007 136.725 162.3 137.48 162.557 138.247C162.803 138.943 163.014 139.639 163.248 140.335C163.717 141.703 164.829 142.647 166.328 142.742C166.633 142.765 166.926 142.871 167.218 142.954C167.312 142.978 167.406 143.013 167.499 143.037C168.202 143.143 168.916 143.249 169.619 143.355C169.771 143.379 169.912 143.438 170.064 143.485C170.193 143.52 170.322 143.615 170.451 143.603C171.2 143.544 171.903 143.815 172.606 143.969C173.378 144.146 174.187 144.122 174.924 144.464C175.041 144.523 175.194 144.488 175.323 144.523C175.744 144.606 176.154 144.688 176.576 144.771C176.728 144.795 176.88 144.806 177.032 144.842C177.278 144.889 177.513 144.96 177.758 145.007C178.028 145.054 178.297 145.089 178.567 145.113C178.894 145.137 179.211 145.148 179.515 145.337C179.972 145.609 180.382 145.455 180.698 145.019C181.354 144.087 181.869 143.072 182.478 142.116C182.982 141.314 183.333 140.441 183.79 139.627C184.223 138.86 184.469 137.999 184.809 137.173C185.055 136.56 185.336 135.97 185.57 135.356C185.722 134.955 185.828 134.542 185.933 134.129C186.05 133.681 186.284 133.268 186.308 132.784C186.319 132.513 186.483 132.241 186.577 131.97C186.741 131.51 186.788 131.026 186.858 130.542C186.94 129.953 187.151 129.386 187.315 128.808C187.327 128.749 187.373 128.702 187.373 128.643C187.338 127.487 187.854 126.39 187.772 125.21C187.748 124.797 187.889 124.372 187.947 123.947C187.971 123.77 187.994 123.593 187.994 123.416C187.994 121.47 187.994 119.523 187.994 117.588C187.994 117.47 188.018 117.34 187.971 117.234C187.678 116.597 187.795 115.925 187.736 115.264C187.701 114.863 187.596 114.462 187.514 114.061C187.502 113.978 187.467 113.907 187.455 113.836C187.35 113.105 187.245 112.374 187.128 111.642C187.092 111.418 186.999 111.194 186.94 110.97C186.905 110.863 186.858 110.745 186.846 110.639C186.811 109.943 186.612 109.306 186.319 108.681C186.296 108.634 186.284 108.563 186.273 108.516C186.237 107.678 185.851 106.946 185.605 106.18C185.195 104.941 184.668 103.737 184.141 102.534C183.696 101.519 183.204 100.516 182.666 99.549C182.15 98.617 181.518 97.7439 180.979 96.8355C179.808 94.8534 178.321 93.1191 176.857 91.373C175.463 89.7212 173.87 88.2937 172.242 86.9015C170.943 85.7925 169.525 84.8369 168.108 83.8694C167.078 83.1733 166.012 82.5244 164.876 81.9935C163.974 81.5806 163.143 81.0379 162.241 80.6132C161.655 80.33 161.011 80.1766 160.402 79.9525C160.098 79.8345 159.805 79.6811 159.501 79.5749C158.938 79.3744 158.411 79.103 157.814 78.9968C157.404 78.926 157.018 78.7137 156.631 78.5721C156.573 78.5485 156.526 78.5249 156.467 78.5131C155.929 78.3951 155.378 78.2889 154.839 78.1592C154.184 78.0058 153.54 77.817 152.884 77.6518C152.731 77.6164 152.579 77.6047 152.415 77.5929C151.912 77.5575 151.396 77.6047 150.94 77.3215C150.904 77.2979 150.869 77.2979 150.823 77.2979C149.897 77.2035 148.972 77.0383 148.047 77.0265C145.705 76.9912 143.362 76.9912 141.032 77.0265C140.376 77.0383 139.72 77.1917 139.076 77.2507C138.654 77.2861 138.221 77.2861 137.823 77.4749C137.659 77.5575 137.448 77.5457 137.249 77.5575C136.792 77.6047 136.336 77.6047 135.879 77.7816C135.34 77.994 134.743 78.0176 134.181 78.1592C133.537 78.3243 132.893 78.5131 132.248 78.6901C131.827 78.8081 131.393 78.9142 130.972 79.044C130.55 79.1738 130.14 79.339 129.73 79.4923C128.817 79.8463 127.904 80.1884 127.002 80.5542C126.545 80.7429 126.1 80.9671 125.655 81.2031C124.999 81.5452 124.355 81.9109 123.711 82.2767C123.078 82.6306 122.423 82.961 121.814 83.3503C120.666 84.0936 119.518 84.8251 118.429 85.6391C117.445 86.3706 116.52 87.1729 115.607 87.9987C114.728 88.7892 113.862 89.5797 113.077 90.4527C111.859 91.8095 110.594 93.1427 109.61 94.6882C109.306 95.1719 108.896 95.5967 108.58 96.0686C108.147 96.7175 107.725 97.3664 107.327 98.0389C106.87 98.8175 106.437 99.608 106.027 100.41C105.746 100.953 105.512 101.519 105.242 102.074C105.008 102.581 104.727 103.065 104.516 103.572C104.247 104.233 104.012 104.905 103.767 105.566C103.649 105.873 103.521 106.168 103.415 106.474C103.146 107.3 102.865 108.114 102.631 108.952C102.467 109.507 102.396 110.096 102.267 110.663C102.127 111.3 101.963 111.949 101.811 112.586C101.764 112.775 101.74 112.963 101.705 113.164C101.635 113.542 101.553 113.919 101.495 114.308C101.459 114.544 101.436 114.78 101.424 115.004C101.377 115.76 101.459 116.538 101.19 117.27C101.108 117.506 101.12 117.777 101.12 118.025C101.108 119.676 101.108 121.328 101.12 122.968C101.12 123.357 101.237 123.735 101.284 124.124C101.331 124.514 101.366 124.903 101.401 125.292C101.448 125.977 101.342 126.661 101.647 127.322C101.717 127.487 101.682 127.711 101.705 127.9C101.752 128.23 101.822 128.549 101.881 128.879C101.916 129.091 101.951 129.304 102.01 129.516C102.08 129.776 102.162 130.023 102.232 130.283C102.244 130.342 102.267 130.401 102.279 130.448C102.396 131.062 102.49 131.675 102.642 132.277C102.759 132.761 102.97 133.221 103.122 133.693C103.228 134.023 103.322 134.365 103.427 134.695C103.626 135.285 103.825 135.863 104.048 136.442C104.329 137.173 104.633 137.916 104.949 138.636C105.16 139.131 105.394 139.615 105.652 140.099C106.202 141.137 106.753 142.175 107.338 143.19C107.725 143.862 108.147 144.511 108.568 145.148C108.767 145.443 109.236 145.526 109.622 145.302C109.927 145.125 110.243 145.078 110.571 145.078C110.934 145.066 111.285 145.019 111.648 144.889C112.117 144.736 112.632 144.688 113.112 144.57C113.873 144.37 114.681 144.37 115.443 144.169C116.134 143.98 116.871 144.004 117.527 143.686C117.562 143.674 117.598 143.65 117.644 143.662C118.441 143.733 119.19 143.461 119.928 143.273C120.701 143.072 121.521 143.166 122.247 142.789C122.387 142.718 122.587 142.718 122.762 142.706C123.887 142.659 124.812 142.223 125.456 141.267C125.643 140.984 125.784 140.665 125.913 140.347C126.053 139.993 126.135 139.603 126.252 139.238C126.369 138.907 126.522 138.589 126.639 138.27C126.814 137.775 126.967 137.279 127.142 136.784C127.4 136.076 127.681 135.391 127.939 134.684C128.044 134.389 128.149 134.094 128.231 133.799C128.36 133.374 128.466 132.949 128.606 132.525C128.688 132.289 128.817 132.064 128.899 131.84C129.157 131.156 129.414 130.472 129.648 129.776C129.812 129.304 129.941 128.82 130.094 128.348C130.175 128.112 130.269 127.876 130.363 127.652C130.632 126.932 130.913 126.201 131.159 125.469C131.499 124.478 131.803 123.487 132.155 122.496C132.389 121.847 132.682 121.21 132.916 120.561C133.068 120.148 133.185 119.712 133.314 119.287C133.607 118.391 133.9 117.494 134.216 116.609C134.462 115.937 134.801 115.299 134.977 114.603C135.153 113.884 135.492 113.235 135.692 112.527C135.879 111.854 136.148 111.217 136.371 110.568C136.617 109.861 136.863 109.153 137.12 108.457C137.39 107.737 137.682 107.017 137.928 106.286C138.057 105.885 138.139 105.472 138.327 105.082C138.549 104.61 138.713 104.115 138.877 103.619C139.111 102.923 139.31 102.215 139.545 101.519C139.755 100.894 139.978 100.281 140.2 99.667C140.364 99.2187 140.54 98.7703 140.704 98.322C141.079 97.2956 141.395 96.2456 141.817 95.2309C142.098 94.5584 142.25 93.8388 142.472 93.1427C142.566 92.8477 142.707 92.5764 142.812 92.2814C143.163 91.3376 143.503 90.3937 143.843 89.4499C144.018 89.1077 144.159 88.683 144.276 88.2937Z" fill="white"/>
<path d="M115.201 150.907C115.319 151.102 115.366 151.285 115.496 151.388C116.356 152.109 117.216 152.818 118.147 153.459C118.7 153.848 119.231 154.283 119.808 154.65C120.621 155.176 121.387 155.76 122.247 156.195C123.048 156.595 123.802 157.076 124.627 157.431C125.546 157.82 126.465 158.209 127.36 158.644C127.831 158.873 128.303 159.044 128.809 159.193C129.504 159.399 130.152 159.742 130.836 159.983C131.248 160.132 131.696 160.189 132.12 160.326C132.603 160.475 133.062 160.624 133.581 160.658C133.993 160.681 134.417 160.841 134.794 161.013C135.148 161.173 135.513 161.173 135.878 161.207C136.102 161.23 136.326 161.31 136.55 161.356C136.62 161.379 136.691 161.413 136.774 161.425C137.645 161.539 138.506 161.654 139.377 161.757C139.955 161.825 140.544 161.894 141.121 161.951C141.321 161.974 141.51 161.997 141.71 161.997C143.572 161.997 145.433 162.008 147.295 161.986C147.684 161.986 148.061 161.848 148.449 161.802C148.756 161.768 149.074 161.768 149.392 161.757C149.757 161.734 150.122 161.757 150.476 161.585C150.676 161.493 150.935 161.528 151.171 161.505C151.631 161.459 152.114 161.505 152.538 161.242C152.597 161.207 152.691 161.196 152.762 161.196C153.421 161.253 154.058 161.059 154.647 160.853C155.518 160.555 156.485 160.578 157.298 160.086C158.087 160.051 158.758 159.617 159.513 159.433C160.102 159.285 160.667 159.021 161.233 158.793C161.822 158.552 162.387 158.289 162.965 158.014C163.954 157.545 164.944 157.076 165.898 156.561C166.747 156.115 167.595 155.645 168.372 155.096C169.15 154.558 169.939 154.043 170.705 153.482C171.518 152.876 172.284 152.223 173.097 151.64C173.368 151.445 173.592 151.182 173.91 150.884C173.274 150.758 172.732 150.655 172.19 150.552C172.096 150.53 171.989 150.552 171.895 150.518C171.224 150.289 170.517 150.289 169.822 150.209C168.938 150.106 168.078 149.877 167.194 149.717C167.018 149.683 166.841 149.706 166.664 149.671C166.334 149.625 166.016 149.545 165.698 149.5C165.333 149.454 164.956 149.454 164.59 149.397C164.249 149.351 163.907 149.259 163.577 149.179C163.507 149.168 163.424 149.133 163.353 149.122C162.753 149.03 162.163 148.882 161.563 148.882C160.867 148.87 160.196 148.733 159.583 148.481C158.888 148.195 158.252 147.76 157.792 147.119C157.392 146.535 157.121 145.917 156.909 145.254C156.673 144.521 156.355 143.812 156.096 143.091C155.848 142.415 155.648 141.74 155.401 141.065C155.165 140.413 154.894 139.783 154.658 139.131C154.493 138.673 154.364 138.204 154.211 137.734C154.14 137.517 154.022 137.322 153.952 137.105C153.645 136.224 153.374 135.32 153.021 134.45C152.691 133.637 152.408 132.802 152.114 131.966C151.89 131.314 151.583 130.685 151.336 130.032C151.195 129.666 151.1 129.277 150.971 128.911C150.712 128.19 150.441 127.469 150.181 126.748C149.957 126.13 149.745 125.512 149.522 124.905C149.239 124.15 148.944 123.394 148.661 122.639C148.355 121.815 148.037 120.991 147.754 120.156C147.519 119.48 147.318 118.794 147.083 118.118C146.847 117.455 146.553 116.802 146.305 116.127C146.069 115.475 145.881 114.811 145.645 114.159C145.516 113.792 145.327 113.449 145.245 113.048C145.198 112.82 144.891 112.614 144.656 112.453C144.561 112.385 144.314 112.419 144.232 112.499C144.019 112.682 143.784 112.9 143.69 113.14C143.43 113.804 143.23 114.49 142.994 115.166C142.782 115.784 142.535 116.402 142.311 117.02C142.052 117.718 141.816 118.439 141.533 119.126C141.263 119.801 141.121 120.522 140.744 121.163C140.709 121.231 140.662 121.3 140.662 121.369C140.662 121.918 140.296 122.353 140.143 122.856C140.002 123.326 139.849 123.783 139.696 124.253C139.613 124.482 139.519 124.699 139.436 124.928C139.165 125.638 138.894 126.336 138.635 127.045C138.494 127.446 138.376 127.869 138.235 128.27C138.152 128.522 138.034 128.762 137.94 129.002C137.563 129.986 137.186 130.971 136.833 131.955C136.585 132.642 136.385 133.351 136.149 134.049C136.043 134.37 135.89 134.667 135.784 134.988C135.584 135.537 135.419 136.098 135.207 136.636C134.959 137.288 134.676 137.918 134.429 138.558C134.299 138.89 134.205 139.234 134.087 139.577C133.828 140.287 133.557 140.985 133.298 141.683C133.062 142.358 132.85 143.033 132.603 143.709C132.355 144.395 132.096 145.082 131.813 145.746C131.672 146.066 131.625 146.409 131.425 146.73C130.942 147.497 130.27 148.046 129.492 148.435C129.021 148.664 128.467 148.733 127.937 148.824C127.195 148.95 126.394 148.927 125.687 149.168C125.133 149.351 124.579 149.351 124.037 149.431C123.272 149.545 122.518 149.717 121.752 149.866C121.563 149.9 121.363 149.934 121.175 149.946C120.75 149.992 120.314 149.946 119.926 150.186C119.89 150.209 119.843 150.209 119.808 150.209C118.936 150.14 118.123 150.472 117.263 150.552C117.169 150.564 117.051 150.541 116.968 150.587C116.544 150.85 116.061 150.793 115.602 150.816C115.484 150.85 115.39 150.884 115.201 150.907Z" fill="white"/>
</g>
</svg>
