<svg width="25" height="26" viewBox="0 0 25 26" fill="none" xmlns="http://www.w3.org/2000/svg">
<path fill-rule="evenodd" clip-rule="evenodd" d="M0 13.0645C0 19.968 5.59644 25.5645 12.5 25.5645C19.4036 25.5645 25 19.968 25 13.0645C25 6.16089 19.4036 0.564453 12.5 0.564453C5.59644 0.564453 0 6.16089 0 13.0645ZM10.2083 18.7936L10.421 15.6073L10.4208 15.6072L16.2171 10.3764C16.4715 10.1507 16.1616 10.0406 15.8239 10.2453L8.67046 14.7584L5.58056 13.794C4.91328 13.5897 4.90849 13.1311 5.73038 12.8015L17.771 8.15865C18.3209 7.90898 18.8517 8.29073 18.6418 9.13242L16.5912 18.7952C16.4481 19.4819 16.0332 19.6461 15.4583 19.3289L12.3347 17.0212L10.8333 18.4811C10.8286 18.4857 10.8239 18.4903 10.8192 18.4949C10.6513 18.6584 10.5123 18.7936 10.2083 18.7936Z" fill="#767F8F"/>
</svg>
