<svg width="25" height="26" viewBox="0 0 25 26" fill="none" xmlns="http://www.w3.org/2000/svg">
<path fill-rule="evenodd" clip-rule="evenodd" d="M12.5 0.564453C5.59644 0.564453 0 6.16089 0 13.0645C0 19.968 5.59644 25.5645 12.5 25.5645C19.4036 25.5645 25 19.968 25 13.0645C25 6.16089 19.4036 0.564453 12.5 0.564453ZM12.1519 11.1571L12.1256 10.7246C12.0469 9.60357 12.7377 8.57962 13.8306 8.1824C14.2328 8.04117 14.9148 8.02352 15.3607 8.14709C15.5356 8.20006 15.8678 8.3766 16.1039 8.53549L16.5323 8.82678L17.0045 8.67672C17.2668 8.59728 17.6165 8.46487 17.7739 8.3766C17.9226 8.29716 18.0537 8.25302 18.0537 8.2795C18.0537 8.42956 17.7302 8.94153 17.4592 9.224C17.0919 9.62122 17.1969 9.65653 17.94 9.39172C18.386 9.24166 18.3947 9.24166 18.3073 9.40937C18.2548 9.49764 17.9838 9.80659 17.6952 10.0891C17.2056 10.5745 17.1794 10.6275 17.1794 11.0336C17.1794 11.6603 16.8821 12.9667 16.5848 13.6817C16.034 15.0234 14.8536 16.4093 13.6732 17.1066C12.012 18.0864 9.79986 18.3336 7.93749 17.7598C7.31671 17.5656 6.25 17.0713 6.25 16.983C6.25 16.9565 6.57351 16.9212 6.96697 16.9124C7.78885 16.8948 8.61074 16.6653 9.31022 16.2592L9.78237 15.9767L9.24027 15.7914C8.47085 15.5266 7.78011 14.9175 7.60524 14.3437C7.55278 14.1584 7.57027 14.1495 8.0599 14.1495L8.56703 14.1407L8.13859 13.9377C7.63147 13.6817 7.16807 13.2492 6.94074 12.8078C6.77461 12.49 6.56477 11.6868 6.62597 11.625C6.64346 11.5985 6.82707 11.6515 7.03691 11.7221C7.64021 11.9427 7.71891 11.8898 7.36917 11.519C6.71341 10.8482 6.5123 9.85073 6.82707 8.90623L6.97571 8.48252L7.55278 9.05629C8.73315 10.2126 10.1234 10.9012 11.7147 11.1042L12.1519 11.1571Z" fill="#767F8F"/>
</svg>
