<svg width="26" height="26" viewBox="0 0 26 26" fill="none" xmlns="http://www.w3.org/2000/svg">
<path d="M14.65 13.2205L11.7255 11.856C11.4703 11.7375 11.2607 11.8703 11.2607 12.1528V14.7231C11.2607 15.0057 11.4703 15.1385 11.7255 15.02L14.6487 13.6554C14.9052 13.5356 14.9052 13.3403 14.65 13.2205ZM12.5627 0.937988C5.6591 0.937988 0.0627441 6.53434 0.0627441 13.438C0.0627441 20.3416 5.6591 25.938 12.5627 25.938C19.4664 25.938 25.0627 20.3416 25.0627 13.438C25.0627 6.53434 19.4664 0.937988 12.5627 0.937988ZM12.5627 18.5161C6.16431 18.5161 6.05233 17.9393 6.05233 13.438C6.05233 8.93669 6.16431 8.35986 12.5627 8.35986C18.9612 8.35986 19.0732 8.93669 19.0732 13.438C19.0732 17.9393 18.9612 18.5161 12.5627 18.5161Z" fill="#767F8F"/>
</svg>
